<svg width="343" height="173" viewBox="0 0 343 173" fill="none" xmlns="http://www.w3.org/2000/svg">
<rect x="0.5" y="0.5" width="342" height="172" rx="15.5" fill="url(#paint0_linear_0_384)" stroke="#DFE4FF"/>
<circle cx="190.98" cy="57.5" r="5" fill="#F3B17D"/>
<path d="M206.27 52.5455V62H205.125V52.5455H206.27ZM209.508 57.7344V62H208.418V54.9091H209.471V56.017H209.563C209.729 55.657 209.982 55.3677 210.32 55.1491C210.659 54.9276 211.096 54.8168 211.631 54.8168C212.111 54.8168 212.531 54.9152 212.891 55.1122C213.252 55.3061 213.532 55.6016 213.732 55.9986C213.932 56.3925 214.032 56.8911 214.032 57.4943V62H212.942V57.5682C212.942 57.0111 212.798 56.5772 212.508 56.2663C212.219 55.9524 211.822 55.7955 211.317 55.7955C210.969 55.7955 210.659 55.8709 210.385 56.0217C210.114 56.1725 209.9 56.3925 209.743 56.6818C209.586 56.9711 209.508 57.322 209.508 57.7344ZM218.903 62.1477C218.238 62.1477 217.666 61.9908 217.186 61.6768C216.706 61.3629 216.336 60.9305 216.078 60.3796C215.819 59.8287 215.69 59.1993 215.69 58.4915C215.69 57.7713 215.823 57.1358 216.087 56.5849C216.355 56.0309 216.727 55.5985 217.204 55.2876C217.684 54.9737 218.245 54.8168 218.885 54.8168C219.383 54.8168 219.833 54.9091 220.233 55.0938C220.633 55.2784 220.961 55.5369 221.216 55.8693C221.472 56.2017 221.63 56.5895 221.692 57.0327H220.602C220.519 56.7095 220.334 56.4233 220.048 56.174C219.765 55.9216 219.383 55.7955 218.903 55.7955C218.479 55.7955 218.106 55.9062 217.786 56.1278C217.469 56.3464 217.221 56.6557 217.043 57.0558C216.867 57.4528 216.78 57.919 216.78 58.4545C216.78 59.0024 216.866 59.4794 217.038 59.8857C217.214 60.2919 217.46 60.6074 217.777 60.832C218.097 61.0567 218.472 61.169 218.903 61.169C219.186 61.169 219.443 61.1198 219.674 61.0213C219.905 60.9228 220.1 60.7812 220.26 60.5966C220.421 60.4119 220.534 60.1903 220.602 59.9318H221.692C221.63 60.3504 221.478 60.7274 221.235 61.0629C220.994 61.3952 220.676 61.6599 220.279 61.8569C219.885 62.0508 219.426 62.1477 218.903 62.1477ZM226.165 62.1477C225.525 62.1477 224.963 61.9954 224.48 61.6907C224 61.386 223.624 60.9598 223.354 60.4119C223.086 59.8641 222.952 59.224 222.952 58.4915C222.952 57.7528 223.086 57.1081 223.354 56.5572C223.624 56.0063 224 55.5785 224.48 55.2738C224.963 54.9691 225.525 54.8168 226.165 54.8168C226.805 54.8168 227.365 54.9691 227.845 55.2738C228.329 55.5785 228.704 56.0063 228.972 56.5572C229.243 57.1081 229.378 57.7528 229.378 58.4915C229.378 59.224 229.243 59.8641 228.972 60.4119C228.704 60.9598 228.329 61.386 227.845 61.6907C227.365 61.9954 226.805 62.1477 226.165 62.1477ZM226.165 61.169C226.651 61.169 227.051 61.0444 227.365 60.7951C227.679 60.5458 227.912 60.218 228.062 59.8118C228.213 59.4055 228.289 58.9654 228.289 58.4915C228.289 58.0175 228.213 57.5759 228.062 57.1665C227.912 56.7572 227.679 56.4264 227.365 56.174C227.051 55.9216 226.651 55.7955 226.165 55.7955C225.679 55.7955 225.279 55.9216 224.965 56.174C224.651 56.4264 224.418 56.7572 224.268 57.1665C224.117 57.5759 224.041 58.0175 224.041 58.4915C224.041 58.9654 224.117 59.4055 224.268 59.8118C224.418 60.218 224.651 60.5458 224.965 60.7951C225.279 61.0444 225.679 61.169 226.165 61.169ZM231.041 62V54.9091H232.094V56.017H232.186C232.334 55.6385 232.572 55.3446 232.902 55.1353C233.231 54.9229 233.626 54.8168 234.088 54.8168C234.556 54.8168 234.945 54.9229 235.256 55.1353C235.57 55.3446 235.815 55.6385 235.99 56.017H236.064C236.245 55.6508 236.518 55.36 236.881 55.1445C237.244 54.926 237.68 54.8168 238.187 54.8168C238.821 54.8168 239.34 55.0153 239.743 55.4123C240.146 55.8062 240.348 56.4202 240.348 57.2543V62H239.258V57.2543C239.258 56.7311 239.115 56.3571 238.829 56.1325C238.543 55.9078 238.206 55.7955 237.818 55.7955C237.32 55.7955 236.933 55.9463 236.659 56.2479C236.385 56.5464 236.248 56.925 236.248 57.3835V62H235.141V57.1435C235.141 56.7403 235.01 56.4156 234.748 56.1694C234.487 55.9201 234.15 55.7955 233.737 55.7955C233.454 55.7955 233.189 55.8709 232.943 56.0217C232.7 56.1725 232.503 56.3817 232.352 56.6495C232.204 56.9142 232.131 57.2204 232.131 57.5682V62H231.041ZM242.34 64.6591V54.9091H243.392V56.0355H243.522C243.602 55.9124 243.713 55.7554 243.854 55.5646C243.999 55.3707 244.205 55.1984 244.473 55.0476C244.744 54.8937 245.11 54.8168 245.571 54.8168C246.169 54.8168 246.695 54.966 247.15 55.2646C247.606 55.5631 247.961 55.9863 248.217 56.5341C248.472 57.0819 248.6 57.7282 248.6 58.473C248.6 59.224 248.472 59.8749 248.217 60.4258C247.961 60.9736 247.607 61.3983 247.155 61.6999C246.703 61.9985 246.181 62.1477 245.59 62.1477C245.134 62.1477 244.77 62.0723 244.496 61.9215C244.222 61.7676 244.011 61.5937 243.863 61.3999C243.716 61.2029 243.602 61.0398 243.522 60.9105H243.429V64.6591H242.34ZM243.411 58.4545C243.411 58.9901 243.489 59.4625 243.646 59.8718C243.803 60.2781 244.033 60.5966 244.334 60.8274C244.636 61.0552 245.005 61.169 245.442 61.169C245.898 61.169 246.278 61.049 246.582 60.8089C246.89 60.5658 247.121 60.2396 247.275 59.8303C247.432 59.4179 247.51 58.9593 247.51 58.4545C247.51 57.956 247.433 57.5066 247.28 57.1065C247.129 56.7034 246.899 56.3848 246.592 56.1509C246.287 55.9139 245.904 55.7955 245.442 55.7955C244.999 55.7955 244.627 55.9078 244.325 56.1325C244.023 56.354 243.796 56.6649 243.642 57.065C243.488 57.462 243.411 57.9252 243.411 58.4545ZM251.351 52.5455V62H250.262V52.5455H251.351ZM256.32 62.1477C255.637 62.1477 255.047 61.9969 254.552 61.6953C254.059 61.3906 253.679 60.9659 253.411 60.4212C253.147 59.8733 253.014 59.2363 253.014 58.5099C253.014 57.7836 253.147 57.1435 253.411 56.5895C253.679 56.0324 254.052 55.5985 254.529 55.2876C255.009 54.9737 255.569 54.8168 256.209 54.8168C256.578 54.8168 256.943 54.8783 257.303 55.0014C257.663 55.1245 257.991 55.3246 258.286 55.6016C258.582 55.8755 258.817 56.2386 258.993 56.6911C259.168 57.1435 259.256 57.7005 259.256 58.3622V58.8239H253.79V57.8821H258.148C258.148 57.482 258.068 57.125 257.908 56.8111C257.751 56.4972 257.526 56.2494 257.234 56.0678C256.945 55.8862 256.603 55.7955 256.209 55.7955C255.775 55.7955 255.4 55.9032 255.083 56.1186C254.769 56.331 254.527 56.608 254.358 56.9496C254.189 57.2912 254.104 57.6574 254.104 58.0483V58.6761C254.104 59.2116 254.196 59.6656 254.381 60.038C254.569 60.4073 254.829 60.6889 255.161 60.8828C255.493 61.0736 255.88 61.169 256.32 61.169C256.606 61.169 256.865 61.129 257.095 61.049C257.329 60.9659 257.531 60.8428 257.7 60.6797C257.869 60.5135 258 60.3073 258.093 60.0611L259.145 60.3565C259.034 60.7135 258.848 61.0275 258.586 61.2983C258.325 61.5661 258.002 61.7753 257.617 61.9261C257.232 62.0739 256.8 62.1477 256.32 62.1477ZM263.997 54.9091V55.8324H260.322V54.9091H263.997ZM261.393 53.2102H262.483V59.9688C262.483 60.2765 262.527 60.5073 262.617 60.6612C262.709 60.812 262.826 60.9136 262.968 60.9659C263.112 61.0152 263.265 61.0398 263.425 61.0398C263.545 61.0398 263.643 61.0336 263.72 61.0213C263.797 61.0059 263.858 60.9936 263.905 60.9844L264.126 61.9631C264.052 61.9908 263.949 62.0185 263.817 62.0462C263.685 62.0769 263.517 62.0923 263.314 62.0923C263.006 62.0923 262.704 62.0262 262.409 61.8938C262.117 61.7615 261.873 61.5599 261.68 61.2891C261.489 61.0182 261.393 60.6766 261.393 60.2642V53.2102ZM268.533 62.1477C267.849 62.1477 267.26 61.9969 266.765 61.6953C266.272 61.3906 265.892 60.9659 265.624 60.4212C265.36 59.8733 265.227 59.2363 265.227 58.5099C265.227 57.7836 265.36 57.1435 265.624 56.5895C265.892 56.0324 266.264 55.5985 266.741 55.2876C267.222 54.9737 267.782 54.8168 268.422 54.8168C268.791 54.8168 269.156 54.8783 269.516 55.0014C269.876 55.1245 270.204 55.3246 270.499 55.6016C270.795 55.8755 271.03 56.2386 271.206 56.6911C271.381 57.1435 271.469 57.7005 271.469 58.3622V58.8239H266.003V57.8821H270.361C270.361 57.482 270.281 57.125 270.121 56.8111C269.964 56.4972 269.739 56.2494 269.447 56.0678C269.157 55.8862 268.816 55.7955 268.422 55.7955C267.988 55.7955 267.612 55.9032 267.295 56.1186C266.982 56.331 266.74 56.608 266.571 56.9496C266.401 57.2912 266.317 57.6574 266.317 58.0483V58.6761C266.317 59.2116 266.409 59.6656 266.594 60.038C266.781 60.4073 267.042 60.6889 267.374 60.8828C267.706 61.0736 268.093 61.169 268.533 61.169C268.819 61.169 269.077 61.129 269.308 61.049C269.542 60.9659 269.744 60.8428 269.913 60.6797C270.082 60.5135 270.213 60.3073 270.305 60.0611L271.358 60.3565C271.247 60.7135 271.061 61.0275 270.799 61.2983C270.538 61.5661 270.215 61.7753 269.83 61.9261C269.445 62.0739 269.013 62.1477 268.533 62.1477Z" fill="white"/>
<circle cx="190.98" cy="86.5" r="5" fill="#E77D76"/>
<path d="M205.125 91V81.5455H208.32C209.062 81.5455 209.668 81.6793 210.139 81.9471C210.613 82.2118 210.964 82.5703 211.191 83.0227C211.419 83.4751 211.533 83.9799 211.533 84.5369C211.533 85.094 211.419 85.6003 211.191 86.0558C210.967 86.5112 210.619 86.8744 210.148 87.1452C209.677 87.413 209.074 87.5469 208.338 87.5469H206.049V86.5312H208.301C208.809 86.5312 209.217 86.4435 209.525 86.2681C209.833 86.0927 210.056 85.8557 210.194 85.5572C210.336 85.2556 210.407 84.9155 210.407 84.5369C210.407 84.1584 210.336 83.8198 210.194 83.5213C210.056 83.2228 209.831 82.9889 209.52 82.8196C209.209 82.6473 208.797 82.5611 208.283 82.5611H206.27V91H205.125ZM216.126 91.1477C215.443 91.1477 214.854 90.9969 214.358 90.6953C213.866 90.3906 213.486 89.9659 213.218 89.4212C212.953 88.8733 212.821 88.2363 212.821 87.5099C212.821 86.7836 212.953 86.1435 213.218 85.5895C213.486 85.0324 213.858 84.5985 214.335 84.2876C214.815 83.9737 215.375 83.8168 216.016 83.8168C216.385 83.8168 216.75 83.8783 217.11 84.0014C217.47 84.1245 217.798 84.3246 218.093 84.6016C218.388 84.8755 218.624 85.2386 218.799 85.6911C218.975 86.1435 219.062 86.7005 219.062 87.3622V87.8239H213.597V86.8821H217.955C217.955 86.482 217.875 86.125 217.714 85.8111C217.558 85.4972 217.333 85.2494 217.04 85.0678C216.751 84.8862 216.41 84.7955 216.016 84.7955C215.582 84.7955 215.206 84.9032 214.889 85.1186C214.575 85.331 214.334 85.608 214.164 85.9496C213.995 86.2912 213.911 86.6574 213.911 87.0483V87.6761C213.911 88.2116 214.003 88.6656 214.188 89.038C214.375 89.4073 214.635 89.6889 214.968 89.8828C215.3 90.0736 215.686 90.169 216.126 90.169C216.413 90.169 216.671 90.129 216.902 90.049C217.136 89.9659 217.337 89.8428 217.507 89.6797C217.676 89.5135 217.807 89.3073 217.899 89.0611L218.952 89.3565C218.841 89.7135 218.655 90.0275 218.393 90.2983C218.132 90.5661 217.808 90.7753 217.424 90.9261C217.039 91.0739 216.607 91.1477 216.126 91.1477ZM221.809 86.7344V91H220.72V83.9091H221.772V85.017H221.865C222.031 84.657 222.283 84.3677 222.622 84.1491C222.96 83.9276 223.397 83.8168 223.933 83.8168C224.413 83.8168 224.833 83.9152 225.193 84.1122C225.553 84.3061 225.833 84.6016 226.033 84.9986C226.233 85.3925 226.333 85.8911 226.333 86.4943V91H225.244V86.5682C225.244 86.0111 225.099 85.5772 224.81 85.2663C224.521 84.9524 224.124 84.7955 223.619 84.7955C223.271 84.7955 222.96 84.8709 222.686 85.0217C222.416 85.1725 222.202 85.3925 222.045 85.6818C221.888 85.9711 221.809 86.322 221.809 86.7344ZM231.002 91.1477C230.411 91.1477 229.889 90.9985 229.437 90.6999C228.984 90.3983 228.631 89.9736 228.375 89.4258C228.12 88.8749 227.992 88.224 227.992 87.473C227.992 86.7282 228.12 86.0819 228.375 85.5341C228.631 84.9863 228.986 84.5631 229.441 84.2646C229.897 83.966 230.423 83.8168 231.02 83.8168C231.482 83.8168 231.847 83.8937 232.114 84.0476C232.385 84.1984 232.591 84.3707 232.733 84.5646C232.878 84.7554 232.99 84.9124 233.07 85.0355H233.162V81.5455H234.252V91H233.199V89.9105H233.07C232.99 90.0398 232.876 90.2029 232.728 90.3999C232.581 90.5937 232.37 90.7676 232.096 90.9215C231.822 91.0723 231.457 91.1477 231.002 91.1477ZM231.15 90.169C231.587 90.169 231.956 90.0552 232.258 89.8274C232.559 89.5966 232.788 89.2781 232.945 88.8718C233.102 88.4625 233.181 87.9901 233.181 87.4545C233.181 86.9252 233.104 86.462 232.95 86.065C232.796 85.6649 232.568 85.354 232.267 85.1325C231.965 84.9078 231.593 84.7955 231.15 84.7955C230.688 84.7955 230.303 84.9139 229.995 85.1509C229.691 85.3848 229.461 85.7034 229.308 86.1065C229.157 86.5066 229.081 86.956 229.081 87.4545C229.081 87.9593 229.158 88.4179 229.312 88.8303C229.469 89.2396 229.7 89.5658 230.005 89.8089C230.312 90.049 230.694 90.169 231.15 90.169ZM236.399 91V83.9091H237.488V91H236.399ZM236.953 82.7273C236.74 82.7273 236.557 82.6549 236.403 82.5103C236.252 82.3656 236.177 82.1918 236.177 81.9886C236.177 81.7855 236.252 81.6116 236.403 81.467C236.557 81.3223 236.74 81.25 236.953 81.25C237.165 81.25 237.346 81.3223 237.497 81.467C237.651 81.6116 237.728 81.7855 237.728 81.9886C237.728 82.1918 237.651 82.3656 237.497 82.5103C237.346 82.6549 237.165 82.7273 236.953 82.7273ZM240.573 86.7344V91H239.483V83.9091H240.536V85.017H240.628C240.795 84.657 241.047 84.3677 241.385 84.1491C241.724 83.9276 242.161 83.8168 242.697 83.8168C243.177 83.8168 243.597 83.9152 243.957 84.1122C244.317 84.3061 244.597 84.6016 244.797 84.9986C244.997 85.3925 245.097 85.8911 245.097 86.4943V91H244.008V86.5682C244.008 86.0111 243.863 85.5772 243.574 85.2663C243.284 84.9524 242.887 84.7955 242.383 84.7955C242.035 84.7955 241.724 84.8709 241.45 85.0217C241.179 85.1725 240.965 85.3925 240.808 85.6818C240.651 85.9711 240.573 86.322 240.573 86.7344ZM249.95 93.8068C249.424 93.8068 248.972 93.7391 248.593 93.6037C248.214 93.4714 247.899 93.2959 247.647 93.0774C247.397 92.862 247.199 92.6312 247.051 92.3849L247.919 91.7756C248.017 91.9048 248.142 92.0526 248.293 92.2188C248.444 92.388 248.65 92.5342 248.911 92.6573C249.176 92.7835 249.522 92.8466 249.95 92.8466C250.523 92.8466 250.995 92.7081 251.367 92.4311C251.74 92.1541 251.926 91.7202 251.926 91.1293V89.6889H251.834C251.754 89.8182 251.64 89.9782 251.492 90.169C251.347 90.3568 251.138 90.5245 250.864 90.6722C250.593 90.8169 250.227 90.8892 249.766 90.8892C249.193 90.8892 248.679 90.7538 248.224 90.483C247.771 90.2121 247.413 89.8182 247.148 89.3011C246.886 88.7841 246.756 88.1562 246.756 87.4176C246.756 86.6913 246.883 86.0588 247.139 85.5202C247.394 84.9786 247.75 84.56 248.205 84.2646C248.661 83.966 249.187 83.8168 249.784 83.8168C250.246 83.8168 250.612 83.8937 250.883 84.0476C251.157 84.1984 251.366 84.3707 251.511 84.5646C251.658 84.7554 251.772 84.9124 251.852 85.0355H251.963V83.9091H253.016V91.2031C253.016 91.8125 252.877 92.308 252.6 92.6896C252.326 93.0743 251.957 93.3559 251.492 93.5344C251.03 93.716 250.516 93.8068 249.95 93.8068ZM249.913 89.9105C250.35 89.9105 250.72 89.8105 251.021 89.6104C251.323 89.4104 251.552 89.1226 251.709 88.7472C251.866 88.3717 251.945 87.9223 251.945 87.3991C251.945 86.8883 251.868 86.4374 251.714 86.0465C251.56 85.6557 251.332 85.3494 251.03 85.1278C250.729 84.9062 250.356 84.7955 249.913 84.7955C249.452 84.7955 249.067 84.9124 248.759 85.1463C248.454 85.3802 248.225 85.6941 248.071 86.0881C247.92 86.482 247.845 86.919 247.845 87.3991C247.845 87.8916 247.922 88.3271 248.076 88.7056C248.233 89.0811 248.464 89.3765 248.768 89.592C249.076 89.8043 249.458 89.9105 249.913 89.9105ZM260.753 91.1662C260.303 91.1662 259.896 91.0816 259.529 90.9123C259.163 90.7399 258.872 90.4922 258.657 90.169C258.441 89.8428 258.334 89.4489 258.334 88.9872C258.334 88.581 258.414 88.2517 258.574 87.9993C258.734 87.7438 258.948 87.5438 259.215 87.3991C259.483 87.2545 259.779 87.1468 260.102 87.076C260.428 87.0021 260.756 86.9437 261.085 86.9006C261.516 86.8452 261.865 86.8036 262.133 86.7759C262.404 86.7451 262.601 86.6944 262.724 86.6236C262.85 86.5528 262.913 86.4297 262.913 86.2543V86.2173C262.913 85.7618 262.789 85.4079 262.539 85.1555C262.293 84.9032 261.919 84.777 261.418 84.777C260.897 84.777 260.49 84.8909 260.194 85.1186C259.899 85.3464 259.691 85.5895 259.571 85.848L258.537 85.4787C258.722 85.0478 258.968 84.7124 259.275 84.4723C259.586 84.2292 259.925 84.0599 260.291 83.9645C260.66 83.866 261.024 83.8168 261.381 83.8168C261.608 83.8168 261.87 83.8445 262.165 83.8999C262.464 83.9522 262.752 84.0614 263.029 84.2276C263.309 84.3938 263.541 84.6446 263.726 84.9801C263.91 85.3156 264.003 85.7649 264.003 86.3281V91H262.913V90.0398H262.858C262.784 90.1937 262.661 90.3583 262.489 90.5337C262.316 90.7092 262.087 90.8584 261.801 90.9815C261.514 91.1046 261.165 91.1662 260.753 91.1662ZM260.919 90.1875C261.35 90.1875 261.713 90.1029 262.008 89.9336C262.307 89.7643 262.532 89.5458 262.682 89.2781C262.836 89.0103 262.913 88.7287 262.913 88.4332V87.4361C262.867 87.4915 262.766 87.5423 262.609 87.5884C262.455 87.6315 262.276 87.67 262.073 87.7038C261.873 87.7346 261.678 87.7623 261.487 87.7869C261.299 87.8085 261.147 87.8269 261.03 87.8423C260.747 87.8793 260.482 87.9393 260.236 88.0224C259.993 88.1024 259.796 88.224 259.645 88.3871C259.497 88.5471 259.423 88.7656 259.423 89.0426C259.423 89.4212 259.563 89.7074 259.843 89.9013C260.126 90.0921 260.485 90.1875 260.919 90.1875ZM265.991 93.6591V83.9091H267.044V85.0355H267.173C267.253 84.9124 267.364 84.7554 267.506 84.5646C267.65 84.3707 267.856 84.1984 268.124 84.0476C268.395 83.8937 268.761 83.8168 269.223 83.8168C269.82 83.8168 270.346 83.966 270.802 84.2646C271.257 84.5631 271.613 84.9863 271.868 85.5341C272.124 86.0819 272.251 86.7282 272.251 87.473C272.251 88.224 272.124 88.8749 271.868 89.4258C271.613 89.9736 271.259 90.3983 270.806 90.6999C270.354 90.9985 269.832 91.1477 269.241 91.1477C268.786 91.1477 268.421 91.0723 268.147 90.9215C267.873 90.7676 267.662 90.5937 267.515 90.3999C267.367 90.2029 267.253 90.0398 267.173 89.9105H267.081V93.6591H265.991ZM267.062 87.4545C267.062 87.9901 267.141 88.4625 267.298 88.8718C267.455 89.2781 267.684 89.5966 267.986 89.8274C268.287 90.0552 268.657 90.169 269.094 90.169C269.549 90.169 269.929 90.049 270.234 89.8089C270.542 89.5658 270.772 89.2396 270.926 88.8303C271.083 88.4179 271.162 87.9593 271.162 87.4545C271.162 86.956 271.085 86.5066 270.931 86.1065C270.78 85.7034 270.551 85.3848 270.243 85.1509C269.938 84.9139 269.555 84.7955 269.094 84.7955C268.65 84.7955 268.278 84.9078 267.976 85.1325C267.675 85.354 267.447 85.6649 267.293 86.065C267.139 86.462 267.062 86.9252 267.062 87.4545ZM273.913 93.6591V83.9091H274.966V85.0355H275.095C275.175 84.9124 275.286 84.7554 275.427 84.5646C275.572 84.3707 275.778 84.1984 276.046 84.0476C276.317 83.8937 276.683 83.8168 277.145 83.8168C277.742 83.8168 278.268 83.966 278.724 84.2646C279.179 84.5631 279.535 84.9863 279.79 85.5341C280.045 86.0819 280.173 86.7282 280.173 87.473C280.173 88.224 280.045 88.8749 279.79 89.4258C279.535 89.9736 279.181 90.3983 278.728 90.6999C278.276 90.9985 277.754 91.1477 277.163 91.1477C276.708 91.1477 276.343 91.0723 276.069 90.9215C275.795 90.7676 275.584 90.5937 275.437 90.3999C275.289 90.2029 275.175 90.0398 275.095 89.9105H275.003V93.6591H273.913ZM274.984 87.4545C274.984 87.9901 275.063 88.4625 275.22 88.8718C275.377 89.2781 275.606 89.5966 275.907 89.8274C276.209 90.0552 276.578 90.169 277.015 90.169C277.471 90.169 277.851 90.049 278.156 89.8089C278.463 89.5658 278.694 89.2396 278.848 88.8303C279.005 88.4179 279.084 87.9593 279.084 87.4545C279.084 86.956 279.007 86.5066 278.853 86.1065C278.702 85.7034 278.473 85.3848 278.165 85.1509C277.86 84.9139 277.477 84.7955 277.015 84.7955C276.572 84.7955 276.2 84.9078 275.898 85.1325C275.597 85.354 275.369 85.6649 275.215 86.065C275.061 86.462 274.984 86.9252 274.984 87.4545ZM281.835 91V83.9091H282.888V84.9801H282.961C283.091 84.6293 283.325 84.3446 283.663 84.1261C284.002 83.9076 284.383 83.7983 284.808 83.7983C284.888 83.7983 284.988 83.7998 285.108 83.8029C285.228 83.806 285.319 83.8106 285.381 83.8168V84.9247C285.344 84.9155 285.259 84.9016 285.127 84.8832C284.997 84.8616 284.86 84.8509 284.716 84.8509C284.371 84.8509 284.063 84.9232 283.792 85.0678C283.525 85.2094 283.312 85.4064 283.155 85.6587C283.001 85.908 282.925 86.1927 282.925 86.5128V91H281.835ZM289.337 91.1477C288.697 91.1477 288.135 90.9954 287.652 90.6907C287.172 90.386 286.796 89.9598 286.525 89.4119C286.258 88.8641 286.124 88.224 286.124 87.4915C286.124 86.7528 286.258 86.1081 286.525 85.5572C286.796 85.0063 287.172 84.5785 287.652 84.2738C288.135 83.9691 288.697 83.8168 289.337 83.8168C289.977 83.8168 290.537 83.9691 291.017 84.2738C291.5 84.5785 291.876 85.0063 292.144 85.5572C292.414 86.1081 292.55 86.7528 292.55 87.4915C292.55 88.224 292.414 88.8641 292.144 89.4119C291.876 89.9598 291.5 90.386 291.017 90.6907C290.537 90.9954 289.977 91.1477 289.337 91.1477ZM289.337 90.169C289.823 90.169 290.223 90.0444 290.537 89.7951C290.851 89.5458 291.083 89.218 291.234 88.8118C291.385 88.4055 291.46 87.9654 291.46 87.4915C291.46 87.0175 291.385 86.5759 291.234 86.1665C291.083 85.7572 290.851 85.4264 290.537 85.174C290.223 84.9216 289.823 84.7955 289.337 84.7955C288.851 84.7955 288.45 84.9216 288.137 85.174C287.823 85.4264 287.59 85.7572 287.439 86.1665C287.289 86.5759 287.213 87.0175 287.213 87.4915C287.213 87.9654 287.289 88.4055 287.439 88.8118C287.59 89.218 287.823 89.5458 288.137 89.7951C288.45 90.0444 288.851 90.169 289.337 90.169ZM299.757 83.9091L297.135 91H296.027L293.405 83.9091H294.587L296.544 89.5597H296.618L298.576 83.9091H299.757ZM303.066 91.1662C302.617 91.1662 302.209 91.0816 301.843 90.9123C301.477 90.7399 301.186 90.4922 300.97 90.169C300.755 89.8428 300.647 89.4489 300.647 88.9872C300.647 88.581 300.727 88.2517 300.887 87.9993C301.047 87.7438 301.261 87.5438 301.529 87.3991C301.797 87.2545 302.092 87.1468 302.415 87.076C302.742 87.0021 303.069 86.9437 303.399 86.9006C303.829 86.8452 304.179 86.8036 304.447 86.7759C304.717 86.7451 304.914 86.6944 305.037 86.6236C305.164 86.5528 305.227 86.4297 305.227 86.2543V86.2173C305.227 85.7618 305.102 85.4079 304.853 85.1555C304.607 84.9032 304.233 84.777 303.731 84.777C303.211 84.777 302.803 84.8909 302.508 85.1186C302.212 85.3464 302.004 85.5895 301.884 85.848L300.85 85.4787C301.035 85.0478 301.281 84.7124 301.589 84.4723C301.9 84.2292 302.238 84.0599 302.605 83.9645C302.974 83.866 303.337 83.8168 303.694 83.8168C303.922 83.8168 304.183 83.8445 304.479 83.8999C304.777 83.9522 305.065 84.0614 305.342 84.2276C305.622 84.3938 305.855 84.6446 306.039 84.9801C306.224 85.3156 306.316 85.7649 306.316 86.3281V91H305.227V90.0398H305.171C305.097 90.1937 304.974 90.3583 304.802 90.5337C304.63 90.7092 304.4 90.8584 304.114 90.9815C303.828 91.1046 303.479 91.1662 303.066 91.1662ZM303.232 90.1875C303.663 90.1875 304.026 90.1029 304.322 89.9336C304.62 89.7643 304.845 89.5458 304.996 89.2781C305.15 89.0103 305.227 88.7287 305.227 88.4332V87.4361C305.181 87.4915 305.079 87.5423 304.922 87.5884C304.768 87.6315 304.59 87.67 304.387 87.7038C304.186 87.7346 303.991 87.7623 303.8 87.7869C303.613 87.8085 303.46 87.8269 303.343 87.8423C303.06 87.8793 302.795 87.9393 302.549 88.0224C302.306 88.1024 302.109 88.224 301.958 88.3871C301.811 88.5471 301.737 88.7656 301.737 89.0426C301.737 89.4212 301.877 89.7074 302.157 89.9013C302.44 90.0921 302.798 90.1875 303.232 90.1875ZM309.394 81.5455V91H308.305V81.5455H309.394Z" fill="white"/>
<circle cx="190.98" cy="115.5" r="5" fill="#5BB991"/>
<path d="M205.513 120H204.313L207.784 110.545H208.966L212.438 120H211.238L208.412 112.041H208.338L205.513 120ZM205.956 116.307H210.794V117.322H205.956V116.307ZM213.763 122.659V112.909H214.815V114.036H214.945C215.025 113.912 215.135 113.755 215.277 113.565C215.422 113.371 215.628 113.198 215.896 113.048C216.166 112.894 216.533 112.817 216.994 112.817C217.591 112.817 218.118 112.966 218.573 113.265C219.029 113.563 219.384 113.986 219.64 114.534C219.895 115.082 220.023 115.728 220.023 116.473C220.023 117.224 219.895 117.875 219.64 118.426C219.384 118.974 219.03 119.398 218.578 119.7C218.125 119.998 217.604 120.148 217.013 120.148C216.557 120.148 216.193 120.072 215.919 119.922C215.645 119.768 215.434 119.594 215.286 119.4C215.138 119.203 215.025 119.04 214.945 118.911H214.852V122.659H213.763ZM214.834 116.455C214.834 116.99 214.912 117.462 215.069 117.872C215.226 118.278 215.455 118.597 215.757 118.827C216.059 119.055 216.428 119.169 216.865 119.169C217.321 119.169 217.701 119.049 218.005 118.809C218.313 118.566 218.544 118.24 218.698 117.83C218.855 117.418 218.933 116.959 218.933 116.455C218.933 115.956 218.856 115.507 218.702 115.107C218.552 114.703 218.322 114.385 218.015 114.151C217.71 113.914 217.327 113.795 216.865 113.795C216.422 113.795 216.049 113.908 215.748 114.132C215.446 114.354 215.219 114.665 215.065 115.065C214.911 115.462 214.834 115.925 214.834 116.455ZM221.685 122.659V112.909H222.737V114.036H222.866C222.946 113.912 223.057 113.755 223.199 113.565C223.344 113.371 223.55 113.198 223.817 113.048C224.088 112.894 224.455 112.817 224.916 112.817C225.513 112.817 226.04 112.966 226.495 113.265C226.951 113.563 227.306 113.986 227.561 114.534C227.817 115.082 227.945 115.728 227.945 116.473C227.945 117.224 227.817 117.875 227.561 118.426C227.306 118.974 226.952 119.398 226.5 119.7C226.047 119.998 225.526 120.148 224.935 120.148C224.479 120.148 224.114 120.072 223.841 119.922C223.567 119.768 223.356 119.594 223.208 119.4C223.06 119.203 222.946 119.04 222.866 118.911H222.774V122.659H221.685ZM222.756 116.455C222.756 116.99 222.834 117.462 222.991 117.872C223.148 118.278 223.377 118.597 223.679 118.827C223.981 119.055 224.35 119.169 224.787 119.169C225.242 119.169 225.623 119.049 225.927 118.809C226.235 118.566 226.466 118.24 226.62 117.83C226.777 117.418 226.855 116.959 226.855 116.455C226.855 115.956 226.778 115.507 226.624 115.107C226.473 114.703 226.244 114.385 225.936 114.151C225.632 113.914 225.249 113.795 224.787 113.795C224.344 113.795 223.971 113.908 223.67 114.132C223.368 114.354 223.14 114.665 222.987 115.065C222.833 115.462 222.756 115.925 222.756 116.455ZM229.607 120V112.909H230.659V113.98H230.733C230.862 113.629 231.096 113.345 231.435 113.126C231.773 112.908 232.155 112.798 232.58 112.798C232.66 112.798 232.76 112.8 232.88 112.803C233 112.806 233.09 112.811 233.152 112.817V113.925C233.115 113.915 233.03 113.902 232.898 113.883C232.769 113.862 232.632 113.851 232.487 113.851C232.143 113.851 231.835 113.923 231.564 114.068C231.296 114.209 231.084 114.406 230.927 114.659C230.773 114.908 230.696 115.193 230.696 115.513V120H229.607ZM237.108 120.148C236.468 120.148 235.906 119.995 235.423 119.691C234.943 119.386 234.568 118.96 234.297 118.412C234.029 117.864 233.895 117.224 233.895 116.491C233.895 115.753 234.029 115.108 234.297 114.557C234.568 114.006 234.943 113.578 235.423 113.274C235.906 112.969 236.468 112.817 237.108 112.817C237.748 112.817 238.309 112.969 238.789 113.274C239.272 113.578 239.647 114.006 239.915 114.557C240.186 115.108 240.321 115.753 240.321 116.491C240.321 117.224 240.186 117.864 239.915 118.412C239.647 118.96 239.272 119.386 238.789 119.691C238.309 119.995 237.748 120.148 237.108 120.148ZM237.108 119.169C237.595 119.169 237.995 119.044 238.309 118.795C238.623 118.546 238.855 118.218 239.006 117.812C239.156 117.406 239.232 116.965 239.232 116.491C239.232 116.018 239.156 115.576 239.006 115.167C238.855 114.757 238.623 114.426 238.309 114.174C237.995 113.922 237.595 113.795 237.108 113.795C236.622 113.795 236.222 113.922 235.908 114.174C235.594 114.426 235.362 114.757 235.211 115.167C235.06 115.576 234.985 116.018 234.985 116.491C234.985 116.965 235.06 117.406 235.211 117.812C235.362 118.218 235.594 118.546 235.908 118.795C236.222 119.044 236.622 119.169 237.108 119.169ZM247.529 112.909L244.907 120H243.799L241.177 112.909H242.358L244.316 118.56H244.39L246.347 112.909H247.529ZM251.686 120.148C251.003 120.148 250.413 119.997 249.918 119.695C249.425 119.391 249.045 118.966 248.778 118.421C248.513 117.873 248.381 117.236 248.381 116.51C248.381 115.784 248.513 115.143 248.778 114.589C249.045 114.032 249.418 113.598 249.895 113.288C250.375 112.974 250.935 112.817 251.575 112.817C251.945 112.817 252.309 112.878 252.669 113.001C253.029 113.125 253.357 113.325 253.653 113.602C253.948 113.875 254.184 114.239 254.359 114.691C254.534 115.143 254.622 115.701 254.622 116.362V116.824H249.156V115.882H253.514C253.514 115.482 253.434 115.125 253.274 114.811C253.117 114.497 252.892 114.249 252.6 114.068C252.311 113.886 251.969 113.795 251.575 113.795C251.141 113.795 250.766 113.903 250.449 114.119C250.135 114.331 249.893 114.608 249.724 114.95C249.555 115.291 249.47 115.657 249.47 116.048V116.676C249.47 117.212 249.562 117.666 249.747 118.038C249.935 118.407 250.195 118.689 250.527 118.883C250.86 119.074 251.246 119.169 251.686 119.169C251.972 119.169 252.231 119.129 252.462 119.049C252.695 118.966 252.897 118.843 253.066 118.68C253.236 118.513 253.366 118.307 253.459 118.061L254.511 118.357C254.4 118.714 254.214 119.027 253.953 119.298C253.691 119.566 253.368 119.775 252.983 119.926C252.599 120.074 252.166 120.148 251.686 120.148ZM258.957 120.148C258.366 120.148 257.844 119.998 257.392 119.7C256.94 119.398 256.586 118.974 256.33 118.426C256.075 117.875 255.947 117.224 255.947 116.473C255.947 115.728 256.075 115.082 256.33 114.534C256.586 113.986 256.941 113.563 257.397 113.265C257.852 112.966 258.378 112.817 258.975 112.817C259.437 112.817 259.802 112.894 260.07 113.048C260.34 113.198 260.547 113.371 260.688 113.565C260.833 113.755 260.945 113.912 261.025 114.036H261.117V110.545H262.207V120H261.154V118.911H261.025C260.945 119.04 260.831 119.203 260.684 119.4C260.536 119.594 260.325 119.768 260.051 119.922C259.777 120.072 259.412 120.148 258.957 120.148ZM259.105 119.169C259.542 119.169 259.911 119.055 260.213 118.827C260.514 118.597 260.744 118.278 260.9 117.872C261.057 117.462 261.136 116.99 261.136 116.455C261.136 115.925 261.059 115.462 260.905 115.065C260.751 114.665 260.523 114.354 260.222 114.132C259.92 113.908 259.548 113.795 259.105 113.795C258.643 113.795 258.258 113.914 257.951 114.151C257.646 114.385 257.417 114.703 257.263 115.107C257.112 115.507 257.036 115.956 257.036 116.455C257.036 116.959 257.113 117.418 257.267 117.83C257.424 118.24 257.655 118.566 257.96 118.809C258.268 119.049 258.649 119.169 259.105 119.169Z" fill="white"/>
<g clip-path="url(#clip0_0_384)">
<circle cx="61.409" cy="61.409" r="61.409" transform="matrix(0.322596 -0.946537 -0.946537 -0.322596 125.379 164.875)" fill="#5BB991"/>
<mask id="path-9-outside-1_0_384" maskUnits="userSpaceOnUse" x="9.45899" y="6.1709" width="100.215" height="132.036" fill="black">
<rect fill="white" x="9.45899" y="6.1709" width="100.215" height="132.036"/>
<path d="M106.69 28.7505C94.3267 24.5368 80.9419 24.375 68.4803 28.2886C56.0188 32.2021 45.1296 39.9871 37.3951 50.5125C29.6605 61.0378 25.4834 73.7552 25.4708 86.8168C25.4581 99.8785 29.6105 112.604 37.3247 123.144L86.8797 86.8763L106.69 28.7505Z"/>
</mask>
<path d="M106.69 28.7505C94.3267 24.5368 80.9419 24.375 68.4803 28.2886C56.0188 32.2021 45.1296 39.9871 37.3951 50.5125C29.6605 61.0378 25.4834 73.7552 25.4708 86.8168C25.4581 99.8785 29.6105 112.604 37.3247 123.144L86.8797 86.8763L106.69 28.7505Z" fill="#E77D76"/>
<path d="M106.69 28.7505C94.3267 24.5368 80.9419 24.375 68.4803 28.2886C56.0188 32.2021 45.1296 39.9871 37.3951 50.5125C29.6605 61.0378 25.4834 73.7552 25.4708 86.8168C25.4581 99.8785 29.6105 112.604 37.3247 123.144L86.8797 86.8763L106.69 28.7505Z" stroke="#263885" stroke-width="4" mask="url(#path-9-outside-1_0_384)"/>
<mask id="path-10-outside-2_0_384" maskUnits="userSpaceOnUse" x="26.4533" y="6.32943" width="83.1388" height="84.3867" fill="black">
<rect fill="white" x="26.4533" y="6.32943" width="83.1388" height="84.3867"/>
<path d="M106.646 28.8672C93.1696 24.2742 78.5142 24.5169 65.1971 29.5538C51.8799 34.5907 40.7322 44.1074 33.6684 56.4694L86.8768 86.8731L106.646 28.8672Z"/>
</mask>
<path d="M106.646 28.8672C93.1696 24.2742 78.5142 24.5169 65.1971 29.5538C51.8799 34.5907 40.7322 44.1074 33.6684 56.4694L86.8768 86.8731L106.646 28.8672Z" fill="#F3B17D"/>
<path d="M106.646 28.8672C93.1696 24.2742 78.5142 24.5169 65.1971 29.5538C51.8799 34.5907 40.7322 44.1074 33.6684 56.4694L86.8768 86.8731L106.646 28.8672Z" stroke="#263885" stroke-width="4" mask="url(#path-10-outside-2_0_384)"/>
<circle cx="44.7532" cy="44.7532" r="44.7532" transform="matrix(0.322596 -0.946537 -0.946537 -0.322596 114.801 143.672)" fill="#263883"/>
<path d="M76.0853 83.8984V82.3075L81.0072 77.2081C81.5327 76.6541 81.966 76.1688 82.3069 75.7521C82.6525 75.3307 82.9106 74.9306 83.081 74.5518C83.2515 74.1731 83.3367 73.7706 83.3367 73.3445C83.3367 72.8615 83.2231 72.4448 82.9958 72.0945C82.7685 71.7393 82.4584 71.4671 82.0654 71.2777C81.6724 71.0836 81.2297 70.9865 80.7373 70.9865C80.2165 70.9865 79.7619 71.093 79.3737 71.3061C78.9854 71.5192 78.6871 71.8198 78.4788 72.2081C78.2704 72.5963 78.1663 73.0509 78.1663 73.5717H76.0711C76.0711 72.6863 76.2747 71.9122 76.6819 71.2493C77.0891 70.5864 77.6478 70.0727 78.358 69.7081C79.0683 69.3388 79.8756 69.1541 80.7799 69.1541C81.6937 69.1541 82.4987 69.3364 83.1947 69.701C83.8954 70.0608 84.4423 70.5533 84.8353 71.1783C85.2283 71.7985 85.4248 72.4993 85.4248 73.2805C85.4248 73.8203 85.323 74.3482 85.1194 74.8643C84.9205 75.3804 84.5725 75.9557 84.0754 76.5902C83.5782 77.2199 82.8869 77.9846 82.0015 78.8842L79.1109 81.9098V82.0163H85.6592V83.8984H76.0853ZM93.8694 69.353V83.8984H91.6677V71.5547H91.5825L88.1024 73.8274V71.7251L91.7316 69.353H93.8694Z" fill="white"/>
<path d="M54.965 100.898H53.9493L56.8868 92.8984H57.8868L60.8243 100.898H59.8087L57.4181 94.1641H57.3556L54.965 100.898ZM55.34 97.7734H59.4337V98.6328H55.34V97.7734ZM61.9454 103.148V94.8984H62.8361V95.8516H62.9454C63.0131 95.7474 63.1069 95.6146 63.2267 95.4531C63.3491 95.2891 63.5236 95.1432 63.7501 95.0156C63.9793 94.8854 64.2892 94.8203 64.6798 94.8203C65.185 94.8203 65.6303 94.9466 66.0157 95.1992C66.4012 95.4518 66.7019 95.8099 66.9181 96.2734C67.1342 96.737 67.2423 97.2838 67.2423 97.9141C67.2423 98.5495 67.1342 99.1003 66.9181 99.5664C66.7019 100.03 66.4025 100.389 66.0197 100.645C65.6368 100.897 65.1954 101.023 64.6954 101.023C64.31 101.023 64.0014 100.96 63.7697 100.832C63.5379 100.702 63.3595 100.555 63.2345 100.391C63.1095 100.224 63.0131 100.086 62.9454 99.9766H62.8673V103.148H61.9454ZM62.8517 97.8984C62.8517 98.3516 62.9181 98.7513 63.0509 99.0976C63.1837 99.4414 63.3777 99.7109 63.6329 99.9062C63.8881 100.099 64.2006 100.195 64.5704 100.195C64.9559 100.195 65.2775 100.094 65.5353 99.8906C65.7957 99.6849 65.991 99.4088 66.1212 99.0625C66.254 98.7135 66.3204 98.3255 66.3204 97.8984C66.3204 97.4766 66.2553 97.0963 66.1251 96.7578C65.9975 96.4167 65.8035 96.1471 65.5431 95.9492C65.2853 95.7487 64.9611 95.6484 64.5704 95.6484C64.1954 95.6484 63.8803 95.7435 63.6251 95.9336C63.3699 96.1211 63.1772 96.3841 63.047 96.7226C62.9168 97.0586 62.8517 97.4505 62.8517 97.8984ZM68.6486 103.148V94.8984H69.5392V95.8516H69.6486C69.7163 95.7474 69.81 95.6146 69.9298 95.4531C70.0522 95.2891 70.2267 95.1432 70.4532 95.0156C70.6824 94.8854 70.9923 94.8203 71.3829 94.8203C71.8881 94.8203 72.3335 94.9466 72.7189 95.1992C73.1043 95.4518 73.4051 95.8099 73.6212 96.2734C73.8374 96.737 73.9454 97.2838 73.9454 97.9141C73.9454 98.5495 73.8374 99.1003 73.6212 99.5664C73.4051 100.03 73.1056 100.389 72.7228 100.645C72.34 100.897 71.8986 101.023 71.3986 101.023C71.0131 101.023 70.7045 100.96 70.4728 100.832C70.241 100.702 70.0626 100.555 69.9376 100.391C69.8126 100.224 69.7163 100.086 69.6486 99.9766H69.5704V103.148H68.6486ZM69.5548 97.8984C69.5548 98.3516 69.6212 98.7513 69.754 99.0976C69.8868 99.4414 70.0809 99.7109 70.3361 99.9062C70.5913 100.099 70.9038 100.195 71.2736 100.195C71.659 100.195 71.9806 100.094 72.2384 99.8906C72.4988 99.6849 72.6941 99.4088 72.8243 99.0625C72.9572 98.7135 73.0236 98.3255 73.0236 97.8984C73.0236 97.4766 72.9585 97.0963 72.8282 96.7578C72.7006 96.4167 72.5066 96.1471 72.2462 95.9492C71.9884 95.7487 71.6642 95.6484 71.2736 95.6484C70.8986 95.6484 70.5835 95.7435 70.3282 95.9336C70.073 96.1211 69.8803 96.3841 69.7501 96.7226C69.6199 97.0586 69.5548 97.4505 69.5548 97.8984ZM76.2736 92.8984V100.898H75.3517V92.8984H76.2736ZM77.962 100.898V94.8984H78.8839V100.898H77.962ZM78.4308 93.8984C78.2511 93.8984 78.0962 93.8372 77.9659 93.7148C77.8383 93.5924 77.7745 93.4453 77.7745 93.2734C77.7745 93.1016 77.8383 92.9544 77.9659 92.832C78.0962 92.7096 78.2511 92.6484 78.4308 92.6484C78.6105 92.6484 78.7641 92.7096 78.8917 92.832C79.0219 92.9544 79.087 93.1016 79.087 93.2734C79.087 93.4453 79.0219 93.5924 78.8917 93.7148C78.7641 93.8372 78.6105 93.8984 78.4308 93.8984ZM83.0099 101.023C82.4474 101.023 81.963 100.891 81.5568 100.625C81.1505 100.359 80.838 99.9935 80.6193 99.5273C80.4005 99.0612 80.2911 98.5286 80.2911 97.9297C80.2911 97.3203 80.4031 96.7825 80.6271 96.3164C80.8536 95.8476 81.1687 95.4818 81.5724 95.2187C81.9786 94.9531 82.4526 94.8203 82.9943 94.8203C83.4161 94.8203 83.7963 94.8984 84.1349 95.0547C84.4734 95.2109 84.7508 95.4297 84.9669 95.7109C85.1831 95.9922 85.3172 96.3203 85.3693 96.6953H84.4474C84.3771 96.4219 84.2208 96.1797 83.9786 95.9687C83.7391 95.7552 83.4161 95.6484 83.0099 95.6484C82.6505 95.6484 82.3354 95.7422 82.0646 95.9297C81.7963 96.1146 81.5867 96.3763 81.4357 96.7148C81.2872 97.0508 81.213 97.4453 81.213 97.8984C81.213 98.362 81.2859 98.7656 81.4318 99.1094C81.5802 99.4531 81.7885 99.72 82.0568 99.9101C82.3276 100.1 82.6453 100.195 83.0099 100.195C83.2495 100.195 83.4669 100.154 83.6622 100.07C83.8575 99.987 84.0229 99.8672 84.1583 99.7109C84.2937 99.5547 84.3901 99.3672 84.4474 99.1484H85.3693C85.3172 99.5026 85.1883 99.8216 84.9825 100.105C84.7794 100.387 84.5099 100.611 84.174 100.777C83.8406 100.941 83.4526 101.023 83.0099 101.023ZM88.4825 101.039C88.1023 101.039 87.7573 100.967 87.4474 100.824C87.1375 100.678 86.8914 100.469 86.7091 100.195C86.5268 99.9193 86.4357 99.5859 86.4357 99.1953C86.4357 98.8516 86.5034 98.5729 86.6388 98.3594C86.7742 98.1432 86.9552 97.974 87.1818 97.8516C87.4083 97.7292 87.6583 97.638 87.9318 97.5781C88.2078 97.5156 88.4851 97.4661 88.7638 97.4297C89.1284 97.3828 89.424 97.3476 89.6505 97.3242C89.8797 97.2982 90.0463 97.2552 90.1505 97.1953C90.2573 97.1354 90.3107 97.0312 90.3107 96.8828V96.8516C90.3107 96.4661 90.2052 96.1667 89.9943 95.9531C89.7859 95.7396 89.4695 95.6328 89.045 95.6328C88.6049 95.6328 88.2599 95.7292 88.0099 95.9219C87.7599 96.1146 87.5841 96.3203 87.4825 96.5391L86.6075 96.2266C86.7638 95.862 86.9721 95.5781 87.2325 95.375C87.4956 95.1693 87.782 95.026 88.0919 94.9453C88.4044 94.862 88.7117 94.8203 89.0138 94.8203C89.2065 94.8203 89.4279 94.8437 89.6779 94.8906C89.9305 94.9349 90.174 95.0273 90.4083 95.168C90.6453 95.3086 90.8419 95.5208 90.9982 95.8047C91.1544 96.0885 91.2325 96.4687 91.2325 96.9453V100.898H90.3107V100.086H90.2638C90.2013 100.216 90.0971 100.355 89.9513 100.504C89.8055 100.652 89.6115 100.779 89.3693 100.883C89.1271 100.987 88.8315 101.039 88.4825 101.039ZM88.6232 100.211C88.9878 100.211 89.295 100.139 89.545 99.9961C89.7976 99.8529 89.9878 99.668 90.1154 99.4414C90.2456 99.2148 90.3107 98.9766 90.3107 98.7266V97.8828C90.2716 97.9297 90.1857 97.9726 90.0529 98.0117C89.9226 98.0482 89.7716 98.0807 89.5997 98.1094C89.4305 98.1354 89.2651 98.1588 89.1036 98.1797C88.9448 98.1979 88.8159 98.2135 88.7169 98.2266C88.4773 98.2578 88.2534 98.3086 88.045 98.3789C87.8393 98.4466 87.6726 98.5495 87.545 98.6875C87.42 98.8229 87.3575 99.0078 87.3575 99.2422C87.3575 99.5625 87.476 99.8047 87.713 99.9687C87.9526 100.13 88.256 100.211 88.6232 100.211ZM95.5245 94.8984V95.6797H92.4152V94.8984H95.5245ZM93.3214 93.4609H94.2433V99.1797C94.2433 99.4401 94.281 99.6354 94.3566 99.7656C94.4347 99.8932 94.5337 99.9792 94.6534 100.023C94.7758 100.065 94.9047 100.086 95.0402 100.086C95.1417 100.086 95.2251 100.081 95.2902 100.07C95.3553 100.057 95.4073 100.047 95.4464 100.039L95.6339 100.867C95.5714 100.891 95.4842 100.914 95.3722 100.937C95.2602 100.964 95.1183 100.977 94.9464 100.977C94.686 100.977 94.4308 100.921 94.1808 100.809C93.9334 100.697 93.7277 100.526 93.5636 100.297C93.4021 100.068 93.3214 99.7786 93.3214 99.4297V93.4609ZM96.9113 100.898V94.8984H97.8331V100.898H96.9113ZM97.38 93.8984C97.2003 93.8984 97.0454 93.8372 96.9152 93.7148C96.7876 93.5924 96.7238 93.4453 96.7238 93.2734C96.7238 93.1016 96.7876 92.9544 96.9152 92.832C97.0454 92.7096 97.2003 92.6484 97.38 92.6484C97.5597 92.6484 97.7133 92.7096 97.8409 92.832C97.9712 92.9544 98.0363 93.1016 98.0363 93.2734C98.0363 93.4453 97.9712 93.5924 97.8409 93.7148C97.7133 93.8372 97.5597 93.8984 97.38 93.8984ZM101.959 101.023C101.417 101.023 100.942 100.895 100.533 100.637C100.127 100.379 99.8094 100.018 99.5802 99.5547C99.3536 99.0911 99.2404 98.5495 99.2404 97.9297C99.2404 97.3047 99.3536 96.7591 99.5802 96.293C99.8094 95.8268 100.127 95.4648 100.533 95.207C100.942 94.9492 101.417 94.8203 101.959 94.8203C102.501 94.8203 102.975 94.9492 103.381 95.207C103.79 95.4648 104.108 95.8268 104.334 96.293C104.563 96.7591 104.678 97.3047 104.678 97.9297C104.678 98.5495 104.563 99.0911 104.334 99.5547C104.108 100.018 103.79 100.379 103.381 100.637C102.975 100.895 102.501 101.023 101.959 101.023ZM101.959 100.195C102.371 100.195 102.709 100.09 102.975 99.8789C103.24 99.668 103.437 99.3906 103.565 99.0469C103.692 98.7031 103.756 98.3307 103.756 97.9297C103.756 97.5286 103.692 97.1549 103.565 96.8086C103.437 96.4622 103.24 96.1823 102.975 95.9687C102.709 95.7552 102.371 95.6484 101.959 95.6484C101.548 95.6484 101.209 95.7552 100.943 95.9687C100.678 96.1823 100.481 96.4622 100.354 96.8086C100.226 97.1549 100.162 97.5286 100.162 97.9297C100.162 98.3307 100.226 98.7031 100.354 99.0469C100.481 99.3906 100.678 99.668 100.943 99.8789C101.209 100.09 101.548 100.195 101.959 100.195ZM107.007 97.2891V100.898H106.085V94.8984H106.976V95.8359H107.054C107.194 95.5312 107.408 95.2865 107.694 95.1016C107.981 94.9141 108.351 94.8203 108.804 94.8203C109.21 94.8203 109.566 94.9036 109.87 95.0703C110.175 95.2344 110.412 95.4844 110.581 95.8203C110.75 96.1536 110.835 96.5755 110.835 97.0859V100.898H109.913V97.1484C109.913 96.6771 109.791 96.3099 109.546 96.0469C109.301 95.7812 108.965 95.6484 108.538 95.6484C108.244 95.6484 107.981 95.7122 107.749 95.8398C107.52 95.9674 107.339 96.1536 107.206 96.3984C107.073 96.6432 107.007 96.9401 107.007 97.2891ZM116.77 96.2422L115.942 96.4766C115.889 96.3385 115.813 96.2044 115.711 96.0742C115.612 95.9414 115.477 95.832 115.305 95.7461C115.133 95.6601 114.913 95.6172 114.645 95.6172C114.277 95.6172 113.971 95.7018 113.727 95.8711C113.484 96.0378 113.363 96.25 113.363 96.5078C113.363 96.737 113.447 96.918 113.613 97.0508C113.78 97.1836 114.04 97.2943 114.395 97.3828L115.285 97.6016C115.822 97.7318 116.221 97.931 116.484 98.1992C116.748 98.4648 116.879 98.8073 116.879 99.2266C116.879 99.5703 116.78 99.8776 116.582 100.148C116.387 100.419 116.113 100.633 115.762 100.789C115.41 100.945 115.001 101.023 114.535 101.023C113.923 101.023 113.417 100.891 113.016 100.625C112.615 100.359 112.361 99.9713 112.254 99.4609L113.129 99.2422C113.212 99.5651 113.37 99.8073 113.602 99.9687C113.836 100.13 114.142 100.211 114.52 100.211C114.949 100.211 115.29 100.12 115.543 99.9375C115.798 99.7526 115.926 99.5312 115.926 99.2734C115.926 99.0651 115.853 98.8906 115.707 98.75C115.561 98.6068 115.337 98.5 115.035 98.4297L114.035 98.1953C113.486 98.0651 113.082 97.8633 112.824 97.5898C112.569 97.3138 112.442 96.9687 112.442 96.5547C112.442 96.2161 112.537 95.9167 112.727 95.6562C112.919 95.3958 113.181 95.1914 113.512 95.043C113.845 94.8945 114.223 94.8203 114.645 94.8203C115.238 94.8203 115.705 94.9505 116.043 95.2109C116.384 95.4713 116.626 95.8151 116.77 96.2422Z" fill="white"/>
</g>
<defs>
<linearGradient id="paint0_linear_0_384" x1="-5.48143" y1="-3.80222" x2="403.807" y2="226.389" gradientUnits="userSpaceOnUse">
<stop stop-color="#263A8B"/>
<stop offset="1" stop-color="#1A213F"/>
</linearGradient>
<clipPath id="clip0_0_384">
<rect width="143" height="149" fill="white" transform="translate(15 12)"/>
</clipPath>
</defs>
</svg>
