<svg width="25" height="27" viewBox="0 0 25 27" fill="none" xmlns="http://www.w3.org/2000/svg">
<mask id="mask0_1_335" style="mask-type:alpha" maskUnits="userSpaceOnUse" x="0" y="0" width="25" height="27">
<rect y="0.109375" width="24.75" height="26.6667" fill="#D9D9D9"/>
</mask>
<g mask="url(#mask0_1_335)">
<path d="M2.48125 22.1068C1.96563 22.1068 1.52735 21.9123 1.16641 21.5234C0.805469 21.1345 0.625 20.6623 0.625 20.1068C0.625 19.5512 0.805469 19.079 1.16641 18.6901C1.52735 18.3012 1.96563 18.1068 2.48125 18.1068C2.99688 18.1068 3.43516 18.3012 3.7961 18.6901C4.15704 19.079 4.33751 19.5512 4.33751 20.1068C4.33751 20.6623 4.15704 21.1345 3.7961 21.5234C3.43516 21.9123 2.99688 22.1068 2.48125 22.1068ZM10.7313 22.1068C10.2156 22.1068 9.77736 21.9123 9.41642 21.5234C9.05548 21.1345 8.87501 20.6623 8.87501 20.1068C8.87501 19.5512 9.05548 19.079 9.41642 18.6901C9.77736 18.3012 10.2156 18.1068 10.7313 18.1068C11.2469 18.1068 11.6852 18.3012 12.0461 18.6901C12.407 19.079 12.5875 19.5512 12.5875 20.1068C12.5875 20.6623 12.407 21.1345 12.0461 21.5234C11.6852 21.9123 11.2469 22.1068 10.7313 22.1068ZM6.60626 17.6623C6.09063 17.6623 5.65235 17.4679 5.29141 17.079C4.93047 16.6901 4.75001 16.2179 4.75001 15.6623C4.75001 15.1068 4.93047 14.6345 5.29141 14.2457C5.65235 13.8568 6.09063 13.6623 6.60626 13.6623C7.12188 13.6623 7.56016 13.8568 7.9211 14.2457C8.28204 14.6345 8.46251 15.1068 8.46251 15.6623C8.46251 16.2179 8.28204 16.6901 7.9211 17.079C7.56016 17.4679 7.12188 17.6623 6.60626 17.6623ZM14.8563 17.6623C14.3406 17.6623 13.9024 17.4679 13.5414 17.079C13.1805 16.6901 13 16.2179 13 15.6623C13 15.1068 13.1805 14.6345 13.5414 14.2457C13.9024 13.8568 14.3406 13.6623 14.8563 13.6623C15.3719 13.6623 15.8102 13.8568 16.1711 14.2457C16.5321 14.6345 16.7125 15.1068 16.7125 15.6623C16.7125 16.2179 16.5321 16.6901 16.1711 17.079C15.8102 17.4679 15.3719 17.6623 14.8563 17.6623ZM2.48125 13.2179C1.96563 13.2179 1.52735 13.0234 1.16641 12.6345C0.805469 12.2457 0.625 11.7734 0.625 11.2179C0.625 10.6623 0.805469 10.1901 1.16641 9.80122C1.52735 9.41233 1.96563 9.21788 2.48125 9.21788C2.99688 9.21788 3.43516 9.41233 3.7961 9.80122C4.15704 10.1901 4.33751 10.6623 4.33751 11.2179C4.33751 11.7734 4.15704 12.2457 3.7961 12.6345C3.43516 13.0234 2.99688 13.2179 2.48125 13.2179ZM10.7313 13.2179C10.2156 13.2179 9.77736 13.0234 9.41642 12.6345C9.05548 12.2457 8.87501 11.7734 8.87501 11.2179C8.87501 10.6623 9.05548 10.1901 9.41642 9.80122C9.77736 9.41233 10.2156 9.21788 10.7313 9.21788C11.2469 9.21788 11.6852 9.41233 12.0461 9.80122C12.407 10.1901 12.5875 10.6623 12.5875 11.2179C12.5875 11.7734 12.407 12.2457 12.0461 12.6345C11.6852 13.0234 11.2469 13.2179 10.7313 13.2179ZM6.60626 8.77344C6.09063 8.77344 5.65235 8.57899 5.29141 8.1901C4.93047 7.80122 4.75001 7.32899 4.75001 6.77344C4.75001 6.21788 4.93047 5.74566 5.29141 5.35677C5.65235 4.96788 6.09063 4.77344 6.60626 4.77344C7.12188 4.77344 7.56016 4.96788 7.9211 5.35677C8.28204 5.74566 8.46251 6.21788 8.46251 6.77344C8.46251 7.32899 8.28204 7.80122 7.9211 8.1901C7.56016 8.57899 7.12188 8.77344 6.60626 8.77344ZM14.8563 8.77344C14.3406 8.77344 13.9024 8.57899 13.5414 8.1901C13.1805 7.80122 13 7.32899 13 6.77344C13 6.21788 13.1805 5.74566 13.5414 5.35677C13.9024 4.96788 14.3406 4.77344 14.8563 4.77344C15.3719 4.77344 15.8102 4.96788 16.1711 5.35677C16.5321 5.74566 16.7125 6.21788 16.7125 6.77344C16.7125 7.32899 16.5321 7.80122 16.1711 8.1901C15.8102 8.57899 15.3719 8.77344 14.8563 8.77344Z" fill="white"/>
</g>
</svg>
