<svg width="343" height="201" viewBox="0 0 343 201" fill="none" xmlns="http://www.w3.org/2000/svg">
<rect y="19" width="343" height="182" rx="16" fill="url(#paint0_linear_0_255)"/>
<mask id="mask0_0_255" style="mask-type:alpha" maskUnits="userSpaceOnUse" x="295" y="147" width="25" height="25">
<rect x="295.373" y="147.703" width="24" height="24" fill="#D9D9D9"/>
</mask>
<g mask="url(#mask0_0_255)">
<path d="M309.424 165.355L308.374 164.28L312.199 160.455H299.674V158.955H312.199L308.374 155.13L309.424 154.055L315.074 159.705L309.424 165.355Z" fill="#1E1F21"/>
</g>
<circle cx="309.5" cy="158.5" r="10.5" fill="#AE4855"/>
<mask id="mask1_0_255" style="mask-type:alpha" maskUnits="userSpaceOnUse" x="305" y="154" width="10" height="10">
<rect x="305" y="154" width="10" height="10" fill="#D9D9D9"/>
</mask>
<g mask="url(#mask1_0_255)">
<path d="M308.344 163.018L307.75 162.424L311.177 158.997L307.75 155.57L308.344 154.977L312.365 158.997L308.344 163.018Z" fill="white"/>
</g>
<circle cx="50" cy="64" r="35" fill="#B5BCF7"/>
<rect width="60.997" height="80.7595" rx="6" transform="matrix(0.991034 0.133611 -0.133679 0.991025 33.7969 3.69531)" fill="#5C6DB9"/>
<rect x="42.1328" y="0.851631" width="59.9969" height="79.7597" rx="5.5" transform="rotate(8.76894 42.1328 0.851631)" fill="white" stroke="#1A213F"/>
<rect x="30.2188" y="0.5" width="59.9973" height="79.7592" rx="5.5" fill="white" stroke="#1A213F"/>
<rect x="49.5547" y="55.75" width="22.5701" height="2.6553" rx="1" fill="#C3C1C1"/>
<rect x="39.0156" y="63.0469" width="44.5115" height="1.64858" rx="0.5" fill="#C4C1C1"/>
<path d="M60.5117 10.5781L64.9307 13.8007L70.4003 13.7903L72.0806 18.9941L76.5117 22.1998L74.8116 27.3972L76.5117 32.5945L72.0806 35.8002L70.4003 41.004L64.9307 40.9937L60.5117 44.2162L56.0928 40.9937L50.6232 41.004L48.9429 35.8002L44.5117 32.5945L46.2118 27.3972L44.5117 22.1998L48.9429 18.9941L50.6232 13.7903L56.0928 13.8007L60.5117 10.5781Z" fill="#3752C6"/>
<path d="M54.9159 27.8809L59.2432 32.2071L67.8979 23.5547" stroke="white" stroke-width="1.08333" stroke-linecap="round" stroke-linejoin="round"/>
<path d="M119.367 59H118.393L122.097 48.8182H123.091L126.795 59H125.82L122.629 50.0263H122.559L119.367 59ZM120.068 55.0973H125.119V55.9325H120.068V55.0973ZM129.241 48.8182V59H128.356V48.8182H129.241ZM132.467 48.8182V59H131.582V48.8182H132.467ZM139.363 61.8636C139.187 61.8636 139.023 61.8471 138.871 61.8139C138.718 61.7808 138.597 61.7443 138.508 61.7045L138.746 60.924C139.048 61.0168 139.317 61.05 139.552 61.0234C139.787 61.0002 139.996 60.8942 140.178 60.7053C140.361 60.5196 140.523 60.2346 140.665 59.8501L140.944 59.0746L138.135 51.3636H139.094L141.362 57.8317H141.431L143.698 51.3636H144.658L141.426 60.2081C141.29 60.576 141.123 60.8826 140.924 61.1278C140.725 61.3764 140.495 61.5604 140.233 61.6797C139.974 61.8023 139.684 61.8636 139.363 61.8636ZM149.084 59.1591C148.424 59.1591 147.841 58.9917 147.334 58.657C146.83 58.3222 146.435 57.8598 146.15 57.2699C145.865 56.6766 145.723 55.9922 145.723 55.2166C145.723 54.4344 145.865 53.7467 146.15 53.1534C146.435 52.5568 146.83 52.0928 147.334 51.7614C147.841 51.4266 148.424 51.2592 149.084 51.2592C149.743 51.2592 150.325 51.4266 150.829 51.7614C151.332 52.0961 151.727 52.5601 152.012 53.1534C152.3 53.7467 152.444 54.4344 152.444 55.2166C152.444 55.9922 152.302 56.6766 152.017 57.2699C151.732 57.8598 151.336 58.3222 150.829 58.657C150.325 58.9917 149.743 59.1591 149.084 59.1591ZM149.084 58.3487C149.614 58.3487 150.063 58.2062 150.431 57.9212C150.799 57.6361 151.077 57.2566 151.266 56.7827C151.458 56.3087 151.555 55.7867 151.555 55.2166C151.555 54.6465 151.458 54.1229 151.266 53.6456C151.077 53.1683 150.799 52.7855 150.431 52.4972C150.063 52.2088 149.614 52.0646 149.084 52.0646C148.557 52.0646 148.108 52.2088 147.736 52.4972C147.368 52.7855 147.088 53.1683 146.896 53.6456C146.707 54.1229 146.613 54.6465 146.613 55.2166C146.613 55.7867 146.707 56.3087 146.896 56.7827C147.088 57.2566 147.368 57.6361 147.736 57.9212C148.104 58.2062 148.553 58.3487 149.084 58.3487ZM159.239 56.0817V51.3636H160.124V59H159.239V57.7322H159.17C158.991 58.1233 158.707 58.4498 158.32 58.7116C157.932 58.9702 157.458 59.0994 156.898 59.0994C156.411 59.0994 155.978 58.9934 155.6 58.7812C155.222 58.5658 154.926 58.2509 154.71 57.8366C154.495 57.4223 154.387 56.9136 154.387 56.3104V51.3636H155.272V56.2557C155.272 56.8523 155.448 57.3329 155.799 57.6974C156.15 58.0587 156.601 58.2393 157.151 58.2393C157.496 58.2393 157.827 58.1565 158.146 57.9908C158.464 57.825 158.726 57.5831 158.931 57.2649C159.137 56.9434 159.239 56.549 159.239 56.0817ZM162.467 59V51.3636H163.327V52.5369H163.392C163.544 52.1525 163.809 51.8426 164.187 51.6072C164.568 51.3686 164.999 51.2493 165.48 51.2493C165.553 51.2493 165.634 51.2509 165.724 51.2543C165.813 51.2576 165.888 51.2609 165.947 51.2642V52.1641C165.907 52.1574 165.838 52.1475 165.738 52.1342C165.639 52.121 165.531 52.1143 165.415 52.1143C165.018 52.1143 164.663 52.1989 164.351 52.3679C164.043 52.5336 163.8 52.764 163.621 53.0589C163.442 53.3539 163.352 53.6903 163.352 54.0682V59H162.467ZM174.085 59.1491C173.468 59.1491 172.918 58.9917 172.434 58.6768C171.953 58.3587 171.576 57.9062 171.3 57.3196C171.029 56.7296 170.893 56.022 170.893 55.1967C170.893 54.3714 171.03 53.6655 171.305 53.0788C171.584 52.4922 171.965 52.0431 172.449 51.7315C172.933 51.42 173.481 51.2642 174.094 51.2642C174.568 51.2642 174.95 51.3438 175.238 51.5028C175.53 51.6586 175.755 51.8409 175.914 52.0497C176.076 52.2585 176.202 52.4425 176.292 52.6016H176.381V48.8182H177.868V59H176.416V57.8118H176.292C176.202 57.9742 176.073 58.1598 175.904 58.3686C175.738 58.5774 175.51 58.7597 175.218 58.9155C174.926 59.0713 174.549 59.1491 174.085 59.1491ZM174.413 57.8814C174.84 57.8814 175.201 57.7687 175.496 57.5433C175.795 57.3146 176.02 56.9981 176.173 56.5938C176.328 56.1894 176.406 55.7187 176.406 55.1818C176.406 54.6515 176.33 54.1875 176.178 53.7898C176.025 53.392 175.801 53.0821 175.506 52.8601C175.211 52.638 174.847 52.527 174.413 52.527C173.965 52.527 173.592 52.643 173.294 52.875C172.996 53.107 172.77 53.4235 172.618 53.8246C172.469 54.2256 172.394 54.678 172.394 55.1818C172.394 55.6922 172.47 56.1513 172.623 56.5589C172.775 56.9666 173.001 57.2898 173.299 57.5284C173.601 57.7637 173.972 57.8814 174.413 57.8814ZM183.206 59.1541C182.49 59.1541 181.865 58.9901 181.332 58.6619C180.798 58.3338 180.384 57.8748 180.089 57.2848C179.794 56.6948 179.646 56.0054 179.646 55.2166C179.646 54.4245 179.794 53.7318 180.089 53.1385C180.384 52.5452 180.798 52.0845 181.332 51.7564C181.865 51.4283 182.49 51.2642 183.206 51.2642C183.922 51.2642 184.547 51.4283 185.08 51.7564C185.614 52.0845 186.028 52.5452 186.323 53.1385C186.618 53.7318 186.766 54.4245 186.766 55.2166C186.766 56.0054 186.618 56.6948 186.323 57.2848C186.028 57.8748 185.614 58.3338 185.08 58.6619C184.547 58.9901 183.922 59.1541 183.206 59.1541ZM183.211 57.9062C183.675 57.9062 184.06 57.7836 184.365 57.5384C184.669 57.2931 184.895 56.9666 185.041 56.5589C185.19 56.1513 185.264 55.7022 185.264 55.2116C185.264 54.7244 185.19 54.277 185.041 53.8693C184.895 53.4583 184.669 53.1286 184.365 52.88C184.06 52.6314 183.675 52.5071 183.211 52.5071C182.744 52.5071 182.356 52.6314 182.048 52.88C181.743 53.1286 181.516 53.4583 181.367 53.8693C181.221 54.277 181.148 54.7244 181.148 55.2116C181.148 55.7022 181.221 56.1513 181.367 56.5589C181.516 56.9666 181.743 57.2931 182.048 57.5384C182.356 57.7836 182.744 57.9062 183.211 57.9062ZM191.642 59.1541C190.903 59.1541 190.266 58.9867 189.733 58.652C189.202 58.3139 188.795 57.8482 188.51 57.255C188.225 56.6617 188.082 55.9822 188.082 55.2166C188.082 54.4411 188.228 53.7566 188.52 53.1634C188.811 52.5668 189.222 52.1011 189.752 51.7663C190.283 51.4316 190.908 51.2642 191.627 51.2642C192.207 51.2642 192.724 51.3719 193.178 51.5874C193.632 51.7995 193.998 52.0978 194.277 52.4822C194.558 52.8667 194.726 53.3158 194.779 53.8295H193.332C193.252 53.4716 193.07 53.1634 192.785 52.9048C192.503 52.6463 192.126 52.517 191.652 52.517C191.237 52.517 190.874 52.6264 190.563 52.8452C190.255 53.0606 190.014 53.3688 189.842 53.7699C189.67 54.1676 189.583 54.6383 189.583 55.1818C189.583 55.7386 189.668 56.2192 189.837 56.6236C190.006 57.0279 190.245 57.3411 190.553 57.5632C190.864 57.7853 191.231 57.8963 191.652 57.8963C191.933 57.8963 192.189 57.8449 192.417 57.7422C192.649 57.6361 192.843 57.4853 192.999 57.2898C193.158 57.0942 193.269 56.8589 193.332 56.5838H194.779C194.726 57.0777 194.565 57.5185 194.297 57.9062C194.028 58.294 193.668 58.599 193.218 58.821C192.77 59.0431 192.245 59.1541 191.642 59.1541ZM201.206 55.8331V51.3636H202.697V59H201.236V57.6776H201.156C200.98 58.0852 200.699 58.425 200.311 58.6967C199.926 58.9652 199.448 59.0994 198.874 59.0994C198.384 59.0994 197.949 58.9917 197.572 58.7763C197.197 58.5575 196.902 58.2344 196.687 57.8068C196.474 57.3793 196.368 56.8506 196.368 56.2209V51.3636H197.855V56.0419C197.855 56.5623 197.999 56.9766 198.287 57.2848C198.576 57.593 198.95 57.7472 199.411 57.7472C199.689 57.7472 199.966 57.6776 200.241 57.5384C200.52 57.3991 200.75 57.1887 200.932 56.907C201.118 56.6252 201.209 56.2673 201.206 55.8331ZM204.695 59V51.3636H206.121V52.6065H206.216C206.375 52.1856 206.635 51.8575 206.996 51.6222C207.358 51.3835 207.79 51.2642 208.294 51.2642C208.804 51.2642 209.232 51.3835 209.577 51.6222C209.925 51.8608 210.182 52.1889 210.347 52.6065H210.427C210.609 52.1989 210.899 51.8741 211.297 51.6321C211.695 51.3868 212.169 51.2642 212.719 51.2642C213.411 51.2642 213.977 51.4813 214.414 51.9155C214.855 52.3497 215.075 53.0043 215.075 53.8793V59H213.589V54.0185C213.589 53.5014 213.448 53.1269 213.166 52.8949C212.884 52.6629 212.548 52.5469 212.157 52.5469C211.673 52.5469 211.297 52.696 211.028 52.9943C210.76 53.2893 210.626 53.6688 210.626 54.1328V59H209.144V53.924C209.144 53.5097 209.015 53.1766 208.756 52.9247C208.498 52.6728 208.161 52.5469 207.747 52.5469C207.465 52.5469 207.205 52.6214 206.967 52.7706C206.731 52.9164 206.541 53.1203 206.395 53.3821C206.252 53.6439 206.181 53.9472 206.181 54.2919V59H204.695ZM220.359 59.1541C219.606 59.1541 218.959 58.9934 218.415 58.6719C217.875 58.3471 217.457 57.8913 217.162 57.3047C216.87 56.7147 216.725 56.0237 216.725 55.2315C216.725 54.4493 216.87 53.7599 217.162 53.1634C217.457 52.5668 217.868 52.1011 218.395 51.7663C218.925 51.4316 219.545 51.2642 220.254 51.2642C220.685 51.2642 221.103 51.3355 221.507 51.478C221.912 51.6205 222.275 51.8442 222.596 52.1491C222.918 52.4541 223.171 52.8501 223.357 53.3374C223.542 53.8213 223.635 54.4096 223.635 55.1023V55.6293H217.565V54.5156H222.178C222.178 54.1245 222.099 53.7782 221.94 53.4766C221.781 53.1716 221.557 52.9313 221.269 52.7557C220.984 52.58 220.649 52.4922 220.264 52.4922C219.847 52.4922 219.482 52.5949 219.171 52.8004C218.862 53.0026 218.624 53.2678 218.455 53.5959C218.289 53.9207 218.206 54.2737 218.206 54.6548V55.5249C218.206 56.0353 218.296 56.4695 218.475 56.8274C218.657 57.1854 218.91 57.4588 219.235 57.6477C219.56 57.8333 219.94 57.9261 220.374 57.9261C220.655 57.9261 220.912 57.8864 221.144 57.8068C221.376 57.724 221.577 57.6013 221.746 57.4389C221.915 57.2765 222.044 57.076 222.134 56.8374L223.541 57.0909C223.428 57.5052 223.226 57.8681 222.934 58.1797C222.646 58.4879 222.283 58.7282 221.845 58.9006C221.411 59.0696 220.916 59.1541 220.359 59.1541ZM226.771 54.4659V59H225.284V51.3636H226.711V52.6065H226.806C226.981 52.2022 227.257 51.8774 227.631 51.6321C228.009 51.3868 228.484 51.2642 229.058 51.2642C229.578 51.2642 230.034 51.3736 230.425 51.5923C230.816 51.8078 231.119 52.1293 231.335 52.5568C231.55 52.9844 231.658 53.513 231.658 54.1428V59H230.172V54.3217C230.172 53.7682 230.027 53.3357 229.739 53.0241C229.451 52.7093 229.055 52.5518 228.551 52.5518C228.206 52.5518 227.9 52.6264 227.631 52.7756C227.366 52.9247 227.155 53.1435 227 53.4318C226.847 53.7169 226.771 54.0616 226.771 54.4659ZM237.216 51.3636V52.5568H233.045V51.3636H237.216ZM234.164 49.5341H235.65V56.7578C235.65 57.0462 235.693 57.2633 235.779 57.4091C235.866 57.5516 235.977 57.6494 236.113 57.7024C236.252 57.7521 236.403 57.777 236.565 57.777C236.684 57.777 236.789 57.7687 236.878 57.7521C236.968 57.7356 237.037 57.7223 237.087 57.7124L237.355 58.9403C237.269 58.9735 237.147 59.0066 236.988 59.0398C236.828 59.0762 236.63 59.0961 236.391 59.0994C236 59.1061 235.635 59.0365 235.297 58.8906C234.959 58.7448 234.686 58.5194 234.477 58.2145C234.268 57.9096 234.164 57.5268 234.164 57.0661V49.5341ZM244.46 53.228L243.113 53.4666C243.056 53.2943 242.967 53.1302 242.844 52.9744C242.725 52.8187 242.562 52.6911 242.357 52.5916C242.151 52.4922 241.895 52.4425 241.586 52.4425C241.165 52.4425 240.814 52.5369 240.532 52.7259C240.251 52.9115 240.11 53.1518 240.11 53.4467C240.11 53.7019 240.204 53.9074 240.393 54.0632C240.582 54.219 240.887 54.3466 241.308 54.446L242.521 54.7244C243.224 54.8868 243.747 55.1371 244.092 55.4751C244.437 55.8132 244.609 56.2524 244.609 56.7926C244.609 57.25 244.476 57.6577 244.211 58.0156C243.949 58.3703 243.583 58.6487 243.113 58.8509C242.645 59.053 242.103 59.1541 241.487 59.1541C240.632 59.1541 239.934 58.9718 239.394 58.6072C238.854 58.2393 238.522 57.7173 238.4 57.0412L239.836 56.8224C239.926 57.197 240.11 57.4804 240.388 57.6726C240.667 57.8615 241.029 57.956 241.477 57.956C241.964 57.956 242.354 57.8549 242.645 57.6527C242.937 57.4472 243.083 57.197 243.083 56.902C243.083 56.6634 242.993 56.4628 242.814 56.3004C242.639 56.138 242.368 56.0154 242.004 55.9325L240.711 55.6491C239.999 55.4867 239.472 55.2282 239.13 54.8736C238.792 54.5189 238.623 54.0698 238.623 53.5263C238.623 53.0755 238.749 52.6811 239.001 52.343C239.253 52.005 239.601 51.7415 240.045 51.5526C240.489 51.3603 240.998 51.2642 241.571 51.2642C242.397 51.2642 243.046 51.4432 243.52 51.8011C243.994 52.1558 244.307 52.6314 244.46 53.228ZM252.483 59.174C252.022 59.174 251.601 59.0845 251.22 58.9055C250.839 58.7232 250.536 58.4614 250.31 58.12C250.085 57.7753 249.972 57.3577 249.972 56.8672C249.972 56.4893 250.043 56.1712 250.186 55.9126C250.328 55.6541 250.531 55.442 250.792 55.2763C251.054 55.1106 251.364 54.9796 251.722 54.8835C252.08 54.7874 252.474 54.7128 252.905 54.6598C253.333 54.6068 253.694 54.5604 253.989 54.5206C254.287 54.4808 254.515 54.4179 254.67 54.3317C254.826 54.2455 254.904 54.1063 254.904 53.9141V53.7351C254.904 53.2147 254.748 52.8054 254.437 52.5071C254.128 52.2055 253.684 52.0547 253.104 52.0547C252.554 52.0547 252.105 52.1757 251.757 52.4176C251.412 52.6596 251.17 52.9446 251.031 53.2727L250.191 52.9695C250.363 52.5518 250.602 52.2187 250.907 51.9702C251.212 51.7183 251.553 51.5376 251.931 51.4283C252.309 51.3156 252.692 51.2592 253.079 51.2592C253.371 51.2592 253.674 51.2973 253.989 51.3736C254.307 51.4498 254.602 51.5824 254.874 51.7713C255.146 51.9569 255.366 52.2171 255.535 52.5518C255.704 52.8833 255.789 53.3042 255.789 53.8146V59H254.904V57.7919H254.849C254.743 58.0173 254.586 58.236 254.377 58.4482C254.168 58.6603 253.906 58.8343 253.591 58.9702C253.277 59.1061 252.907 59.174 252.483 59.174ZM252.602 58.3636C253.073 58.3636 253.48 58.2592 253.825 58.0504C254.17 57.8416 254.435 57.5649 254.621 57.2202C254.809 56.8722 254.904 56.4893 254.904 56.0717V54.968C254.838 55.031 254.727 55.0874 254.571 55.1371C254.418 55.1868 254.241 55.2315 254.039 55.2713C253.84 55.3078 253.641 55.3393 253.442 55.3658C253.243 55.3923 253.064 55.4155 252.905 55.4354C252.474 55.4884 252.107 55.5713 251.802 55.6839C251.497 55.7966 251.263 55.9524 251.101 56.1513C250.938 56.3468 250.857 56.5987 250.857 56.907C250.857 57.371 251.023 57.7306 251.354 57.9858C251.686 58.2377 252.102 58.3636 252.602 58.3636ZM258.143 59V51.3636H259.003V52.5369H259.068C259.22 52.1525 259.485 51.8426 259.863 51.6072C260.244 51.3686 260.675 51.2493 261.156 51.2493C261.229 51.2493 261.31 51.2509 261.399 51.2543C261.489 51.2576 261.563 51.2609 261.623 51.2642V52.1641C261.583 52.1574 261.514 52.1475 261.414 52.1342C261.315 52.121 261.207 52.1143 261.091 52.1143C260.693 52.1143 260.339 52.1989 260.027 52.3679C259.719 52.5336 259.475 52.764 259.296 53.0589C259.117 53.3539 259.028 53.6903 259.028 54.0682V59H258.143ZM265.988 59.1591C265.276 59.1591 264.659 58.9934 264.139 58.6619C263.618 58.3272 263.216 57.8648 262.931 57.2749C262.649 56.6816 262.508 55.9988 262.508 55.2266C262.508 54.4576 262.649 53.7749 262.931 53.1783C263.216 52.5784 263.608 52.1094 264.109 51.7713C264.613 51.4299 265.194 51.2592 265.854 51.2592C266.268 51.2592 266.668 51.3355 267.052 51.4879C267.436 51.6371 267.781 51.8674 268.086 52.179C268.394 52.4872 268.638 52.8767 268.817 53.3473C268.996 53.8146 269.085 54.3681 269.085 55.0078V55.4453H263.119V54.6648H268.181C268.181 54.1742 268.081 53.7334 267.882 53.3423C267.687 52.9479 267.413 52.6364 267.062 52.4077C266.714 52.179 266.311 52.0646 265.854 52.0646C265.37 52.0646 264.944 52.1939 264.576 52.4524C264.208 52.7109 263.92 53.0523 263.711 53.4766C263.506 53.9008 263.401 54.3648 263.398 54.8686V55.3359C263.398 55.9425 263.502 56.4728 263.711 56.9268C263.923 57.3776 264.223 57.7273 264.611 57.9759C264.999 58.2244 265.458 58.3487 265.988 58.3487C266.349 58.3487 266.666 58.2924 266.938 58.1797C267.213 58.067 267.443 57.9162 267.629 57.7273C267.818 57.535 267.96 57.3246 268.056 57.0959L268.896 57.3693C268.78 57.6908 268.59 57.9875 268.325 58.2592C268.063 58.531 267.735 58.7498 267.34 58.9155C266.949 59.0779 266.499 59.1591 265.988 59.1591ZM126.274 80.4119V74.0909H128.845V85H126.352V83.0611H126.239C125.992 83.6719 125.588 84.1714 125.024 84.5597C124.465 84.9479 123.777 85.142 122.957 85.142C122.242 85.142 121.61 84.9834 121.061 84.6662C120.517 84.3442 120.09 83.8778 119.783 83.267C119.475 82.6515 119.321 81.9081 119.321 81.0369V74.0909H121.892V80.6392C121.892 81.3305 122.081 81.8797 122.46 82.2869C122.839 82.6941 123.336 82.8977 123.952 82.8977C124.33 82.8977 124.697 82.8054 125.053 82.6207C125.408 82.4361 125.699 82.1615 125.926 81.7969C126.158 81.4276 126.274 80.9659 126.274 80.4119ZM131.489 89.0909V74.0909H134.017V75.8949H134.167C134.299 75.6297 134.486 75.348 134.728 75.0497C134.969 74.7467 135.296 74.4886 135.708 74.2756C136.12 74.0578 136.645 73.9489 137.284 73.9489C138.127 73.9489 138.887 74.1643 139.564 74.5952C140.246 75.0213 140.786 75.6534 141.184 76.4915C141.586 77.3248 141.787 78.3475 141.787 79.5597C141.787 80.7576 141.591 81.7756 141.198 82.6136C140.805 83.4517 140.27 84.0909 139.593 84.5312C138.916 84.9716 138.149 85.1918 137.292 85.1918C136.667 85.1918 136.148 85.0876 135.736 84.8793C135.324 84.6709 134.993 84.42 134.742 84.1264C134.496 83.8281 134.304 83.5464 134.167 83.2812H134.06V89.0909H131.489ZM134.01 79.5455C134.01 80.2509 134.11 80.8688 134.309 81.3991C134.512 81.9295 134.803 82.3437 135.182 82.642C135.566 82.9356 136.03 83.0824 136.574 83.0824C137.142 83.0824 137.618 82.9309 138.002 82.6278C138.385 82.3201 138.674 81.901 138.868 81.3707C139.067 80.8357 139.167 80.2273 139.167 79.5455C139.167 78.8684 139.069 78.267 138.875 77.7415C138.681 77.2159 138.392 76.804 138.009 76.5057C137.625 76.2074 137.147 76.0582 136.574 76.0582C136.025 76.0582 135.559 76.2027 135.175 76.4915C134.792 76.7803 134.5 77.1851 134.301 77.706C134.107 78.2268 134.01 78.84 134.01 79.5455ZM154.397 74.0909V76.0795H148.126V74.0909H154.397ZM149.674 71.4773H152.245V81.7188C152.245 82.0644 152.297 82.3295 152.402 82.5142C152.511 82.6941 152.653 82.8172 152.828 82.8835C153.003 82.9498 153.197 82.983 153.41 82.983C153.571 82.983 153.718 82.9711 153.85 82.9474C153.988 82.9238 154.092 82.9025 154.163 82.8835L154.596 84.8935C154.459 84.9408 154.262 84.9929 154.007 85.0497C153.756 85.1065 153.448 85.1397 153.083 85.1491C152.44 85.1681 151.859 85.071 151.343 84.858C150.827 84.6402 150.418 84.304 150.115 83.8494C149.816 83.3949 149.67 82.8267 149.674 82.1449V71.4773ZM161.189 85.2131C160.124 85.2131 159.2 84.9787 158.419 84.5099C157.638 84.0412 157.032 83.3854 156.601 82.5426C156.175 81.6998 155.962 80.715 155.962 79.5881C155.962 78.4612 156.175 77.474 156.601 76.6264C157.032 75.7789 157.638 75.1207 158.419 74.652C159.2 74.1832 160.124 73.9489 161.189 73.9489C162.254 73.9489 163.178 74.1832 163.959 74.652C164.74 75.1207 165.344 75.7789 165.77 76.6264C166.201 77.474 166.416 78.4612 166.416 79.5881C166.416 80.715 166.201 81.6998 165.77 82.5426C165.344 83.3854 164.74 84.0412 163.959 84.5099C163.178 84.9787 162.254 85.2131 161.189 85.2131ZM161.203 83.1534C161.781 83.1534 162.264 82.9948 162.652 82.6776C163.04 82.3556 163.329 81.9247 163.518 81.3849C163.713 80.8452 163.81 80.2438 163.81 79.581C163.81 78.9134 163.713 78.3097 163.518 77.7699C163.329 77.2254 163.04 76.7921 162.652 76.4702C162.264 76.1482 161.781 75.9872 161.203 75.9872C160.611 75.9872 160.119 76.1482 159.726 76.4702C159.338 76.7921 159.046 77.2254 158.852 77.7699C158.663 78.3097 158.568 78.9134 158.568 79.581C158.568 80.2438 158.663 80.8452 158.852 81.3849C159.046 81.9247 159.338 82.3556 159.726 82.6776C160.119 82.9948 160.611 83.1534 161.203 83.1534ZM177.608 85.1918C176.751 85.1918 175.984 84.9716 175.306 84.5312C174.629 84.0909 174.094 83.4517 173.701 82.6136C173.308 81.7756 173.112 80.7576 173.112 79.5597C173.112 78.3475 173.311 77.3248 173.708 76.4915C174.111 75.6534 174.653 75.0213 175.335 74.5952C176.017 74.1643 176.777 73.9489 177.615 73.9489C178.254 73.9489 178.779 74.0578 179.191 74.2756C179.603 74.4886 179.93 74.7467 180.172 75.0497C180.413 75.348 180.6 75.6297 180.733 75.8949H180.839V70.4545H183.417V85H180.889V83.2812H180.733C180.6 83.5464 180.408 83.8281 180.157 84.1264C179.906 84.42 179.575 84.6709 179.163 84.8793C178.751 85.0876 178.233 85.1918 177.608 85.1918ZM178.325 83.0824C178.869 83.0824 179.333 82.9356 179.717 82.642C180.1 82.3437 180.392 81.9295 180.591 81.3991C180.789 80.8688 180.889 80.2509 180.889 79.5455C180.889 78.84 180.789 78.2268 180.591 77.706C180.396 77.1851 180.108 76.7803 179.724 76.4915C179.345 76.2027 178.879 76.0582 178.325 76.0582C177.752 76.0582 177.274 76.2074 176.89 76.5057C176.507 76.804 176.218 77.2159 176.024 77.7415C175.83 78.267 175.733 78.8684 175.733 79.5455C175.733 80.2273 175.83 80.8357 176.024 81.3707C176.223 81.901 176.514 82.3201 176.897 82.6278C177.286 82.9309 177.761 83.0824 178.325 83.0824ZM189.296 85.2202C188.605 85.2202 187.982 85.0971 187.428 84.8509C186.879 84.5999 186.443 84.2306 186.121 83.7429C185.804 83.2552 185.646 82.6539 185.646 81.9389C185.646 81.3234 185.759 80.8144 185.987 80.4119C186.214 80.0095 186.524 79.6875 186.917 79.446C187.31 79.2045 187.753 79.0223 188.245 78.8991C188.742 78.7713 189.256 78.679 189.786 78.6222C190.425 78.5559 190.944 78.4967 191.342 78.4446C191.739 78.3878 192.028 78.3026 192.208 78.1889C192.393 78.0705 192.485 77.8883 192.485 77.642V77.5994C192.485 77.0644 192.326 76.6501 192.009 76.3565C191.692 76.063 191.235 75.9162 190.638 75.9162C190.009 75.9162 189.509 76.0535 189.14 76.3281C188.775 76.6027 188.529 76.9271 188.401 77.3011L186.001 76.9602C186.19 76.2973 186.503 75.7434 186.938 75.2983C187.374 74.8485 187.906 74.5123 188.536 74.2898C189.166 74.0625 189.862 73.9489 190.624 73.9489C191.15 73.9489 191.673 74.0104 192.194 74.1335C192.715 74.2566 193.191 74.4602 193.621 74.7443C194.052 75.0237 194.398 75.4048 194.658 75.8878C194.924 76.3707 195.056 76.9744 195.056 77.6989V85H192.585V83.5014H192.499C192.343 83.8045 192.123 84.0885 191.839 84.3537C191.559 84.6141 191.207 84.8248 190.781 84.9858C190.359 85.142 189.864 85.2202 189.296 85.2202ZM189.964 83.331C190.48 83.331 190.927 83.2292 191.306 83.0256C191.685 82.8172 191.976 82.5426 192.18 82.2017C192.388 81.8608 192.492 81.4891 192.492 81.0866V79.8011C192.412 79.8674 192.274 79.929 192.08 79.9858C191.891 80.0426 191.678 80.0923 191.441 80.1349C191.204 80.1776 190.97 80.2154 190.738 80.2486C190.506 80.2817 190.305 80.3101 190.134 80.3338C189.751 80.3859 189.407 80.4711 189.104 80.5895C188.801 80.7079 188.562 80.8736 188.387 81.0866C188.212 81.295 188.124 81.5649 188.124 81.8963C188.124 82.3698 188.297 82.7273 188.643 82.9688C188.988 83.2102 189.429 83.331 189.964 83.331ZM203.089 74.0909V76.0795H196.817V74.0909H203.089ZM198.366 71.4773H200.937V81.7188C200.937 82.0644 200.989 82.3295 201.093 82.5142C201.202 82.6941 201.344 82.8172 201.519 82.8835C201.694 82.9498 201.888 82.983 202.102 82.983C202.263 82.983 202.409 82.9711 202.542 82.9474C202.679 82.9238 202.783 82.9025 202.854 82.8835L203.288 84.8935C203.15 84.9408 202.954 84.9929 202.698 85.0497C202.447 85.1065 202.139 85.1397 201.775 85.1491C201.131 85.1681 200.551 85.071 200.035 84.858C199.519 84.6402 199.109 84.304 198.806 83.8494C198.508 83.3949 198.361 82.8267 198.366 82.1449V71.4773ZM209.951 85.2131C208.858 85.2131 207.913 84.9858 207.118 84.5312C206.327 84.072 205.718 83.4233 205.292 82.5852C204.866 81.7424 204.653 80.7505 204.653 79.6094C204.653 78.4872 204.866 77.5024 205.292 76.6548C205.723 75.8026 206.324 75.1397 207.096 74.6662C207.868 74.188 208.775 73.9489 209.816 73.9489C210.489 73.9489 211.123 74.0578 211.72 74.2756C212.321 74.4886 212.851 74.8201 213.311 75.2699C213.775 75.7197 214.139 76.2926 214.404 76.9886C214.67 77.6799 214.802 78.5038 214.802 79.4602V80.2486H205.86V78.5156H212.338C212.333 78.0232 212.226 77.5852 212.018 77.2017C211.81 76.8134 211.519 76.508 211.145 76.2855C210.775 76.063 210.344 75.9517 209.852 75.9517C209.326 75.9517 208.865 76.0795 208.467 76.3352C208.069 76.5862 207.759 76.9176 207.537 77.3295C207.319 77.7367 207.208 78.1842 207.203 78.6719V80.1847C207.203 80.8191 207.319 81.3636 207.551 81.8182C207.783 82.268 208.107 82.6136 208.524 82.8551C208.94 83.0919 209.428 83.2102 209.987 83.2102C210.361 83.2102 210.699 83.1581 211.002 83.054C211.306 82.9451 211.568 82.7865 211.791 82.5781C212.013 82.3698 212.181 82.1117 212.295 81.804L214.696 82.0739C214.544 82.7083 214.255 83.2623 213.829 83.7358C213.408 84.2045 212.868 84.5691 212.21 84.8295C211.552 85.0852 210.799 85.2131 209.951 85.2131ZM220.124 70.4545L219.889 80.7244H217.602L217.375 70.4545H220.124ZM218.746 85.1562C218.315 85.1562 217.946 85.0047 217.638 84.7017C217.335 84.3987 217.183 84.0294 217.183 83.5938C217.183 83.1676 217.335 82.803 217.638 82.5C217.946 82.197 218.315 82.0455 218.746 82.0455C219.167 82.0455 219.532 82.197 219.839 82.5C220.152 82.803 220.308 83.1676 220.308 83.5938C220.308 83.8826 220.235 84.1454 220.088 84.3821C219.946 84.6188 219.757 84.8082 219.52 84.9503C219.288 85.0876 219.03 85.1562 218.746 85.1562Z" fill="#1E1F21"/>
<path d="M23.358 144.818H24.7699L27.5938 149.571H27.7131L30.5369 144.818H31.9489L28.2699 150.804V155H27.0369V150.804L23.358 144.818ZM35.4066 155.159C34.7172 155.159 34.1123 154.995 33.592 154.667C33.0749 154.339 32.6706 153.88 32.3789 153.29C32.0906 152.7 31.9464 152.01 31.9464 151.222C31.9464 150.426 32.0906 149.732 32.3789 149.138C32.6706 148.545 33.0749 148.085 33.592 147.756C34.1123 147.428 34.7172 147.264 35.4066 147.264C36.096 147.264 36.6992 147.428 37.2163 147.756C37.7366 148.085 38.141 148.545 38.4293 149.138C38.721 149.732 38.8668 150.426 38.8668 151.222C38.8668 152.01 38.721 152.7 38.4293 153.29C38.141 153.88 37.7366 154.339 37.2163 154.667C36.6992 154.995 36.096 155.159 35.4066 155.159ZM35.4066 154.105C35.9303 154.105 36.3612 153.971 36.6992 153.702C37.0373 153.434 37.2875 153.081 37.4499 152.643C37.6123 152.206 37.6935 151.732 37.6935 151.222C37.6935 150.711 37.6123 150.236 37.4499 149.795C37.2875 149.354 37.0373 148.998 36.6992 148.726C36.3612 148.454 35.9303 148.318 35.4066 148.318C34.8829 148.318 34.4521 148.454 34.114 148.726C33.7759 148.998 33.5257 149.354 33.3633 149.795C33.2009 150.236 33.1197 150.711 33.1197 151.222C33.1197 151.732 33.2009 152.206 33.3633 152.643C33.5257 153.081 33.7759 153.434 34.114 153.702C34.4521 153.971 34.8829 154.105 35.4066 154.105ZM45.4703 151.878V147.364H46.6436V155H45.4703V153.707H45.3908C45.2118 154.095 44.9334 154.425 44.5556 154.697C44.1777 154.965 43.7005 155.099 43.1238 155.099C42.6465 155.099 42.2222 154.995 41.851 154.786C41.4798 154.574 41.1882 154.256 40.976 153.832C40.7639 153.404 40.6578 152.866 40.6578 152.216V147.364H41.8311V152.136C41.8311 152.693 41.9869 153.137 42.2985 153.469C42.6133 153.8 43.0144 153.966 43.5016 153.966C43.7933 153.966 44.0899 153.891 44.3915 153.742C44.6964 153.593 44.9516 153.364 45.1571 153.056C45.3659 152.748 45.4703 152.355 45.4703 151.878ZM53.9034 150.406V155H52.7301V144.818H53.9034V148.557H54.0028C54.1818 148.162 54.4503 147.849 54.8082 147.617C55.1695 147.382 55.6501 147.264 56.25 147.264C56.7704 147.264 57.2261 147.369 57.6172 147.577C58.0083 147.783 58.3116 148.099 58.527 148.527C58.7457 148.951 58.8551 149.491 58.8551 150.148V155H57.6818V150.227C57.6818 149.621 57.5244 149.152 57.2095 148.82C56.898 148.486 56.4654 148.318 55.9119 148.318C55.5275 148.318 55.1828 148.399 54.8778 148.562C54.5762 148.724 54.3376 148.961 54.1619 149.273C53.9896 149.584 53.9034 149.962 53.9034 150.406ZM63.2488 155.179C62.7649 155.179 62.3257 155.088 61.9313 154.906C61.5369 154.72 61.2237 154.453 60.9917 154.105C60.7596 153.754 60.6436 153.33 60.6436 152.832C60.6436 152.395 60.7298 152.04 60.9022 151.768C61.0745 151.493 61.3049 151.278 61.5932 151.122C61.8816 150.966 62.1998 150.85 62.5478 150.774C62.8991 150.695 63.2521 150.632 63.6067 150.585C64.0707 150.526 64.4469 150.481 64.7353 150.451C65.0269 150.418 65.2391 150.363 65.3716 150.287C65.5075 150.211 65.5755 150.078 65.5755 149.889V149.849C65.5755 149.359 65.4412 148.978 65.1728 148.706C64.9076 148.434 64.5049 148.298 63.9647 148.298C63.4045 148.298 62.9654 148.421 62.6472 148.666C62.329 148.911 62.1053 149.173 61.976 149.452L60.8624 149.054C61.0613 148.59 61.3264 148.229 61.6578 147.97C61.9926 147.708 62.3572 147.526 62.7516 147.423C63.1493 147.317 63.5404 147.264 63.9249 147.264C64.1702 147.264 64.4519 147.294 64.7701 147.354C65.0916 147.41 65.4015 147.528 65.6998 147.707C66.0014 147.886 66.2516 148.156 66.4505 148.517C66.6493 148.878 66.7488 149.362 66.7488 149.969V155H65.5755V153.966H65.5158C65.4363 154.132 65.3037 154.309 65.1181 154.498C64.9325 154.687 64.6855 154.848 64.3773 154.98C64.0691 155.113 63.6929 155.179 63.2488 155.179ZM63.4277 154.125C63.8917 154.125 64.2828 154.034 64.601 153.852C64.9225 153.669 65.1645 153.434 65.3269 153.146C65.4926 152.857 65.5755 152.554 65.5755 152.236V151.162C65.5257 151.222 65.4164 151.276 65.2473 151.326C65.0816 151.372 64.8894 151.414 64.6706 151.45C64.4552 151.483 64.2447 151.513 64.0392 151.54C63.8371 151.563 63.673 151.583 63.5471 151.599C63.2421 151.639 62.9571 151.704 62.6919 151.793C62.4301 151.879 62.218 152.01 62.0556 152.186C61.8965 152.358 61.8169 152.594 61.8169 152.892C61.8169 153.3 61.9677 153.608 62.2694 153.817C62.5743 154.022 62.9604 154.125 63.4277 154.125ZM74.8612 147.364L72.0373 155H70.8441L68.0202 147.364H69.293L71.4009 153.449H71.4805L73.5884 147.364H74.8612ZM79.3381 155.159C78.6023 155.159 77.9676 154.997 77.4339 154.672C76.9036 154.344 76.4943 153.886 76.206 153.3C75.9209 152.71 75.7784 152.024 75.7784 151.241C75.7784 150.459 75.9209 149.77 76.206 149.173C76.4943 148.573 76.8954 148.106 77.4091 147.771C77.9261 147.433 78.5294 147.264 79.2188 147.264C79.6165 147.264 80.0092 147.33 80.397 147.463C80.7848 147.596 81.1378 147.811 81.456 148.109C81.7741 148.404 82.0277 148.795 82.2166 149.283C82.4055 149.77 82.5 150.37 82.5 151.082V151.58H76.6136V150.565H81.3068C81.3068 150.134 81.2206 149.75 81.0483 149.412C80.8793 149.074 80.6373 148.807 80.3224 148.612C80.0109 148.416 79.643 148.318 79.2188 148.318C78.7514 148.318 78.3471 148.434 78.0057 148.666C77.6676 148.895 77.4074 149.193 77.2251 149.561C77.0429 149.929 76.9517 150.323 76.9517 150.744V151.42C76.9517 151.997 77.0511 152.486 77.25 152.887C77.4522 153.285 77.7322 153.588 78.0902 153.797C78.4482 154.002 78.8641 154.105 79.3381 154.105C79.6463 154.105 79.9247 154.062 80.1733 153.976C80.4252 153.886 80.6423 153.754 80.8246 153.578C81.0069 153.399 81.1477 153.177 81.2472 152.912L82.3807 153.23C82.2614 153.615 82.0608 153.953 81.7791 154.244C81.4974 154.533 81.1494 154.758 80.7351 154.92C80.3208 155.08 79.8551 155.159 79.3381 155.159ZM91.6726 155.139C90.9898 155.139 90.38 155.022 89.843 154.786C89.3094 154.551 88.8868 154.224 88.5753 153.807C88.267 153.386 88.1013 152.899 88.0781 152.345H89.6392C89.6591 152.647 89.7602 152.909 89.9425 153.131C90.1281 153.349 90.37 153.518 90.6683 153.638C90.9666 153.757 91.2981 153.817 91.6626 153.817C92.0637 153.817 92.4183 153.747 92.7266 153.608C93.0381 153.469 93.2817 153.275 93.4574 153.026C93.633 152.774 93.7209 152.484 93.7209 152.156C93.7209 151.815 93.633 151.515 93.4574 151.256C93.285 150.995 93.0315 150.789 92.6967 150.64C92.3653 150.491 91.9643 150.416 91.4936 150.416H90.6335V149.163H91.4936C91.8714 149.163 92.2029 149.095 92.4879 148.96C92.7763 148.824 93.0017 148.635 93.1641 148.393C93.3265 148.147 93.4077 147.861 93.4077 147.533C93.4077 147.218 93.3364 146.944 93.1939 146.712C93.0547 146.477 92.8558 146.293 92.5973 146.161C92.3421 146.028 92.0405 145.962 91.6925 145.962C91.361 145.962 91.0511 146.023 90.7628 146.146C90.4777 146.265 90.2457 146.437 90.0668 146.663C89.8878 146.885 89.7917 147.152 89.7784 147.463H88.2919C88.3085 146.913 88.4709 146.429 88.7791 146.011C89.0907 145.594 89.5017 145.267 90.0121 145.032C90.5225 144.797 91.0893 144.679 91.7124 144.679C92.3653 144.679 92.9287 144.807 93.4027 145.062C93.88 145.314 94.2479 145.65 94.5064 146.071C94.7682 146.492 94.8975 146.953 94.8942 147.453C94.8975 148.023 94.7384 148.507 94.4169 148.905C94.0987 149.303 93.6745 149.569 93.1442 149.705V149.785C93.8203 149.888 94.344 150.156 94.7152 150.59C95.0897 151.024 95.2753 151.563 95.272 152.206C95.2753 152.766 95.1196 153.268 94.8047 153.712C94.4931 154.156 94.0672 154.506 93.527 154.761C92.9867 155.013 92.3686 155.139 91.6726 155.139ZM105.714 151.833V147.364H107.205V155H105.743V153.678H105.664C105.488 154.085 105.206 154.425 104.819 154.697C104.434 154.965 103.955 155.099 103.382 155.099C102.891 155.099 102.457 154.992 102.079 154.776C101.705 154.558 101.41 154.234 101.194 153.807C100.982 153.379 100.876 152.851 100.876 152.221V147.364H102.363V152.042C102.363 152.562 102.507 152.977 102.795 153.285C103.084 153.593 103.458 153.747 103.919 153.747C104.197 153.747 104.474 153.678 104.749 153.538C105.028 153.399 105.258 153.189 105.44 152.907C105.626 152.625 105.717 152.267 105.714 151.833ZM109.202 157.864V147.364H110.654V148.602H110.778C110.865 148.442 110.989 148.259 111.151 148.05C111.314 147.841 111.539 147.659 111.827 147.503C112.116 147.344 112.497 147.264 112.971 147.264C113.587 147.264 114.138 147.42 114.621 147.732C115.105 148.043 115.485 148.492 115.76 149.079C116.038 149.665 116.178 150.371 116.178 151.197C116.178 152.022 116.04 152.73 115.765 153.32C115.49 153.906 115.112 154.359 114.631 154.677C114.151 154.992 113.602 155.149 112.986 155.149C112.522 155.149 112.142 155.071 111.847 154.915C111.556 154.76 111.327 154.577 111.161 154.369C110.996 154.16 110.868 153.974 110.778 153.812H110.689V157.864H109.202ZM110.659 151.182C110.659 151.719 110.737 152.189 110.893 152.594C111.049 152.998 111.274 153.315 111.569 153.543C111.864 153.769 112.225 153.881 112.653 153.881C113.097 153.881 113.468 153.764 113.766 153.528C114.065 153.29 114.29 152.967 114.442 152.559C114.598 152.151 114.676 151.692 114.676 151.182C114.676 150.678 114.6 150.226 114.447 149.825C114.298 149.424 114.073 149.107 113.771 148.875C113.473 148.643 113.1 148.527 112.653 148.527C112.222 148.527 111.857 148.638 111.559 148.86C111.264 149.082 111.04 149.392 110.888 149.79C110.735 150.187 110.659 150.652 110.659 151.182ZM121.06 155.154C120.321 155.154 119.684 154.987 119.151 154.652C118.62 154.314 118.213 153.848 117.928 153.255C117.643 152.662 117.5 151.982 117.5 151.217C117.5 150.441 117.646 149.757 117.938 149.163C118.229 148.567 118.64 148.101 119.17 147.766C119.701 147.432 120.326 147.264 121.045 147.264C121.625 147.264 122.142 147.372 122.596 147.587C123.05 147.799 123.416 148.098 123.695 148.482C123.976 148.867 124.144 149.316 124.197 149.83H122.75C122.67 149.472 122.488 149.163 122.203 148.905C121.921 148.646 121.544 148.517 121.07 148.517C120.655 148.517 120.292 148.626 119.981 148.845C119.673 149.061 119.432 149.369 119.26 149.77C119.088 150.168 119.001 150.638 119.001 151.182C119.001 151.739 119.086 152.219 119.255 152.624C119.424 153.028 119.663 153.341 119.971 153.563C120.282 153.785 120.649 153.896 121.07 153.896C121.351 153.896 121.607 153.845 121.835 153.742C122.067 153.636 122.261 153.485 122.417 153.29C122.576 153.094 122.687 152.859 122.75 152.584H124.197C124.144 153.078 123.983 153.518 123.714 153.906C123.446 154.294 123.086 154.599 122.636 154.821C122.188 155.043 121.663 155.154 121.06 155.154ZM129.003 155.154C128.287 155.154 127.662 154.99 127.129 154.662C126.595 154.334 126.181 153.875 125.886 153.285C125.591 152.695 125.443 152.005 125.443 151.217C125.443 150.424 125.591 149.732 125.886 149.138C126.181 148.545 126.595 148.085 127.129 147.756C127.662 147.428 128.287 147.264 129.003 147.264C129.719 147.264 130.344 147.428 130.877 147.756C131.411 148.085 131.825 148.545 132.12 149.138C132.415 149.732 132.563 150.424 132.563 151.217C132.563 152.005 132.415 152.695 132.12 153.285C131.825 153.875 131.411 154.334 130.877 154.662C130.344 154.99 129.719 155.154 129.003 155.154ZM129.008 153.906C129.472 153.906 129.856 153.784 130.161 153.538C130.466 153.293 130.692 152.967 130.838 152.559C130.987 152.151 131.061 151.702 131.061 151.212C131.061 150.724 130.987 150.277 130.838 149.869C130.692 149.458 130.466 149.129 130.161 148.88C129.856 148.631 129.472 148.507 129.008 148.507C128.541 148.507 128.153 148.631 127.845 148.88C127.54 149.129 127.313 149.458 127.164 149.869C127.018 150.277 126.945 150.724 126.945 151.212C126.945 151.702 127.018 152.151 127.164 152.559C127.313 152.967 127.54 153.293 127.845 153.538C128.153 153.784 128.541 153.906 129.008 153.906ZM134.222 155V147.364H135.649V148.607H135.743C135.902 148.186 136.163 147.857 136.524 147.622C136.885 147.384 137.318 147.264 137.821 147.264C138.332 147.264 138.759 147.384 139.104 147.622C139.452 147.861 139.709 148.189 139.875 148.607H139.954C140.136 148.199 140.426 147.874 140.824 147.632C141.222 147.387 141.696 147.264 142.246 147.264C142.939 147.264 143.504 147.481 143.941 147.915C144.382 148.35 144.603 149.004 144.603 149.879V155H143.116V150.018C143.116 149.501 142.975 149.127 142.694 148.895C142.412 148.663 142.075 148.547 141.684 148.547C141.2 148.547 140.824 148.696 140.556 148.994C140.287 149.289 140.153 149.669 140.153 150.133V155H138.672V149.924C138.672 149.51 138.542 149.177 138.284 148.925C138.025 148.673 137.689 148.547 137.275 148.547C136.993 148.547 136.733 148.621 136.494 148.771C136.259 148.916 136.068 149.12 135.922 149.382C135.78 149.644 135.708 149.947 135.708 150.292V155H134.222ZM146.595 155V147.364H148.081V155H146.595ZM147.346 146.185C147.087 146.185 146.865 146.099 146.68 145.927C146.497 145.751 146.406 145.542 146.406 145.3C146.406 145.055 146.497 144.846 146.68 144.674C146.865 144.498 147.087 144.411 147.346 144.411C147.604 144.411 147.825 144.498 148.007 144.674C148.193 144.846 148.285 145.055 148.285 145.3C148.285 145.542 148.193 145.751 148.007 145.927C147.825 146.099 147.604 146.185 147.346 146.185ZM151.568 150.466V155H150.081V147.364H151.508V148.607H151.603C151.778 148.202 152.053 147.877 152.428 147.632C152.806 147.387 153.281 147.264 153.855 147.264C154.375 147.264 154.831 147.374 155.222 147.592C155.613 147.808 155.916 148.129 156.132 148.557C156.347 148.984 156.455 149.513 156.455 150.143V155H154.968V150.322C154.968 149.768 154.824 149.336 154.536 149.024C154.248 148.709 153.851 148.552 153.348 148.552C153.003 148.552 152.696 148.626 152.428 148.776C152.163 148.925 151.952 149.143 151.797 149.432C151.644 149.717 151.568 150.062 151.568 150.466ZM161.65 158.023C161.044 158.023 160.522 157.943 160.084 157.784C159.65 157.625 159.295 157.415 159.02 157.153C158.745 156.891 158.54 156.604 158.404 156.293L159.681 155.766C159.771 155.911 159.89 156.066 160.039 156.228C160.192 156.394 160.397 156.535 160.656 156.651C160.918 156.767 161.254 156.825 161.665 156.825C162.229 156.825 162.694 156.687 163.062 156.412C163.43 156.14 163.614 155.706 163.614 155.109V153.608H163.52C163.43 153.77 163.301 153.951 163.132 154.15C162.966 154.349 162.737 154.521 162.446 154.667C162.154 154.813 161.775 154.886 161.307 154.886C160.704 154.886 160.16 154.745 159.676 154.463C159.196 154.178 158.815 153.759 158.533 153.205C158.255 152.648 158.115 151.964 158.115 151.152C158.115 150.34 158.253 149.644 158.528 149.064C158.806 148.484 159.188 148.04 159.672 147.732C160.155 147.42 160.704 147.264 161.317 147.264C161.791 147.264 162.174 147.344 162.466 147.503C162.757 147.659 162.984 147.841 163.147 148.05C163.312 148.259 163.44 148.442 163.529 148.602H163.639V147.364H165.096V155.169C165.096 155.825 164.943 156.364 164.638 156.785C164.333 157.206 163.921 157.517 163.4 157.719C162.883 157.922 162.3 158.023 161.65 158.023ZM161.635 153.653C162.063 153.653 162.424 153.553 162.719 153.354C163.017 153.152 163.243 152.864 163.395 152.489C163.551 152.112 163.629 151.659 163.629 151.132C163.629 150.618 163.553 150.166 163.4 149.775C163.248 149.384 163.024 149.079 162.729 148.86C162.434 148.638 162.069 148.527 161.635 148.527C161.188 148.527 160.815 148.643 160.517 148.875C160.218 149.104 159.993 149.415 159.841 149.81C159.691 150.204 159.617 150.645 159.617 151.132C159.617 151.633 159.693 152.072 159.846 152.45C159.998 152.827 160.223 153.122 160.522 153.335C160.823 153.547 161.194 153.653 161.635 153.653ZM173.985 155.159C173.348 155.159 172.787 154.998 172.299 154.677C171.812 154.352 171.431 153.895 171.156 153.305C170.881 152.711 170.743 152.01 170.743 151.202C170.743 150.4 170.881 149.704 171.156 149.114C171.431 148.524 171.814 148.068 172.304 147.746C172.795 147.425 173.362 147.264 174.005 147.264C174.502 147.264 174.895 147.347 175.183 147.513C175.475 147.675 175.697 147.861 175.849 148.07C176.005 148.275 176.126 148.444 176.212 148.577H176.311V144.818H177.485V155H176.351V153.827H176.212C176.126 153.966 176.003 154.142 175.844 154.354C175.685 154.562 175.458 154.75 175.163 154.915C174.868 155.078 174.475 155.159 173.985 155.159ZM174.144 154.105C174.614 154.105 175.012 153.982 175.337 153.737C175.662 153.489 175.909 153.146 176.078 152.708C176.247 152.267 176.331 151.759 176.331 151.182C176.331 150.612 176.248 150.113 176.083 149.685C175.917 149.254 175.672 148.92 175.347 148.681C175.022 148.439 174.621 148.318 174.144 148.318C173.647 148.318 173.232 148.446 172.901 148.701C172.573 148.953 172.326 149.296 172.16 149.73C171.998 150.161 171.917 150.645 171.917 151.182C171.917 151.725 171.999 152.219 172.165 152.663C172.334 153.104 172.583 153.455 172.911 153.717C173.242 153.976 173.653 154.105 174.144 154.105ZM182.899 155.159C182.209 155.159 181.605 154.995 181.084 154.667C180.567 154.339 180.163 153.88 179.871 153.29C179.583 152.7 179.439 152.01 179.439 151.222C179.439 150.426 179.583 149.732 179.871 149.138C180.163 148.545 180.567 148.085 181.084 147.756C181.605 147.428 182.209 147.264 182.899 147.264C183.588 147.264 184.191 147.428 184.708 147.756C185.229 148.085 185.633 148.545 185.922 149.138C186.213 149.732 186.359 150.426 186.359 151.222C186.359 152.01 186.213 152.7 185.922 153.29C185.633 153.88 185.229 154.339 184.708 154.667C184.191 154.995 183.588 155.159 182.899 155.159ZM182.899 154.105C183.422 154.105 183.853 153.971 184.191 153.702C184.529 153.434 184.78 153.081 184.942 152.643C185.105 152.206 185.186 151.732 185.186 151.222C185.186 150.711 185.105 150.236 184.942 149.795C184.78 149.354 184.529 148.998 184.191 148.726C183.853 148.454 183.422 148.318 182.899 148.318C182.375 148.318 181.944 148.454 181.606 148.726C181.268 148.998 181.018 149.354 180.855 149.795C180.693 150.236 180.612 150.711 180.612 151.222C180.612 151.732 180.693 152.206 180.855 152.643C181.018 153.081 181.268 153.434 181.606 153.702C181.944 153.971 182.375 154.105 182.899 154.105ZM191.252 155.159C190.536 155.159 189.92 154.99 189.403 154.652C188.886 154.314 188.488 153.848 188.21 153.255C187.931 152.662 187.792 151.984 187.792 151.222C187.792 150.446 187.935 149.762 188.22 149.168C188.508 148.572 188.909 148.106 189.423 147.771C189.94 147.433 190.543 147.264 191.232 147.264C191.769 147.264 192.253 147.364 192.684 147.562C193.115 147.761 193.468 148.04 193.743 148.398C194.018 148.756 194.189 149.173 194.255 149.651H193.082C192.992 149.303 192.794 148.994 192.485 148.726C192.18 148.454 191.769 148.318 191.252 148.318C190.795 148.318 190.394 148.437 190.049 148.676C189.708 148.911 189.441 149.245 189.249 149.675C189.06 150.103 188.965 150.605 188.965 151.182C188.965 151.772 189.058 152.286 189.244 152.723C189.433 153.161 189.698 153.5 190.039 153.742C190.384 153.984 190.788 154.105 191.252 154.105C191.557 154.105 191.834 154.052 192.083 153.946C192.331 153.84 192.542 153.688 192.714 153.489C192.886 153.29 193.009 153.051 193.082 152.773H194.255C194.189 153.223 194.025 153.629 193.763 153.991C193.504 154.349 193.161 154.634 192.734 154.846C192.31 155.055 191.816 155.159 191.252 155.159ZM200.783 151.878V147.364H201.956V155H200.783V153.707H200.703C200.524 154.095 200.246 154.425 199.868 154.697C199.49 154.965 199.013 155.099 198.436 155.099C197.959 155.099 197.535 154.995 197.164 154.786C196.792 154.574 196.501 154.256 196.289 153.832C196.076 153.404 195.97 152.866 195.97 152.216V147.364H197.144V152.136C197.144 152.693 197.299 153.137 197.611 153.469C197.926 153.8 198.327 153.966 198.814 153.966C199.106 153.966 199.402 153.891 199.704 153.742C200.009 153.593 200.264 153.364 200.47 153.056C200.678 152.748 200.783 152.355 200.783 151.878ZM204.105 155V147.364H205.239V148.557H205.338C205.497 148.149 205.754 147.833 206.109 147.607C206.463 147.379 206.889 147.264 207.386 147.264C207.89 147.264 208.309 147.379 208.644 147.607C208.982 147.833 209.246 148.149 209.435 148.557H209.514C209.71 148.162 210.003 147.849 210.394 147.617C210.785 147.382 211.254 147.264 211.801 147.264C212.484 147.264 213.042 147.478 213.477 147.906C213.911 148.33 214.128 148.991 214.128 149.889V155H212.955V149.889C212.955 149.326 212.8 148.923 212.492 148.681C212.184 148.439 211.821 148.318 211.403 148.318C210.866 148.318 210.451 148.481 210.156 148.805C209.861 149.127 209.713 149.535 209.713 150.028V155H208.52V149.77C208.52 149.336 208.379 148.986 208.097 148.721C207.816 148.452 207.453 148.318 207.009 148.318C206.704 148.318 206.419 148.399 206.153 148.562C205.892 148.724 205.679 148.95 205.517 149.238C205.358 149.523 205.278 149.853 205.278 150.227V155H204.105ZM219.475 155.159C218.739 155.159 218.104 154.997 217.571 154.672C217.04 154.344 216.631 153.886 216.343 153.3C216.058 152.71 215.915 152.024 215.915 151.241C215.915 150.459 216.058 149.77 216.343 149.173C216.631 148.573 217.032 148.106 217.546 147.771C218.063 147.433 218.666 147.264 219.355 147.264C219.753 147.264 220.146 147.33 220.534 147.463C220.922 147.596 221.275 147.811 221.593 148.109C221.911 148.404 222.164 148.795 222.353 149.283C222.542 149.77 222.637 150.37 222.637 151.082V151.58H216.75V150.565H221.444C221.444 150.134 221.357 149.75 221.185 149.412C221.016 149.074 220.774 148.807 220.459 148.612C220.148 148.416 219.78 148.318 219.355 148.318C218.888 148.318 218.484 148.434 218.142 148.666C217.804 148.895 217.544 149.193 217.362 149.561C217.18 149.929 217.088 150.323 217.088 150.744V151.42C217.088 151.997 217.188 152.486 217.387 152.887C217.589 153.285 217.869 153.588 218.227 153.797C218.585 154.002 219.001 154.105 219.475 154.105C219.783 154.105 220.061 154.062 220.31 153.976C220.562 153.886 220.779 153.754 220.961 153.578C221.144 153.399 221.284 153.177 221.384 152.912L222.517 153.23C222.398 153.615 222.198 153.953 221.916 154.244C221.634 154.533 221.286 154.758 220.872 154.92C220.458 155.08 219.992 155.159 219.475 155.159ZM225.595 150.406V155H224.422V147.364H225.555V148.557H225.654C225.833 148.169 226.105 147.857 226.47 147.622C226.834 147.384 227.305 147.264 227.882 147.264C228.399 147.264 228.851 147.37 229.239 147.582C229.627 147.791 229.928 148.109 230.144 148.537C230.359 148.961 230.467 149.498 230.467 150.148V155H229.294V150.227C229.294 149.627 229.138 149.16 228.826 148.825C228.515 148.487 228.087 148.318 227.544 148.318C227.169 148.318 226.834 148.399 226.539 148.562C226.248 148.724 226.017 148.961 225.848 149.273C225.679 149.584 225.595 149.962 225.595 150.406ZM235.932 147.364V148.358H231.975V147.364H235.932ZM233.128 145.534H234.301V152.812C234.301 153.144 234.349 153.393 234.445 153.558C234.545 153.721 234.671 153.83 234.823 153.886C234.979 153.939 235.143 153.966 235.316 153.966C235.445 153.966 235.551 153.959 235.634 153.946C235.717 153.929 235.783 153.916 235.833 153.906L236.071 154.96C235.992 154.99 235.881 155.02 235.738 155.05C235.596 155.083 235.415 155.099 235.196 155.099C234.865 155.099 234.54 155.028 234.222 154.886C233.907 154.743 233.645 154.526 233.436 154.234C233.231 153.943 233.128 153.575 233.128 153.131V145.534ZM28.8864 169.878V165.364H30.0597V173H28.8864V171.707H28.8068C28.6278 172.095 28.3494 172.425 27.9716 172.697C27.5938 172.965 27.1165 173.099 26.5398 173.099C26.0625 173.099 25.6383 172.995 25.267 172.786C24.8958 172.574 24.6042 172.256 24.392 171.832C24.1799 171.404 24.0739 170.866 24.0739 170.216V165.364H25.2472V170.136C25.2472 170.693 25.4029 171.137 25.7145 171.469C26.0294 171.8 26.4304 171.966 26.9176 171.966C27.2093 171.966 27.5059 171.891 27.8075 171.742C28.1125 171.593 28.3677 171.364 28.5732 171.056C28.782 170.748 28.8864 170.355 28.8864 169.878ZM32.2086 175.864V165.364H33.3422V166.577H33.4814C33.5675 166.444 33.6868 166.275 33.8393 166.07C33.9951 165.861 34.2172 165.675 34.5055 165.513C34.7972 165.347 35.1916 165.264 35.6887 165.264C36.3317 165.264 36.8985 165.425 37.389 165.746C37.8796 166.068 38.2624 166.524 38.5375 167.114C38.8126 167.704 38.9501 168.4 38.9501 169.202C38.9501 170.01 38.8126 170.711 38.5375 171.305C38.2624 171.895 37.8812 172.352 37.394 172.677C36.9068 172.998 36.345 173.159 35.7086 173.159C35.2181 173.159 34.8253 173.078 34.5304 172.915C34.2354 172.75 34.0083 172.562 33.8493 172.354C33.6902 172.142 33.5675 171.966 33.4814 171.827H33.3819V175.864H32.2086ZM33.362 169.182C33.362 169.759 33.4466 170.267 33.6156 170.708C33.7846 171.146 34.0315 171.489 34.3564 171.737C34.6812 171.982 35.0789 172.105 35.5495 172.105C36.0401 172.105 36.4494 171.976 36.7775 171.717C37.109 171.455 37.3575 171.104 37.5233 170.663C37.6923 170.219 37.7768 169.725 37.7768 169.182C37.7768 168.645 37.694 168.161 37.5282 167.73C37.3658 167.296 37.1189 166.953 36.7875 166.701C36.4593 166.446 36.0467 166.318 35.5495 166.318C35.0723 166.318 34.6712 166.439 34.3464 166.681C34.0216 166.92 33.7763 167.254 33.6106 167.685C33.4449 168.113 33.362 168.612 33.362 169.182ZM43.6234 173.159C42.987 173.159 42.4252 172.998 41.938 172.677C41.4508 172.352 41.0697 171.895 40.7946 171.305C40.5195 170.711 40.3819 170.01 40.3819 169.202C40.3819 168.4 40.5195 167.704 40.7946 167.114C41.0697 166.524 41.4525 166.068 41.943 165.746C42.4335 165.425 43.0003 165.264 43.6433 165.264C44.1404 165.264 44.5332 165.347 44.8216 165.513C45.1132 165.675 45.3353 165.861 45.4877 166.07C45.6435 166.275 45.7645 166.444 45.8507 166.577H45.9501V162.818H47.1234V173H45.9899V171.827H45.8507C45.7645 171.966 45.6419 172.142 45.4828 172.354C45.3237 172.562 45.0967 172.75 44.8017 172.915C44.5067 173.078 44.1139 173.159 43.6234 173.159ZM43.7825 172.105C44.2531 172.105 44.6509 171.982 44.9757 171.737C45.3005 171.489 45.5474 171.146 45.7164 170.708C45.8855 170.267 45.97 169.759 45.97 169.182C45.97 168.612 45.8871 168.113 45.7214 167.685C45.5557 167.254 45.3104 166.92 44.9856 166.681C44.6608 166.439 44.2598 166.318 43.7825 166.318C43.2853 166.318 42.871 166.446 42.5396 166.701C42.2115 166.953 41.9645 167.296 41.7988 167.73C41.6364 168.161 41.5552 168.645 41.5552 169.182C41.5552 169.725 41.6381 170.219 41.8038 170.663C41.9728 171.104 42.2214 171.455 42.5495 171.717C42.881 171.976 43.292 172.105 43.7825 172.105ZM51.6824 173.179C51.1984 173.179 50.7593 173.088 50.3649 172.906C49.9705 172.72 49.6573 172.453 49.4252 172.105C49.1932 171.754 49.0772 171.33 49.0772 170.832C49.0772 170.395 49.1634 170.04 49.3358 169.768C49.5081 169.493 49.7385 169.278 50.0268 169.122C50.3152 168.966 50.6333 168.85 50.9814 168.774C51.3327 168.695 51.6857 168.632 52.0403 168.585C52.5043 168.526 52.8805 168.481 53.1689 168.451C53.4605 168.418 53.6726 168.363 53.8052 168.287C53.9411 168.211 54.0091 168.078 54.0091 167.889V167.849C54.0091 167.359 53.8748 166.978 53.6064 166.706C53.3412 166.434 52.9385 166.298 52.3983 166.298C51.8381 166.298 51.399 166.421 51.0808 166.666C50.7626 166.911 50.5389 167.173 50.4096 167.452L49.296 167.054C49.4949 166.59 49.76 166.229 50.0914 165.97C50.4262 165.708 50.7908 165.526 51.1852 165.423C51.5829 165.317 51.974 165.264 52.3585 165.264C52.6038 165.264 52.8855 165.294 53.2037 165.354C53.5252 165.41 53.835 165.528 54.1333 165.707C54.435 165.886 54.6852 166.156 54.8841 166.517C55.0829 166.878 55.1824 167.362 55.1824 167.969V173H54.0091V171.966H53.9494C53.8699 172.132 53.7373 172.309 53.5517 172.498C53.3661 172.687 53.1191 172.848 52.8109 172.98C52.5027 173.113 52.1265 173.179 51.6824 173.179ZM51.8613 172.125C52.3253 172.125 52.7164 172.034 53.0346 171.852C53.3561 171.669 53.5981 171.434 53.7605 171.146C53.9262 170.857 54.0091 170.554 54.0091 170.236V169.162C53.9593 169.222 53.85 169.276 53.6809 169.326C53.5152 169.372 53.323 169.414 53.1042 169.45C52.8888 169.483 52.6783 169.513 52.4728 169.54C52.2707 169.563 52.1066 169.583 51.9806 169.599C51.6757 169.639 51.3907 169.704 51.1255 169.793C50.8637 169.879 50.6516 170.01 50.4892 170.186C50.3301 170.358 50.2505 170.594 50.2505 170.892C50.2505 171.3 50.4013 171.608 50.7029 171.817C51.0079 172.022 51.394 172.125 51.8613 172.125ZM60.6449 165.364V166.358H56.6875V165.364H60.6449ZM57.8409 163.534H59.0142V170.812C59.0142 171.144 59.0623 171.393 59.1584 171.558C59.2578 171.721 59.3838 171.83 59.5362 171.886C59.692 171.939 59.8561 171.966 60.0284 171.966C60.1577 171.966 60.2637 171.959 60.3466 171.946C60.4295 171.929 60.4957 171.916 60.5455 171.906L60.7841 172.96C60.7045 172.99 60.5935 173.02 60.451 173.05C60.3085 173.083 60.1278 173.099 59.9091 173.099C59.5777 173.099 59.2528 173.028 58.9347 172.886C58.6198 172.743 58.358 172.526 58.1491 172.234C57.9437 171.943 57.8409 171.575 57.8409 171.131V163.534ZM65.5295 173.159C64.7937 173.159 64.159 172.997 63.6254 172.672C63.0951 172.344 62.6857 171.886 62.3974 171.3C62.1123 170.71 61.9698 170.024 61.9698 169.241C61.9698 168.459 62.1123 167.77 62.3974 167.173C62.6857 166.573 63.0868 166.106 63.6005 165.771C64.1175 165.433 64.7208 165.264 65.4102 165.264C65.8079 165.264 66.2006 165.33 66.5884 165.463C66.9762 165.596 67.3292 165.811 67.6474 166.109C67.9656 166.404 68.2191 166.795 68.408 167.283C68.5969 167.77 68.6914 168.37 68.6914 169.082V169.58H62.805V168.565H67.4982C67.4982 168.134 67.4121 167.75 67.2397 167.412C67.0707 167.074 66.8287 166.807 66.5138 166.612C66.2023 166.416 65.8344 166.318 65.4102 166.318C64.9428 166.318 64.5385 166.434 64.1971 166.666C63.859 166.895 63.5988 167.193 63.4165 167.561C63.2343 167.929 63.1431 168.323 63.1431 168.744V169.42C63.1431 169.997 63.2425 170.486 63.4414 170.887C63.6436 171.285 63.9237 171.588 64.2816 171.797C64.6396 172.002 65.0555 172.105 65.5295 172.105C65.8377 172.105 66.1161 172.062 66.3647 171.976C66.6166 171.886 66.8337 171.754 67.016 171.578C67.1983 171.399 67.3391 171.177 67.4386 170.912L68.5721 171.23C68.4528 171.615 68.2522 171.953 67.9705 172.244C67.6888 172.533 67.3408 172.758 66.9265 172.92C66.5122 173.08 66.0465 173.159 65.5295 173.159ZM75.8853 167.074L74.8313 167.372C74.765 167.196 74.6673 167.026 74.538 166.86C74.4121 166.691 74.2397 166.552 74.021 166.442C73.8022 166.333 73.5221 166.278 73.1808 166.278C72.7134 166.278 72.324 166.386 72.0124 166.602C71.7042 166.814 71.5501 167.084 71.5501 167.412C71.5501 167.704 71.6561 167.934 71.8683 168.103C72.0804 168.272 72.4118 168.413 72.8626 168.526L73.9961 168.804C74.6789 168.97 75.1876 169.223 75.5224 169.565C75.8571 169.903 76.0245 170.339 76.0245 170.872C76.0245 171.31 75.8986 171.701 75.6467 172.045C75.3981 172.39 75.0501 172.662 74.6026 172.861C74.1552 173.06 73.6348 173.159 73.0415 173.159C72.2627 173.159 71.618 172.99 71.1076 172.652C70.5972 172.314 70.274 171.82 70.1381 171.17L71.2518 170.892C71.3578 171.303 71.5584 171.611 71.8533 171.817C72.1516 172.022 72.5411 172.125 73.0217 172.125C73.5685 172.125 74.0027 172.009 74.3242 171.777C74.649 171.542 74.8114 171.26 74.8114 170.932C74.8114 170.667 74.7186 170.445 74.533 170.266C74.3474 170.083 74.0624 169.947 73.6779 169.858L72.4052 169.56C71.7058 169.394 71.1921 169.137 70.864 168.789C70.5392 168.438 70.3768 167.999 70.3768 167.472C70.3768 167.041 70.4978 166.66 70.7397 166.328C70.985 165.997 71.3181 165.737 71.739 165.548C72.1632 165.359 72.6438 165.264 73.1808 165.264C73.9364 165.264 74.5297 165.43 74.9606 165.761C75.3948 166.093 75.703 166.53 75.8853 167.074ZM81.7282 173V165.364H82.9015V173H81.7282ZM82.3248 164.091C82.0961 164.091 81.8989 164.013 81.7331 163.857C81.5707 163.701 81.4895 163.514 81.4895 163.295C81.4895 163.077 81.5707 162.889 81.7331 162.734C81.8989 162.578 82.0961 162.5 82.3248 162.5C82.5534 162.5 82.749 162.578 82.9114 162.734C83.0771 162.889 83.16 163.077 83.16 163.295C83.16 163.514 83.0771 163.701 82.9114 163.857C82.749 164.013 82.5534 164.091 82.3248 164.091ZM86.2237 168.406V173H85.0504V165.364H86.1839V166.557H86.2834C86.4624 166.169 86.7341 165.857 87.0987 165.622C87.4633 165.384 87.9339 165.264 88.5107 165.264C89.0277 165.264 89.4801 165.37 89.8679 165.582C90.2557 165.791 90.5573 166.109 90.7727 166.537C90.9882 166.961 91.0959 167.498 91.0959 168.148V173H89.9226V168.227C89.9226 167.627 89.7668 167.16 89.4553 166.825C89.1437 166.487 88.7161 166.318 88.1726 166.318C87.7981 166.318 87.4633 166.399 87.1683 166.562C86.8767 166.724 86.6463 166.961 86.4773 167.273C86.3082 167.584 86.2237 167.962 86.2237 168.406ZM101.234 162.818H102.467V170.097C102.467 170.746 102.348 171.298 102.109 171.752C101.871 172.206 101.534 172.551 101.1 172.786C100.666 173.022 100.154 173.139 99.5637 173.139C99.0069 173.139 98.5114 173.038 98.0772 172.836C97.6431 172.63 97.3017 172.339 97.0531 171.961C96.8045 171.583 96.6802 171.134 96.6802 170.614H97.8933C97.8933 170.902 97.9645 171.154 98.1071 171.369C98.2529 171.581 98.4518 171.747 98.7037 171.866C98.9556 171.986 99.2422 172.045 99.5637 172.045C99.9184 172.045 100.22 171.971 100.469 171.822C100.717 171.673 100.906 171.454 101.035 171.165C101.168 170.874 101.234 170.518 101.234 170.097V162.818ZM107.026 173.179C106.542 173.179 106.103 173.088 105.709 172.906C105.314 172.72 105.001 172.453 104.769 172.105C104.537 171.754 104.421 171.33 104.421 170.832C104.421 170.395 104.507 170.04 104.68 169.768C104.852 169.493 105.082 169.278 105.371 169.122C105.659 168.966 105.977 168.85 106.325 168.774C106.676 168.695 107.029 168.632 107.384 168.585C107.848 168.526 108.224 168.481 108.513 168.451C108.804 168.418 109.016 168.363 109.149 168.287C109.285 168.211 109.353 168.078 109.353 167.889V167.849C109.353 167.359 109.219 166.978 108.95 166.706C108.685 166.434 108.282 166.298 107.742 166.298C107.182 166.298 106.743 166.421 106.425 166.666C106.106 166.911 105.883 167.173 105.753 167.452L104.64 167.054C104.839 166.59 105.104 166.229 105.435 165.97C105.77 165.708 106.135 165.526 106.529 165.423C106.927 165.317 107.318 165.264 107.702 165.264C107.948 165.264 108.229 165.294 108.547 165.354C108.869 165.41 109.179 165.528 109.477 165.707C109.779 165.886 110.029 166.156 110.228 166.517C110.427 166.878 110.526 167.362 110.526 167.969V173H109.353V171.966H109.293C109.214 172.132 109.081 172.309 108.895 172.498C108.71 172.687 108.463 172.848 108.155 172.98C107.846 173.113 107.47 173.179 107.026 173.179ZM107.205 172.125C107.669 172.125 108.06 172.034 108.378 171.852C108.7 171.669 108.942 171.434 109.104 171.146C109.27 170.857 109.353 170.554 109.353 170.236V169.162C109.303 169.222 109.194 169.276 109.025 169.326C108.859 169.372 108.667 169.414 108.448 169.45C108.233 169.483 108.022 169.513 107.817 169.54C107.614 169.563 107.45 169.583 107.324 169.599C107.019 169.639 106.734 169.704 106.469 169.793C106.207 169.879 105.995 170.01 105.833 170.186C105.674 170.358 105.594 170.594 105.594 170.892C105.594 171.3 105.745 171.608 106.047 171.817C106.352 172.022 106.738 172.125 107.205 172.125ZM113.841 168.406V173H112.668V165.364H113.801V166.557H113.901C114.08 166.169 114.351 165.857 114.716 165.622C115.08 165.384 115.551 165.264 116.128 165.264C116.645 165.264 117.097 165.37 117.485 165.582C117.873 165.791 118.174 166.109 118.39 166.537C118.605 166.961 118.713 167.498 118.713 168.148V173H117.54V168.227C117.54 167.627 117.384 167.16 117.072 166.825C116.761 166.487 116.333 166.318 115.79 166.318C115.415 166.318 115.08 166.399 114.786 166.562C114.494 166.724 114.263 166.961 114.094 167.273C113.925 167.584 113.841 167.962 113.841 168.406ZM125.67 169.878V165.364H126.843V173H125.67V171.707H125.59C125.411 172.095 125.133 172.425 124.755 172.697C124.377 172.965 123.9 173.099 123.323 173.099C122.846 173.099 122.421 172.995 122.05 172.786C121.679 172.574 121.387 172.256 121.175 171.832C120.963 171.404 120.857 170.866 120.857 170.216V165.364H122.03V170.136C122.03 170.693 122.186 171.137 122.498 171.469C122.813 171.8 123.214 171.966 123.701 171.966C123.992 171.966 124.289 171.891 124.591 171.742C124.896 171.593 125.151 171.364 125.356 171.056C125.565 170.748 125.67 170.355 125.67 169.878ZM131.239 173.179C130.755 173.179 130.316 173.088 129.922 172.906C129.527 172.72 129.214 172.453 128.982 172.105C128.75 171.754 128.634 171.33 128.634 170.832C128.634 170.395 128.72 170.04 128.892 169.768C129.065 169.493 129.295 169.278 129.583 169.122C129.872 168.966 130.19 168.85 130.538 168.774C130.889 168.695 131.242 168.632 131.597 168.585C132.061 168.526 132.437 168.481 132.725 168.451C133.017 168.418 133.229 168.363 133.362 168.287C133.498 168.211 133.566 168.078 133.566 167.889V167.849C133.566 167.359 133.431 166.978 133.163 166.706C132.898 166.434 132.495 166.298 131.955 166.298C131.395 166.298 130.956 166.421 130.637 166.666C130.319 166.911 130.096 167.173 129.966 167.452L128.853 167.054C129.051 166.59 129.317 166.229 129.648 165.97C129.983 165.708 130.347 165.526 130.742 165.423C131.14 165.317 131.531 165.264 131.915 165.264C132.16 165.264 132.442 165.294 132.76 165.354C133.082 165.41 133.392 165.528 133.69 165.707C133.992 165.886 134.242 166.156 134.441 166.517C134.64 166.878 134.739 167.362 134.739 167.969V173H133.566V171.966H133.506C133.426 172.132 133.294 172.309 133.108 172.498C132.923 172.687 132.676 172.848 132.368 172.98C132.059 173.113 131.683 173.179 131.239 173.179ZM131.418 172.125C131.882 172.125 132.273 172.034 132.591 171.852C132.913 171.669 133.155 171.434 133.317 171.146C133.483 170.857 133.566 170.554 133.566 170.236V169.162C133.516 169.222 133.407 169.276 133.238 169.326C133.072 169.372 132.88 169.414 132.661 169.45C132.445 169.483 132.235 169.513 132.029 169.54C131.827 169.563 131.663 169.583 131.537 169.599C131.232 169.639 130.947 169.704 130.682 169.793C130.42 169.879 130.208 170.01 130.046 170.186C129.887 170.358 129.807 170.594 129.807 170.892C129.807 171.3 129.958 171.608 130.26 171.817C130.565 172.022 130.951 172.125 131.418 172.125ZM136.881 173V165.364H138.014V166.517H138.094C138.233 166.139 138.485 165.833 138.849 165.597C139.214 165.362 139.625 165.244 140.082 165.244C140.168 165.244 140.276 165.246 140.405 165.249C140.535 165.253 140.632 165.258 140.699 165.264V166.457C140.659 166.447 140.568 166.433 140.425 166.413C140.286 166.389 140.139 166.378 139.983 166.378C139.612 166.378 139.28 166.456 138.988 166.612C138.7 166.764 138.471 166.976 138.302 167.248C138.137 167.516 138.054 167.823 138.054 168.168V173H136.881ZM143.078 175.864C142.879 175.864 142.701 175.847 142.546 175.814C142.39 175.784 142.282 175.754 142.222 175.724L142.521 174.69C142.806 174.763 143.058 174.79 143.276 174.77C143.495 174.75 143.689 174.652 143.858 174.477C144.03 174.304 144.188 174.024 144.33 173.636L144.549 173.04L141.725 165.364H142.998L145.106 171.449H145.186L147.294 165.364H148.566L145.325 174.114C145.179 174.508 144.998 174.835 144.783 175.093C144.567 175.355 144.317 175.549 144.032 175.675C143.75 175.801 143.432 175.864 143.078 175.864ZM150.491 173.08C150.246 173.08 150.036 172.992 149.86 172.816C149.684 172.64 149.597 172.43 149.597 172.185C149.597 171.939 149.684 171.729 149.86 171.553C150.036 171.378 150.246 171.29 150.491 171.29C150.737 171.29 150.947 171.378 151.123 171.553C151.299 171.729 151.386 171.939 151.386 172.185C151.386 172.347 151.345 172.496 151.262 172.632C151.183 172.768 151.075 172.877 150.939 172.96C150.806 173.04 150.657 173.08 150.491 173.08Z" fill="#1E1F21"/>
<line x1="25.5" y1="116.5" x2="319.5" y2="116.5" stroke="white" stroke-opacity="0.2" stroke-linecap="round"/>
<mask id="mask2_0_255" style="mask-type:alpha" maskUnits="userSpaceOnUse" x="286" y="64" width="31" height="31">
<rect x="286" y="64" width="31" height="31" fill="#D9D9D9"/>
</mask>
<g mask="url(#mask2_0_255)">
<path d="M310.543 75.6302L308.928 72.0781L305.376 70.4635L308.928 68.849L310.543 65.2969L312.158 68.849L315.71 70.4635L312.158 72.0781L310.543 75.6302ZM310.543 93.7135L308.928 90.1615L305.376 88.5469L308.928 86.9323L310.543 83.3802L312.158 86.9323L315.71 88.5469L312.158 90.1615L310.543 93.7135ZM297.626 89.8385L294.397 82.7344L287.293 79.5052L294.397 76.276L297.626 69.1719L300.855 76.276L307.96 79.5052L300.855 82.7344L297.626 89.8385Z" fill="#FFEAEE" fill-opacity="0.5"/>
</g>
<defs>
<linearGradient id="paint0_linear_0_255" x1="-33" y1="9.5" x2="354.034" y2="197.461" gradientUnits="userSpaceOnUse">
<stop stop-color="#7B92F8"/>
<stop offset="1" stop-color="#FF9393"/>
</linearGradient>
</defs>
</svg>
