<svg width="358" height="201" viewBox="0 0 358 201" fill="none" xmlns="http://www.w3.org/2000/svg">
<rect y="19" width="358" height="182" rx="16" fill="url(#paint0_linear_1_133)"/>
<circle cx="318" cy="161" r="16" fill="#AE4855"/>
<mask id="mask0_1_133" style="mask-type:alpha" maskUnits="userSpaceOnUse" x="311" y="153" width="16" height="16">
<rect x="311.145" y="153.145" width="15.2381" height="15.2381" fill="#D9D9D9"/>
</mask>
<g mask="url(#mask0_1_133)">
<path d="M316.241 166.206L315.336 165.3L320.558 160.074L315.336 154.847L316.241 153.942L322.368 160.074L316.241 166.206Z" fill="white"/>
</g>
<circle cx="59" cy="64" r="35" fill="#B5BCF7"/>
<rect width="60.997" height="80.7595" rx="6" transform="matrix(0.991034 0.133611 -0.133679 0.991025 42.7949 3.69727)" fill="#5C6DB9"/>
<rect x="51.1328" y="0.853584" width="59.9969" height="79.7597" rx="5.5" transform="rotate(8.76894 51.1328 0.853584)" fill="white" stroke="#1A213F"/>
<rect x="39.2188" y="0.5" width="59.9973" height="79.7592" rx="5.5" fill="white" stroke="#1A213F"/>
<rect x="58.5527" y="55.7461" width="22.5701" height="2.6553" rx="1" fill="#C3C1C1"/>
<rect x="48.0156" y="63.0488" width="44.5115" height="1.64858" rx="0.5" fill="#C4C1C1"/>
<path d="M69.5117 10.5801L73.9307 13.8026L79.4003 13.7922L81.0806 18.9961L85.5117 22.2018L83.8116 27.3991L85.5117 32.5964L81.0806 35.8021L79.4003 41.006L73.9307 40.9956L69.5117 44.2181L65.0928 40.9956L59.6232 41.006L57.9429 35.8021L53.5117 32.5964L55.2118 27.3991L53.5117 22.2018L57.9429 18.9961L59.6232 13.7922L65.0928 13.8026L69.5117 10.5801Z" fill="#3752C6"/>
<path d="M63.916 27.8849L68.2433 32.2111L76.898 23.5587" stroke="white" stroke-width="1.08333" stroke-linecap="round" stroke-linejoin="round"/>
<path d="M128.367 59H127.393L131.097 48.8182H132.091L135.795 59H134.82L131.629 50.0263H131.559L128.367 59ZM129.068 55.0973H134.119V55.9325H129.068V55.0973ZM138.241 48.8182V59H137.356V48.8182H138.241ZM141.467 48.8182V59H140.582V48.8182H141.467ZM148.363 61.8636C148.187 61.8636 148.023 61.8471 147.871 61.8139C147.718 61.7808 147.597 61.7443 147.508 61.7045L147.746 60.924C148.048 61.0168 148.317 61.05 148.552 61.0234C148.787 61.0002 148.996 60.8942 149.178 60.7053C149.361 60.5196 149.523 60.2346 149.665 59.8501L149.944 59.0746L147.135 51.3636H148.094L150.362 57.8317H150.431L152.698 51.3636H153.658L150.426 60.2081C150.29 60.576 150.123 60.8826 149.924 61.1278C149.725 61.3764 149.495 61.5604 149.233 61.6797C148.974 61.8023 148.684 61.8636 148.363 61.8636ZM158.084 59.1591C157.424 59.1591 156.841 58.9917 156.334 58.657C155.83 58.3222 155.435 57.8598 155.15 57.2699C154.865 56.6766 154.723 55.9922 154.723 55.2166C154.723 54.4344 154.865 53.7467 155.15 53.1534C155.435 52.5568 155.83 52.0928 156.334 51.7614C156.841 51.4266 157.424 51.2592 158.084 51.2592C158.743 51.2592 159.325 51.4266 159.829 51.7614C160.332 52.0961 160.727 52.5601 161.012 53.1534C161.3 53.7467 161.444 54.4344 161.444 55.2166C161.444 55.9922 161.302 56.6766 161.017 57.2699C160.732 57.8598 160.336 58.3222 159.829 58.657C159.325 58.9917 158.743 59.1591 158.084 59.1591ZM158.084 58.3487C158.614 58.3487 159.063 58.2062 159.431 57.9212C159.799 57.6361 160.077 57.2566 160.266 56.7827C160.458 56.3087 160.555 55.7867 160.555 55.2166C160.555 54.6465 160.458 54.1229 160.266 53.6456C160.077 53.1683 159.799 52.7855 159.431 52.4972C159.063 52.2088 158.614 52.0646 158.084 52.0646C157.557 52.0646 157.108 52.2088 156.736 52.4972C156.368 52.7855 156.088 53.1683 155.896 53.6456C155.707 54.1229 155.613 54.6465 155.613 55.2166C155.613 55.7867 155.707 56.3087 155.896 56.7827C156.088 57.2566 156.368 57.6361 156.736 57.9212C157.104 58.2062 157.553 58.3487 158.084 58.3487ZM168.239 56.0817V51.3636H169.124V59H168.239V57.7322H168.17C167.991 58.1233 167.707 58.4498 167.32 58.7116C166.932 58.9702 166.458 59.0994 165.898 59.0994C165.411 59.0994 164.978 58.9934 164.6 58.7812C164.222 58.5658 163.926 58.2509 163.71 57.8366C163.495 57.4223 163.387 56.9136 163.387 56.3104V51.3636H164.272V56.2557C164.272 56.8523 164.448 57.3329 164.799 57.6974C165.15 58.0587 165.601 58.2393 166.151 58.2393C166.496 58.2393 166.827 58.1565 167.146 57.9908C167.464 57.825 167.726 57.5831 167.931 57.2649C168.137 56.9434 168.239 56.549 168.239 56.0817ZM171.467 59V51.3636H172.327V52.5369H172.392C172.544 52.1525 172.809 51.8426 173.187 51.6072C173.568 51.3686 173.999 51.2493 174.48 51.2493C174.553 51.2493 174.634 51.2509 174.724 51.2543C174.813 51.2576 174.888 51.2609 174.947 51.2642V52.1641C174.907 52.1574 174.838 52.1475 174.738 52.1342C174.639 52.121 174.531 52.1143 174.415 52.1143C174.018 52.1143 173.663 52.1989 173.351 52.3679C173.043 52.5336 172.8 52.764 172.621 53.0589C172.442 53.3539 172.352 53.6903 172.352 54.0682V59H171.467ZM183.085 59.1491C182.468 59.1491 181.918 58.9917 181.434 58.6768C180.953 58.3587 180.576 57.9062 180.3 57.3196C180.029 56.7296 179.893 56.022 179.893 55.1967C179.893 54.3714 180.03 53.6655 180.305 53.0788C180.584 52.4922 180.965 52.0431 181.449 51.7315C181.933 51.42 182.481 51.2642 183.094 51.2642C183.568 51.2642 183.95 51.3438 184.238 51.5028C184.53 51.6586 184.755 51.8409 184.914 52.0497C185.076 52.2585 185.202 52.4425 185.292 52.6016H185.381V48.8182H186.868V59H185.416V57.8118H185.292C185.202 57.9742 185.073 58.1598 184.904 58.3686C184.738 58.5774 184.51 58.7597 184.218 58.9155C183.926 59.0713 183.549 59.1491 183.085 59.1491ZM183.413 57.8814C183.84 57.8814 184.201 57.7687 184.496 57.5433C184.795 57.3146 185.02 56.9981 185.173 56.5938C185.328 56.1894 185.406 55.7187 185.406 55.1818C185.406 54.6515 185.33 54.1875 185.178 53.7898C185.025 53.392 184.801 53.0821 184.506 52.8601C184.211 52.638 183.847 52.527 183.413 52.527C182.965 52.527 182.592 52.643 182.294 52.875C181.996 53.107 181.77 53.4235 181.618 53.8246C181.469 54.2256 181.394 54.678 181.394 55.1818C181.394 55.6922 181.47 56.1513 181.623 56.5589C181.775 56.9666 182.001 57.2898 182.299 57.5284C182.601 57.7637 182.972 57.8814 183.413 57.8814ZM192.206 59.1541C191.49 59.1541 190.865 58.9901 190.332 58.6619C189.798 58.3338 189.384 57.8748 189.089 57.2848C188.794 56.6948 188.646 56.0054 188.646 55.2166C188.646 54.4245 188.794 53.7318 189.089 53.1385C189.384 52.5452 189.798 52.0845 190.332 51.7564C190.865 51.4283 191.49 51.2642 192.206 51.2642C192.922 51.2642 193.547 51.4283 194.08 51.7564C194.614 52.0845 195.028 52.5452 195.323 53.1385C195.618 53.7318 195.766 54.4245 195.766 55.2166C195.766 56.0054 195.618 56.6948 195.323 57.2848C195.028 57.8748 194.614 58.3338 194.08 58.6619C193.547 58.9901 192.922 59.1541 192.206 59.1541ZM192.211 57.9062C192.675 57.9062 193.06 57.7836 193.365 57.5384C193.669 57.2931 193.895 56.9666 194.041 56.5589C194.19 56.1513 194.264 55.7022 194.264 55.2116C194.264 54.7244 194.19 54.277 194.041 53.8693C193.895 53.4583 193.669 53.1286 193.365 52.88C193.06 52.6314 192.675 52.5071 192.211 52.5071C191.744 52.5071 191.356 52.6314 191.048 52.88C190.743 53.1286 190.516 53.4583 190.367 53.8693C190.221 54.277 190.148 54.7244 190.148 55.2116C190.148 55.7022 190.221 56.1513 190.367 56.5589C190.516 56.9666 190.743 57.2931 191.048 57.5384C191.356 57.7836 191.744 57.9062 192.211 57.9062ZM200.642 59.1541C199.903 59.1541 199.266 58.9867 198.733 58.652C198.202 58.3139 197.795 57.8482 197.51 57.255C197.225 56.6617 197.082 55.9822 197.082 55.2166C197.082 54.4411 197.228 53.7566 197.52 53.1634C197.811 52.5668 198.222 52.1011 198.752 51.7663C199.283 51.4316 199.908 51.2642 200.627 51.2642C201.207 51.2642 201.724 51.3719 202.178 51.5874C202.632 51.7995 202.998 52.0978 203.277 52.4822C203.558 52.8667 203.726 53.3158 203.779 53.8295H202.332C202.252 53.4716 202.07 53.1634 201.785 52.9048C201.503 52.6463 201.126 52.517 200.652 52.517C200.237 52.517 199.874 52.6264 199.563 52.8452C199.255 53.0606 199.014 53.3688 198.842 53.7699C198.67 54.1676 198.583 54.6383 198.583 55.1818C198.583 55.7386 198.668 56.2192 198.837 56.6236C199.006 57.0279 199.245 57.3411 199.553 57.5632C199.864 57.7853 200.231 57.8963 200.652 57.8963C200.933 57.8963 201.189 57.8449 201.417 57.7422C201.649 57.6361 201.843 57.4853 201.999 57.2898C202.158 57.0942 202.269 56.8589 202.332 56.5838H203.779C203.726 57.0777 203.565 57.5185 203.297 57.9062C203.028 58.294 202.668 58.599 202.218 58.821C201.77 59.0431 201.245 59.1541 200.642 59.1541ZM210.206 55.8331V51.3636H211.697V59H210.236V57.6776H210.156C209.98 58.0852 209.699 58.425 209.311 58.6967C208.926 58.9652 208.448 59.0994 207.874 59.0994C207.384 59.0994 206.949 58.9917 206.572 58.7763C206.197 58.5575 205.902 58.2344 205.687 57.8068C205.474 57.3793 205.368 56.8506 205.368 56.2209V51.3636H206.855V56.0419C206.855 56.5623 206.999 56.9766 207.287 57.2848C207.576 57.593 207.95 57.7472 208.411 57.7472C208.689 57.7472 208.966 57.6776 209.241 57.5384C209.52 57.3991 209.75 57.1887 209.932 56.907C210.118 56.6252 210.209 56.2673 210.206 55.8331ZM213.695 59V51.3636H215.121V52.6065H215.216C215.375 52.1856 215.635 51.8575 215.996 51.6222C216.358 51.3835 216.79 51.2642 217.294 51.2642C217.804 51.2642 218.232 51.3835 218.577 51.6222C218.925 51.8608 219.182 52.1889 219.347 52.6065H219.427C219.609 52.1989 219.899 51.8741 220.297 51.6321C220.695 51.3868 221.169 51.2642 221.719 51.2642C222.411 51.2642 222.977 51.4813 223.414 51.9155C223.855 52.3497 224.075 53.0043 224.075 53.8793V59H222.589V54.0185C222.589 53.5014 222.448 53.1269 222.166 52.8949C221.884 52.6629 221.548 52.5469 221.157 52.5469C220.673 52.5469 220.297 52.696 220.028 52.9943C219.76 53.2893 219.626 53.6688 219.626 54.1328V59H218.144V53.924C218.144 53.5097 218.015 53.1766 217.756 52.9247C217.498 52.6728 217.161 52.5469 216.747 52.5469C216.465 52.5469 216.205 52.6214 215.967 52.7706C215.731 52.9164 215.541 53.1203 215.395 53.3821C215.252 53.6439 215.181 53.9472 215.181 54.2919V59H213.695ZM229.359 59.1541C228.606 59.1541 227.959 58.9934 227.415 58.6719C226.875 58.3471 226.457 57.8913 226.162 57.3047C225.87 56.7147 225.725 56.0237 225.725 55.2315C225.725 54.4493 225.87 53.7599 226.162 53.1634C226.457 52.5668 226.868 52.1011 227.395 51.7663C227.925 51.4316 228.545 51.2642 229.254 51.2642C229.685 51.2642 230.103 51.3355 230.507 51.478C230.912 51.6205 231.275 51.8442 231.596 52.1491C231.918 52.4541 232.171 52.8501 232.357 53.3374C232.542 53.8213 232.635 54.4096 232.635 55.1023V55.6293H226.565V54.5156H231.178C231.178 54.1245 231.099 53.7782 230.94 53.4766C230.781 53.1716 230.557 52.9313 230.269 52.7557C229.984 52.58 229.649 52.4922 229.264 52.4922C228.847 52.4922 228.482 52.5949 228.171 52.8004C227.862 53.0026 227.624 53.2678 227.455 53.5959C227.289 53.9207 227.206 54.2737 227.206 54.6548V55.5249C227.206 56.0353 227.296 56.4695 227.475 56.8274C227.657 57.1854 227.91 57.4588 228.235 57.6477C228.56 57.8333 228.94 57.9261 229.374 57.9261C229.655 57.9261 229.912 57.8864 230.144 57.8068C230.376 57.724 230.577 57.6013 230.746 57.4389C230.915 57.2765 231.044 57.076 231.134 56.8374L232.541 57.0909C232.428 57.5052 232.226 57.8681 231.934 58.1797C231.646 58.4879 231.283 58.7282 230.845 58.9006C230.411 59.0696 229.916 59.1541 229.359 59.1541ZM235.771 54.4659V59H234.284V51.3636H235.711V52.6065H235.806C235.981 52.2022 236.257 51.8774 236.631 51.6321C237.009 51.3868 237.484 51.2642 238.058 51.2642C238.578 51.2642 239.034 51.3736 239.425 51.5923C239.816 51.8078 240.119 52.1293 240.335 52.5568C240.55 52.9844 240.658 53.513 240.658 54.1428V59H239.172V54.3217C239.172 53.7682 239.027 53.3357 238.739 53.0241C238.451 52.7093 238.055 52.5518 237.551 52.5518C237.206 52.5518 236.9 52.6264 236.631 52.7756C236.366 52.9247 236.155 53.1435 236 53.4318C235.847 53.7169 235.771 54.0616 235.771 54.4659ZM246.216 51.3636V52.5568H242.045V51.3636H246.216ZM243.164 49.5341H244.65V56.7578C244.65 57.0462 244.693 57.2633 244.779 57.4091C244.866 57.5516 244.977 57.6494 245.113 57.7024C245.252 57.7521 245.403 57.777 245.565 57.777C245.684 57.777 245.789 57.7687 245.878 57.7521C245.968 57.7356 246.037 57.7223 246.087 57.7124L246.355 58.9403C246.269 58.9735 246.147 59.0066 245.988 59.0398C245.828 59.0762 245.63 59.0961 245.391 59.0994C245 59.1061 244.635 59.0365 244.297 58.8906C243.959 58.7448 243.686 58.5194 243.477 58.2145C243.268 57.9096 243.164 57.5268 243.164 57.0661V49.5341ZM253.46 53.228L252.113 53.4666C252.056 53.2943 251.967 53.1302 251.844 52.9744C251.725 52.8187 251.562 52.6911 251.357 52.5916C251.151 52.4922 250.895 52.4425 250.586 52.4425C250.165 52.4425 249.814 52.5369 249.532 52.7259C249.251 52.9115 249.11 53.1518 249.11 53.4467C249.11 53.7019 249.204 53.9074 249.393 54.0632C249.582 54.219 249.887 54.3466 250.308 54.446L251.521 54.7244C252.224 54.8868 252.747 55.1371 253.092 55.4751C253.437 55.8132 253.609 56.2524 253.609 56.7926C253.609 57.25 253.476 57.6577 253.211 58.0156C252.949 58.3703 252.583 58.6487 252.113 58.8509C251.645 59.053 251.103 59.1541 250.487 59.1541C249.632 59.1541 248.934 58.9718 248.394 58.6072C247.854 58.2393 247.522 57.7173 247.4 57.0412L248.836 56.8224C248.926 57.197 249.11 57.4804 249.388 57.6726C249.667 57.8615 250.029 57.956 250.477 57.956C250.964 57.956 251.354 57.8549 251.645 57.6527C251.937 57.4472 252.083 57.197 252.083 56.902C252.083 56.6634 251.993 56.4628 251.814 56.3004C251.639 56.138 251.368 56.0154 251.004 55.9325L249.711 55.6491C248.999 55.4867 248.472 55.2282 248.13 54.8736C247.792 54.5189 247.623 54.0698 247.623 53.5263C247.623 53.0755 247.749 52.6811 248.001 52.343C248.253 52.005 248.601 51.7415 249.045 51.5526C249.489 51.3603 249.998 51.2642 250.571 51.2642C251.397 51.2642 252.046 51.4432 252.52 51.8011C252.994 52.1558 253.307 52.6314 253.46 53.228ZM261.483 59.174C261.022 59.174 260.601 59.0845 260.22 58.9055C259.839 58.7232 259.536 58.4614 259.31 58.12C259.085 57.7753 258.972 57.3577 258.972 56.8672C258.972 56.4893 259.043 56.1712 259.186 55.9126C259.328 55.6541 259.531 55.442 259.792 55.2763C260.054 55.1106 260.364 54.9796 260.722 54.8835C261.08 54.7874 261.474 54.7128 261.905 54.6598C262.333 54.6068 262.694 54.5604 262.989 54.5206C263.287 54.4808 263.515 54.4179 263.67 54.3317C263.826 54.2455 263.904 54.1063 263.904 53.9141V53.7351C263.904 53.2147 263.748 52.8054 263.437 52.5071C263.128 52.2055 262.684 52.0547 262.104 52.0547C261.554 52.0547 261.105 52.1757 260.757 52.4176C260.412 52.6596 260.17 52.9446 260.031 53.2727L259.191 52.9695C259.363 52.5518 259.602 52.2187 259.907 51.9702C260.212 51.7183 260.553 51.5376 260.931 51.4283C261.309 51.3156 261.692 51.2592 262.079 51.2592C262.371 51.2592 262.674 51.2973 262.989 51.3736C263.307 51.4498 263.602 51.5824 263.874 51.7713C264.146 51.9569 264.366 52.2171 264.535 52.5518C264.704 52.8833 264.789 53.3042 264.789 53.8146V59H263.904V57.7919H263.849C263.743 58.0173 263.586 58.236 263.377 58.4482C263.168 58.6603 262.906 58.8343 262.591 58.9702C262.277 59.1061 261.907 59.174 261.483 59.174ZM261.602 58.3636C262.073 58.3636 262.48 58.2592 262.825 58.0504C263.17 57.8416 263.435 57.5649 263.621 57.2202C263.809 56.8722 263.904 56.4893 263.904 56.0717V54.968C263.838 55.031 263.727 55.0874 263.571 55.1371C263.418 55.1868 263.241 55.2315 263.039 55.2713C262.84 55.3078 262.641 55.3393 262.442 55.3658C262.243 55.3923 262.064 55.4155 261.905 55.4354C261.474 55.4884 261.107 55.5713 260.802 55.6839C260.497 55.7966 260.263 55.9524 260.101 56.1513C259.938 56.3468 259.857 56.5987 259.857 56.907C259.857 57.371 260.023 57.7306 260.354 57.9858C260.686 58.2377 261.102 58.3636 261.602 58.3636ZM267.143 59V51.3636H268.003V52.5369H268.068C268.22 52.1525 268.485 51.8426 268.863 51.6072C269.244 51.3686 269.675 51.2493 270.156 51.2493C270.229 51.2493 270.31 51.2509 270.399 51.2543C270.489 51.2576 270.563 51.2609 270.623 51.2642V52.1641C270.583 52.1574 270.514 52.1475 270.414 52.1342C270.315 52.121 270.207 52.1143 270.091 52.1143C269.693 52.1143 269.339 52.1989 269.027 52.3679C268.719 52.5336 268.475 52.764 268.296 53.0589C268.117 53.3539 268.028 53.6903 268.028 54.0682V59H267.143ZM274.988 59.1591C274.276 59.1591 273.659 58.9934 273.139 58.6619C272.618 58.3272 272.216 57.8648 271.931 57.2749C271.649 56.6816 271.508 55.9988 271.508 55.2266C271.508 54.4576 271.649 53.7749 271.931 53.1783C272.216 52.5784 272.608 52.1094 273.109 51.7713C273.613 51.4299 274.194 51.2592 274.854 51.2592C275.268 51.2592 275.668 51.3355 276.052 51.4879C276.436 51.6371 276.781 51.8674 277.086 52.179C277.394 52.4872 277.638 52.8767 277.817 53.3473C277.996 53.8146 278.085 54.3681 278.085 55.0078V55.4453H272.119V54.6648H277.181C277.181 54.1742 277.081 53.7334 276.882 53.3423C276.687 52.9479 276.413 52.6364 276.062 52.4077C275.714 52.179 275.311 52.0646 274.854 52.0646C274.37 52.0646 273.944 52.1939 273.576 52.4524C273.208 52.7109 272.92 53.0523 272.711 53.4766C272.506 53.9008 272.401 54.3648 272.398 54.8686V55.3359C272.398 55.9425 272.502 56.4728 272.711 56.9268C272.923 57.3776 273.223 57.7273 273.611 57.9759C273.999 58.2244 274.458 58.3487 274.988 58.3487C275.349 58.3487 275.666 58.2924 275.938 58.1797C276.213 58.067 276.443 57.9162 276.629 57.7273C276.818 57.535 276.96 57.3246 277.056 57.0959L277.896 57.3693C277.78 57.6908 277.59 57.9875 277.325 58.2592C277.063 58.531 276.735 58.7498 276.34 58.9155C275.949 59.0779 275.499 59.1591 274.988 59.1591ZM135.274 80.4119V74.0909H137.845V85H135.352V83.0611H135.239C134.992 83.6719 134.588 84.1714 134.024 84.5597C133.465 84.9479 132.777 85.142 131.957 85.142C131.242 85.142 130.61 84.9834 130.061 84.6662C129.517 84.3442 129.09 83.8778 128.783 83.267C128.475 82.6515 128.321 81.9081 128.321 81.0369V74.0909H130.892V80.6392C130.892 81.3305 131.081 81.8797 131.46 82.2869C131.839 82.6941 132.336 82.8977 132.952 82.8977C133.33 82.8977 133.697 82.8054 134.053 82.6207C134.408 82.4361 134.699 82.1615 134.926 81.7969C135.158 81.4276 135.274 80.9659 135.274 80.4119ZM140.489 89.0909V74.0909H143.017V75.8949H143.167C143.299 75.6297 143.486 75.348 143.728 75.0497C143.969 74.7467 144.296 74.4886 144.708 74.2756C145.12 74.0578 145.645 73.9489 146.284 73.9489C147.127 73.9489 147.887 74.1643 148.564 74.5952C149.246 75.0213 149.786 75.6534 150.184 76.4915C150.586 77.3248 150.787 78.3475 150.787 79.5597C150.787 80.7576 150.591 81.7756 150.198 82.6136C149.805 83.4517 149.27 84.0909 148.593 84.5312C147.916 84.9716 147.149 85.1918 146.292 85.1918C145.667 85.1918 145.148 85.0876 144.736 84.8793C144.324 84.6709 143.993 84.42 143.742 84.1264C143.496 83.8281 143.304 83.5464 143.167 83.2812H143.06V89.0909H140.489ZM143.01 79.5455C143.01 80.2509 143.11 80.8688 143.309 81.3991C143.512 81.9295 143.803 82.3437 144.182 82.642C144.566 82.9356 145.03 83.0824 145.574 83.0824C146.142 83.0824 146.618 82.9309 147.002 82.6278C147.385 82.3201 147.674 81.901 147.868 81.3707C148.067 80.8357 148.167 80.2273 148.167 79.5455C148.167 78.8684 148.069 78.267 147.875 77.7415C147.681 77.2159 147.392 76.804 147.009 76.5057C146.625 76.2074 146.147 76.0582 145.574 76.0582C145.025 76.0582 144.559 76.2027 144.175 76.4915C143.792 76.7803 143.5 77.1851 143.301 77.706C143.107 78.2268 143.01 78.84 143.01 79.5455ZM163.397 74.0909V76.0795H157.126V74.0909H163.397ZM158.674 71.4773H161.245V81.7188C161.245 82.0644 161.297 82.3295 161.402 82.5142C161.511 82.6941 161.653 82.8172 161.828 82.8835C162.003 82.9498 162.197 82.983 162.41 82.983C162.571 82.983 162.718 82.9711 162.85 82.9474C162.988 82.9238 163.092 82.9025 163.163 82.8835L163.596 84.8935C163.459 84.9408 163.262 84.9929 163.007 85.0497C162.756 85.1065 162.448 85.1397 162.083 85.1491C161.44 85.1681 160.859 85.071 160.343 84.858C159.827 84.6402 159.418 84.304 159.115 83.8494C158.816 83.3949 158.67 82.8267 158.674 82.1449V71.4773ZM170.189 85.2131C169.124 85.2131 168.2 84.9787 167.419 84.5099C166.638 84.0412 166.032 83.3854 165.601 82.5426C165.175 81.6998 164.962 80.715 164.962 79.5881C164.962 78.4612 165.175 77.474 165.601 76.6264C166.032 75.7789 166.638 75.1207 167.419 74.652C168.2 74.1832 169.124 73.9489 170.189 73.9489C171.254 73.9489 172.178 74.1832 172.959 74.652C173.74 75.1207 174.344 75.7789 174.77 76.6264C175.201 77.474 175.416 78.4612 175.416 79.5881C175.416 80.715 175.201 81.6998 174.77 82.5426C174.344 83.3854 173.74 84.0412 172.959 84.5099C172.178 84.9787 171.254 85.2131 170.189 85.2131ZM170.203 83.1534C170.781 83.1534 171.264 82.9948 171.652 82.6776C172.04 82.3556 172.329 81.9247 172.518 81.3849C172.713 80.8452 172.81 80.2438 172.81 79.581C172.81 78.9134 172.713 78.3097 172.518 77.7699C172.329 77.2254 172.04 76.7921 171.652 76.4702C171.264 76.1482 170.781 75.9872 170.203 75.9872C169.611 75.9872 169.119 76.1482 168.726 76.4702C168.338 76.7921 168.046 77.2254 167.852 77.7699C167.663 78.3097 167.568 78.9134 167.568 79.581C167.568 80.2438 167.663 80.8452 167.852 81.3849C168.046 81.9247 168.338 82.3556 168.726 82.6776C169.119 82.9948 169.611 83.1534 170.203 83.1534ZM186.608 85.1918C185.751 85.1918 184.984 84.9716 184.306 84.5312C183.629 84.0909 183.094 83.4517 182.701 82.6136C182.308 81.7756 182.112 80.7576 182.112 79.5597C182.112 78.3475 182.311 77.3248 182.708 76.4915C183.111 75.6534 183.653 75.0213 184.335 74.5952C185.017 74.1643 185.777 73.9489 186.615 73.9489C187.254 73.9489 187.779 74.0578 188.191 74.2756C188.603 74.4886 188.93 74.7467 189.172 75.0497C189.413 75.348 189.6 75.6297 189.733 75.8949H189.839V70.4545H192.417V85H189.889V83.2812H189.733C189.6 83.5464 189.408 83.8281 189.157 84.1264C188.906 84.42 188.575 84.6709 188.163 84.8793C187.751 85.0876 187.233 85.1918 186.608 85.1918ZM187.325 83.0824C187.869 83.0824 188.333 82.9356 188.717 82.642C189.1 82.3437 189.392 81.9295 189.591 81.3991C189.789 80.8688 189.889 80.2509 189.889 79.5455C189.889 78.84 189.789 78.2268 189.591 77.706C189.396 77.1851 189.108 76.7803 188.724 76.4915C188.345 76.2027 187.879 76.0582 187.325 76.0582C186.752 76.0582 186.274 76.2074 185.89 76.5057C185.507 76.804 185.218 77.2159 185.024 77.7415C184.83 78.267 184.733 78.8684 184.733 79.5455C184.733 80.2273 184.83 80.8357 185.024 81.3707C185.223 81.901 185.514 82.3201 185.897 82.6278C186.286 82.9309 186.761 83.0824 187.325 83.0824ZM198.296 85.2202C197.605 85.2202 196.982 85.0971 196.428 84.8509C195.879 84.5999 195.443 84.2306 195.121 83.7429C194.804 83.2552 194.646 82.6539 194.646 81.9389C194.646 81.3234 194.759 80.8144 194.987 80.4119C195.214 80.0095 195.524 79.6875 195.917 79.446C196.31 79.2045 196.753 79.0223 197.245 78.8991C197.742 78.7713 198.256 78.679 198.786 78.6222C199.425 78.5559 199.944 78.4967 200.342 78.4446C200.739 78.3878 201.028 78.3026 201.208 78.1889C201.393 78.0705 201.485 77.8883 201.485 77.642V77.5994C201.485 77.0644 201.326 76.6501 201.009 76.3565C200.692 76.063 200.235 75.9162 199.638 75.9162C199.009 75.9162 198.509 76.0535 198.14 76.3281C197.775 76.6027 197.529 76.9271 197.401 77.3011L195.001 76.9602C195.19 76.2973 195.503 75.7434 195.938 75.2983C196.374 74.8485 196.906 74.5123 197.536 74.2898C198.166 74.0625 198.862 73.9489 199.624 73.9489C200.15 73.9489 200.673 74.0104 201.194 74.1335C201.715 74.2566 202.191 74.4602 202.621 74.7443C203.052 75.0237 203.398 75.4048 203.658 75.8878C203.924 76.3707 204.056 76.9744 204.056 77.6989V85H201.585V83.5014H201.499C201.343 83.8045 201.123 84.0885 200.839 84.3537C200.559 84.6141 200.207 84.8248 199.781 84.9858C199.359 85.142 198.864 85.2202 198.296 85.2202ZM198.964 83.331C199.48 83.331 199.927 83.2292 200.306 83.0256C200.685 82.8172 200.976 82.5426 201.18 82.2017C201.388 81.8608 201.492 81.4891 201.492 81.0866V79.8011C201.412 79.8674 201.274 79.929 201.08 79.9858C200.891 80.0426 200.678 80.0923 200.441 80.1349C200.204 80.1776 199.97 80.2154 199.738 80.2486C199.506 80.2817 199.305 80.3101 199.134 80.3338C198.751 80.3859 198.407 80.4711 198.104 80.5895C197.801 80.7079 197.562 80.8736 197.387 81.0866C197.212 81.295 197.124 81.5649 197.124 81.8963C197.124 82.3698 197.297 82.7273 197.643 82.9688C197.988 83.2102 198.429 83.331 198.964 83.331ZM212.089 74.0909V76.0795H205.817V74.0909H212.089ZM207.366 71.4773H209.937V81.7188C209.937 82.0644 209.989 82.3295 210.093 82.5142C210.202 82.6941 210.344 82.8172 210.519 82.8835C210.694 82.9498 210.888 82.983 211.102 82.983C211.263 82.983 211.409 82.9711 211.542 82.9474C211.679 82.9238 211.783 82.9025 211.854 82.8835L212.288 84.8935C212.15 84.9408 211.954 84.9929 211.698 85.0497C211.447 85.1065 211.139 85.1397 210.775 85.1491C210.131 85.1681 209.551 85.071 209.035 84.858C208.519 84.6402 208.109 84.304 207.806 83.8494C207.508 83.3949 207.361 82.8267 207.366 82.1449V71.4773ZM218.951 85.2131C217.858 85.2131 216.913 84.9858 216.118 84.5312C215.327 84.072 214.718 83.4233 214.292 82.5852C213.866 81.7424 213.653 80.7505 213.653 79.6094C213.653 78.4872 213.866 77.5024 214.292 76.6548C214.723 75.8026 215.324 75.1397 216.096 74.6662C216.868 74.188 217.775 73.9489 218.816 73.9489C219.489 73.9489 220.123 74.0578 220.72 74.2756C221.321 74.4886 221.851 74.8201 222.311 75.2699C222.775 75.7197 223.139 76.2926 223.404 76.9886C223.67 77.6799 223.802 78.5038 223.802 79.4602V80.2486H214.86V78.5156H221.338C221.333 78.0232 221.226 77.5852 221.018 77.2017C220.81 76.8134 220.519 76.508 220.145 76.2855C219.775 76.063 219.344 75.9517 218.852 75.9517C218.326 75.9517 217.865 76.0795 217.467 76.3352C217.069 76.5862 216.759 76.9176 216.537 77.3295C216.319 77.7367 216.208 78.1842 216.203 78.6719V80.1847C216.203 80.8191 216.319 81.3636 216.551 81.8182C216.783 82.268 217.107 82.6136 217.524 82.8551C217.94 83.0919 218.428 83.2102 218.987 83.2102C219.361 83.2102 219.699 83.1581 220.002 83.054C220.306 82.9451 220.568 82.7865 220.791 82.5781C221.013 82.3698 221.181 82.1117 221.295 81.804L223.696 82.0739C223.544 82.7083 223.255 83.2623 222.829 83.7358C222.408 84.2045 221.868 84.5691 221.21 84.8295C220.552 85.0852 219.799 85.2131 218.951 85.2131ZM229.124 70.4545L228.889 80.7244H226.602L226.375 70.4545H229.124ZM227.746 85.1562C227.315 85.1562 226.946 85.0047 226.638 84.7017C226.335 84.3987 226.183 84.0294 226.183 83.5938C226.183 83.1676 226.335 82.803 226.638 82.5C226.946 82.197 227.315 82.0455 227.746 82.0455C228.167 82.0455 228.532 82.197 228.839 82.5C229.152 82.803 229.308 83.1676 229.308 83.5938C229.308 83.8826 229.235 84.1454 229.088 84.3821C228.946 84.6188 228.757 84.8082 228.52 84.9503C228.288 85.0876 228.03 85.1562 227.746 85.1562Z" fill="#212121"/>
<path d="M24.358 144.818H25.7699L28.5938 149.571H28.7131L31.5369 144.818H32.9489L29.2699 150.804V155H28.0369V150.804L24.358 144.818ZM36.4066 155.159C35.7172 155.159 35.1123 154.995 34.592 154.667C34.0749 154.339 33.6706 153.88 33.3789 153.29C33.0906 152.7 32.9464 152.01 32.9464 151.222C32.9464 150.426 33.0906 149.732 33.3789 149.138C33.6706 148.545 34.0749 148.085 34.592 147.756C35.1123 147.428 35.7172 147.264 36.4066 147.264C37.096 147.264 37.6992 147.428 38.2163 147.756C38.7366 148.085 39.141 148.545 39.4293 149.138C39.721 149.732 39.8668 150.426 39.8668 151.222C39.8668 152.01 39.721 152.7 39.4293 153.29C39.141 153.88 38.7366 154.339 38.2163 154.667C37.6992 154.995 37.096 155.159 36.4066 155.159ZM36.4066 154.105C36.9303 154.105 37.3612 153.971 37.6992 153.702C38.0373 153.434 38.2875 153.081 38.4499 152.643C38.6123 152.206 38.6935 151.732 38.6935 151.222C38.6935 150.711 38.6123 150.236 38.4499 149.795C38.2875 149.354 38.0373 148.998 37.6992 148.726C37.3612 148.454 36.9303 148.318 36.4066 148.318C35.8829 148.318 35.4521 148.454 35.114 148.726C34.7759 148.998 34.5257 149.354 34.3633 149.795C34.2009 150.236 34.1197 150.711 34.1197 151.222C34.1197 151.732 34.2009 152.206 34.3633 152.643C34.5257 153.081 34.7759 153.434 35.114 153.702C35.4521 153.971 35.8829 154.105 36.4066 154.105ZM46.4703 151.878V147.364H47.6436V155H46.4703V153.707H46.3908C46.2118 154.095 45.9334 154.425 45.5556 154.697C45.1777 154.965 44.7005 155.099 44.1238 155.099C43.6465 155.099 43.2222 154.995 42.851 154.786C42.4798 154.574 42.1882 154.256 41.976 153.832C41.7639 153.404 41.6578 152.866 41.6578 152.216V147.364H42.8311V152.136C42.8311 152.693 42.9869 153.137 43.2985 153.469C43.6133 153.8 44.0144 153.966 44.5016 153.966C44.7933 153.966 45.0899 153.891 45.3915 153.742C45.6964 153.593 45.9516 153.364 46.1571 153.056C46.3659 152.748 46.4703 152.355 46.4703 151.878ZM54.9034 150.406V155H53.7301V144.818H54.9034V148.557H55.0028C55.1818 148.162 55.4503 147.849 55.8082 147.617C56.1695 147.382 56.6501 147.264 57.25 147.264C57.7704 147.264 58.2261 147.369 58.6172 147.577C59.0083 147.783 59.3116 148.099 59.527 148.527C59.7457 148.951 59.8551 149.491 59.8551 150.148V155H58.6818V150.227C58.6818 149.621 58.5244 149.152 58.2095 148.82C57.898 148.486 57.4654 148.318 56.9119 148.318C56.5275 148.318 56.1828 148.399 55.8778 148.562C55.5762 148.724 55.3376 148.961 55.1619 149.273C54.9896 149.584 54.9034 149.962 54.9034 150.406ZM64.2488 155.179C63.7649 155.179 63.3257 155.088 62.9313 154.906C62.5369 154.72 62.2237 154.453 61.9917 154.105C61.7596 153.754 61.6436 153.33 61.6436 152.832C61.6436 152.395 61.7298 152.04 61.9022 151.768C62.0745 151.493 62.3049 151.278 62.5932 151.122C62.8816 150.966 63.1998 150.85 63.5478 150.774C63.8991 150.695 64.2521 150.632 64.6067 150.585C65.0707 150.526 65.4469 150.481 65.7353 150.451C66.0269 150.418 66.2391 150.363 66.3716 150.287C66.5075 150.211 66.5755 150.078 66.5755 149.889V149.849C66.5755 149.359 66.4412 148.978 66.1728 148.706C65.9076 148.434 65.5049 148.298 64.9647 148.298C64.4045 148.298 63.9654 148.421 63.6472 148.666C63.329 148.911 63.1053 149.173 62.976 149.452L61.8624 149.054C62.0613 148.59 62.3264 148.229 62.6578 147.97C62.9926 147.708 63.3572 147.526 63.7516 147.423C64.1493 147.317 64.5404 147.264 64.9249 147.264C65.1702 147.264 65.4519 147.294 65.7701 147.354C66.0916 147.41 66.4015 147.528 66.6998 147.707C67.0014 147.886 67.2516 148.156 67.4505 148.517C67.6493 148.878 67.7488 149.362 67.7488 149.969V155H66.5755V153.966H66.5158C66.4363 154.132 66.3037 154.309 66.1181 154.498C65.9325 154.687 65.6855 154.848 65.3773 154.98C65.0691 155.113 64.6929 155.179 64.2488 155.179ZM64.4277 154.125C64.8917 154.125 65.2828 154.034 65.601 153.852C65.9225 153.669 66.1645 153.434 66.3269 153.146C66.4926 152.857 66.5755 152.554 66.5755 152.236V151.162C66.5257 151.222 66.4164 151.276 66.2473 151.326C66.0816 151.372 65.8894 151.414 65.6706 151.45C65.4552 151.483 65.2447 151.513 65.0392 151.54C64.8371 151.563 64.673 151.583 64.5471 151.599C64.2421 151.639 63.9571 151.704 63.6919 151.793C63.4301 151.879 63.218 152.01 63.0556 152.186C62.8965 152.358 62.8169 152.594 62.8169 152.892C62.8169 153.3 62.9677 153.608 63.2694 153.817C63.5743 154.022 63.9604 154.125 64.4277 154.125ZM75.8612 147.364L73.0373 155H71.8441L69.0202 147.364H70.293L72.4009 153.449H72.4805L74.5884 147.364H75.8612ZM80.3381 155.159C79.6023 155.159 78.9676 154.997 78.4339 154.672C77.9036 154.344 77.4943 153.886 77.206 153.3C76.9209 152.71 76.7784 152.024 76.7784 151.241C76.7784 150.459 76.9209 149.77 77.206 149.173C77.4943 148.573 77.8954 148.106 78.4091 147.771C78.9261 147.433 79.5294 147.264 80.2188 147.264C80.6165 147.264 81.0092 147.33 81.397 147.463C81.7848 147.596 82.1378 147.811 82.456 148.109C82.7741 148.404 83.0277 148.795 83.2166 149.283C83.4055 149.77 83.5 150.37 83.5 151.082V151.58H77.6136V150.565H82.3068C82.3068 150.134 82.2206 149.75 82.0483 149.412C81.8793 149.074 81.6373 148.807 81.3224 148.612C81.0109 148.416 80.643 148.318 80.2188 148.318C79.7514 148.318 79.3471 148.434 79.0057 148.666C78.6676 148.895 78.4074 149.193 78.2251 149.561C78.0429 149.929 77.9517 150.323 77.9517 150.744V151.42C77.9517 151.997 78.0511 152.486 78.25 152.887C78.4522 153.285 78.7322 153.588 79.0902 153.797C79.4482 154.002 79.8641 154.105 80.3381 154.105C80.6463 154.105 80.9247 154.062 81.1733 153.976C81.4252 153.886 81.6423 153.754 81.8246 153.578C82.0069 153.399 82.1477 153.177 82.2472 152.912L83.3807 153.23C83.2614 153.615 83.0608 153.953 82.7791 154.244C82.4974 154.533 82.1494 154.758 81.7351 154.92C81.3208 155.08 80.8551 155.159 80.3381 155.159ZM92.6726 155.139C91.9898 155.139 91.38 155.022 90.843 154.786C90.3094 154.551 89.8868 154.224 89.5753 153.807C89.267 153.386 89.1013 152.899 89.0781 152.345H90.6392C90.6591 152.647 90.7602 152.909 90.9425 153.131C91.1281 153.349 91.37 153.518 91.6683 153.638C91.9666 153.757 92.2981 153.817 92.6626 153.817C93.0637 153.817 93.4183 153.747 93.7266 153.608C94.0381 153.469 94.2817 153.275 94.4574 153.026C94.633 152.774 94.7209 152.484 94.7209 152.156C94.7209 151.815 94.633 151.515 94.4574 151.256C94.285 150.995 94.0315 150.789 93.6967 150.64C93.3653 150.491 92.9643 150.416 92.4936 150.416H91.6335V149.163H92.4936C92.8714 149.163 93.2029 149.095 93.4879 148.96C93.7763 148.824 94.0017 148.635 94.1641 148.393C94.3265 148.147 94.4077 147.861 94.4077 147.533C94.4077 147.218 94.3364 146.944 94.1939 146.712C94.0547 146.477 93.8558 146.293 93.5973 146.161C93.3421 146.028 93.0405 145.962 92.6925 145.962C92.361 145.962 92.0511 146.023 91.7628 146.146C91.4777 146.265 91.2457 146.437 91.0668 146.663C90.8878 146.885 90.7917 147.152 90.7784 147.463H89.2919C89.3085 146.913 89.4709 146.429 89.7791 146.011C90.0907 145.594 90.5017 145.267 91.0121 145.032C91.5225 144.797 92.0893 144.679 92.7124 144.679C93.3653 144.679 93.9287 144.807 94.4027 145.062C94.88 145.314 95.2479 145.65 95.5064 146.071C95.7682 146.492 95.8975 146.953 95.8942 147.453C95.8975 148.023 95.7384 148.507 95.4169 148.905C95.0987 149.303 94.6745 149.569 94.1442 149.705V149.785C94.8203 149.888 95.344 150.156 95.7152 150.59C96.0897 151.024 96.2753 151.563 96.272 152.206C96.2753 152.766 96.1196 153.268 95.8047 153.712C95.4931 154.156 95.0672 154.506 94.527 154.761C93.9867 155.013 93.3686 155.139 92.6726 155.139ZM106.714 151.833V147.364H108.205V155H106.743V153.678H106.664C106.488 154.085 106.206 154.425 105.819 154.697C105.434 154.965 104.955 155.099 104.382 155.099C103.891 155.099 103.457 154.992 103.079 154.776C102.705 154.558 102.41 154.234 102.194 153.807C101.982 153.379 101.876 152.851 101.876 152.221V147.364H103.363V152.042C103.363 152.562 103.507 152.977 103.795 153.285C104.084 153.593 104.458 153.747 104.919 153.747C105.197 153.747 105.474 153.678 105.749 153.538C106.028 153.399 106.258 153.189 106.44 152.907C106.626 152.625 106.717 152.267 106.714 151.833ZM110.202 157.864V147.364H111.654V148.602H111.778C111.865 148.442 111.989 148.259 112.151 148.05C112.314 147.841 112.539 147.659 112.827 147.503C113.116 147.344 113.497 147.264 113.971 147.264C114.587 147.264 115.138 147.42 115.621 147.732C116.105 148.043 116.485 148.492 116.76 149.079C117.038 149.665 117.178 150.371 117.178 151.197C117.178 152.022 117.04 152.73 116.765 153.32C116.49 153.906 116.112 154.359 115.631 154.677C115.151 154.992 114.602 155.149 113.986 155.149C113.522 155.149 113.142 155.071 112.847 154.915C112.556 154.76 112.327 154.577 112.161 154.369C111.996 154.16 111.868 153.974 111.778 153.812H111.689V157.864H110.202ZM111.659 151.182C111.659 151.719 111.737 152.189 111.893 152.594C112.049 152.998 112.274 153.315 112.569 153.543C112.864 153.769 113.225 153.881 113.653 153.881C114.097 153.881 114.468 153.764 114.766 153.528C115.065 153.29 115.29 152.967 115.442 152.559C115.598 152.151 115.676 151.692 115.676 151.182C115.676 150.678 115.6 150.226 115.447 149.825C115.298 149.424 115.073 149.107 114.771 148.875C114.473 148.643 114.1 148.527 113.653 148.527C113.222 148.527 112.857 148.638 112.559 148.86C112.264 149.082 112.04 149.392 111.888 149.79C111.735 150.187 111.659 150.652 111.659 151.182ZM122.06 155.154C121.321 155.154 120.684 154.987 120.151 154.652C119.62 154.314 119.213 153.848 118.928 153.255C118.643 152.662 118.5 151.982 118.5 151.217C118.5 150.441 118.646 149.757 118.938 149.163C119.229 148.567 119.64 148.101 120.17 147.766C120.701 147.432 121.326 147.264 122.045 147.264C122.625 147.264 123.142 147.372 123.596 147.587C124.05 147.799 124.416 148.098 124.695 148.482C124.976 148.867 125.144 149.316 125.197 149.83H123.75C123.67 149.472 123.488 149.163 123.203 148.905C122.921 148.646 122.544 148.517 122.07 148.517C121.655 148.517 121.292 148.626 120.981 148.845C120.673 149.061 120.432 149.369 120.26 149.77C120.088 150.168 120.001 150.638 120.001 151.182C120.001 151.739 120.086 152.219 120.255 152.624C120.424 153.028 120.663 153.341 120.971 153.563C121.282 153.785 121.649 153.896 122.07 153.896C122.351 153.896 122.607 153.845 122.835 153.742C123.067 153.636 123.261 153.485 123.417 153.29C123.576 153.094 123.687 152.859 123.75 152.584H125.197C125.144 153.078 124.983 153.518 124.714 153.906C124.446 154.294 124.086 154.599 123.636 154.821C123.188 155.043 122.663 155.154 122.06 155.154ZM130.003 155.154C129.287 155.154 128.662 154.99 128.129 154.662C127.595 154.334 127.181 153.875 126.886 153.285C126.591 152.695 126.443 152.005 126.443 151.217C126.443 150.424 126.591 149.732 126.886 149.138C127.181 148.545 127.595 148.085 128.129 147.756C128.662 147.428 129.287 147.264 130.003 147.264C130.719 147.264 131.344 147.428 131.877 147.756C132.411 148.085 132.825 148.545 133.12 149.138C133.415 149.732 133.563 150.424 133.563 151.217C133.563 152.005 133.415 152.695 133.12 153.285C132.825 153.875 132.411 154.334 131.877 154.662C131.344 154.99 130.719 155.154 130.003 155.154ZM130.008 153.906C130.472 153.906 130.856 153.784 131.161 153.538C131.466 153.293 131.692 152.967 131.838 152.559C131.987 152.151 132.061 151.702 132.061 151.212C132.061 150.724 131.987 150.277 131.838 149.869C131.692 149.458 131.466 149.129 131.161 148.88C130.856 148.631 130.472 148.507 130.008 148.507C129.541 148.507 129.153 148.631 128.845 148.88C128.54 149.129 128.313 149.458 128.164 149.869C128.018 150.277 127.945 150.724 127.945 151.212C127.945 151.702 128.018 152.151 128.164 152.559C128.313 152.967 128.54 153.293 128.845 153.538C129.153 153.784 129.541 153.906 130.008 153.906ZM135.222 155V147.364H136.649V148.607H136.743C136.902 148.186 137.163 147.857 137.524 147.622C137.885 147.384 138.318 147.264 138.821 147.264C139.332 147.264 139.759 147.384 140.104 147.622C140.452 147.861 140.709 148.189 140.875 148.607H140.954C141.136 148.199 141.426 147.874 141.824 147.632C142.222 147.387 142.696 147.264 143.246 147.264C143.939 147.264 144.504 147.481 144.941 147.915C145.382 148.35 145.603 149.004 145.603 149.879V155H144.116V150.018C144.116 149.501 143.975 149.127 143.694 148.895C143.412 148.663 143.075 148.547 142.684 148.547C142.2 148.547 141.824 148.696 141.556 148.994C141.287 149.289 141.153 149.669 141.153 150.133V155H139.672V149.924C139.672 149.51 139.542 149.177 139.284 148.925C139.025 148.673 138.689 148.547 138.275 148.547C137.993 148.547 137.733 148.621 137.494 148.771C137.259 148.916 137.068 149.12 136.922 149.382C136.78 149.644 136.708 149.947 136.708 150.292V155H135.222ZM147.595 155V147.364H149.081V155H147.595ZM148.346 146.185C148.087 146.185 147.865 146.099 147.68 145.927C147.497 145.751 147.406 145.542 147.406 145.3C147.406 145.055 147.497 144.846 147.68 144.674C147.865 144.498 148.087 144.411 148.346 144.411C148.604 144.411 148.825 144.498 149.007 144.674C149.193 144.846 149.285 145.055 149.285 145.3C149.285 145.542 149.193 145.751 149.007 145.927C148.825 146.099 148.604 146.185 148.346 146.185ZM152.568 150.466V155H151.081V147.364H152.508V148.607H152.603C152.778 148.202 153.053 147.877 153.428 147.632C153.806 147.387 154.281 147.264 154.855 147.264C155.375 147.264 155.831 147.374 156.222 147.592C156.613 147.808 156.916 148.129 157.132 148.557C157.347 148.984 157.455 149.513 157.455 150.143V155H155.968V150.322C155.968 149.768 155.824 149.336 155.536 149.024C155.248 148.709 154.851 148.552 154.348 148.552C154.003 148.552 153.696 148.626 153.428 148.776C153.163 148.925 152.952 149.143 152.797 149.432C152.644 149.717 152.568 150.062 152.568 150.466ZM162.65 158.023C162.044 158.023 161.522 157.943 161.084 157.784C160.65 157.625 160.295 157.415 160.02 157.153C159.745 156.891 159.54 156.604 159.404 156.293L160.681 155.766C160.771 155.911 160.89 156.066 161.039 156.228C161.192 156.394 161.397 156.535 161.656 156.651C161.918 156.767 162.254 156.825 162.665 156.825C163.229 156.825 163.694 156.687 164.062 156.412C164.43 156.14 164.614 155.706 164.614 155.109V153.608H164.52C164.43 153.77 164.301 153.951 164.132 154.15C163.966 154.349 163.737 154.521 163.446 154.667C163.154 154.813 162.775 154.886 162.307 154.886C161.704 154.886 161.16 154.745 160.676 154.463C160.196 154.178 159.815 153.759 159.533 153.205C159.255 152.648 159.115 151.964 159.115 151.152C159.115 150.34 159.253 149.644 159.528 149.064C159.806 148.484 160.188 148.04 160.672 147.732C161.155 147.42 161.704 147.264 162.317 147.264C162.791 147.264 163.174 147.344 163.466 147.503C163.757 147.659 163.984 147.841 164.147 148.05C164.312 148.259 164.44 148.442 164.529 148.602H164.639V147.364H166.096V155.169C166.096 155.825 165.943 156.364 165.638 156.785C165.333 157.206 164.921 157.517 164.4 157.719C163.883 157.922 163.3 158.023 162.65 158.023ZM162.635 153.653C163.063 153.653 163.424 153.553 163.719 153.354C164.017 153.152 164.243 152.864 164.395 152.489C164.551 152.112 164.629 151.659 164.629 151.132C164.629 150.618 164.553 150.166 164.4 149.775C164.248 149.384 164.024 149.079 163.729 148.86C163.434 148.638 163.069 148.527 162.635 148.527C162.188 148.527 161.815 148.643 161.517 148.875C161.218 149.104 160.993 149.415 160.841 149.81C160.691 150.204 160.617 150.645 160.617 151.132C160.617 151.633 160.693 152.072 160.846 152.45C160.998 152.827 161.223 153.122 161.522 153.335C161.823 153.547 162.194 153.653 162.635 153.653ZM174.985 155.159C174.348 155.159 173.787 154.998 173.299 154.677C172.812 154.352 172.431 153.895 172.156 153.305C171.881 152.711 171.743 152.01 171.743 151.202C171.743 150.4 171.881 149.704 172.156 149.114C172.431 148.524 172.814 148.068 173.304 147.746C173.795 147.425 174.362 147.264 175.005 147.264C175.502 147.264 175.895 147.347 176.183 147.513C176.475 147.675 176.697 147.861 176.849 148.07C177.005 148.275 177.126 148.444 177.212 148.577H177.311V144.818H178.485V155H177.351V153.827H177.212C177.126 153.966 177.003 154.142 176.844 154.354C176.685 154.562 176.458 154.75 176.163 154.915C175.868 155.078 175.475 155.159 174.985 155.159ZM175.144 154.105C175.614 154.105 176.012 153.982 176.337 153.737C176.662 153.489 176.909 153.146 177.078 152.708C177.247 152.267 177.331 151.759 177.331 151.182C177.331 150.612 177.248 150.113 177.083 149.685C176.917 149.254 176.672 148.92 176.347 148.681C176.022 148.439 175.621 148.318 175.144 148.318C174.647 148.318 174.232 148.446 173.901 148.701C173.573 148.953 173.326 149.296 173.16 149.73C172.998 150.161 172.917 150.645 172.917 151.182C172.917 151.725 172.999 152.219 173.165 152.663C173.334 153.104 173.583 153.455 173.911 153.717C174.242 153.976 174.653 154.105 175.144 154.105ZM183.899 155.159C183.209 155.159 182.605 154.995 182.084 154.667C181.567 154.339 181.163 153.88 180.871 153.29C180.583 152.7 180.439 152.01 180.439 151.222C180.439 150.426 180.583 149.732 180.871 149.138C181.163 148.545 181.567 148.085 182.084 147.756C182.605 147.428 183.209 147.264 183.899 147.264C184.588 147.264 185.191 147.428 185.708 147.756C186.229 148.085 186.633 148.545 186.922 149.138C187.213 149.732 187.359 150.426 187.359 151.222C187.359 152.01 187.213 152.7 186.922 153.29C186.633 153.88 186.229 154.339 185.708 154.667C185.191 154.995 184.588 155.159 183.899 155.159ZM183.899 154.105C184.422 154.105 184.853 153.971 185.191 153.702C185.529 153.434 185.78 153.081 185.942 152.643C186.105 152.206 186.186 151.732 186.186 151.222C186.186 150.711 186.105 150.236 185.942 149.795C185.78 149.354 185.529 148.998 185.191 148.726C184.853 148.454 184.422 148.318 183.899 148.318C183.375 148.318 182.944 148.454 182.606 148.726C182.268 148.998 182.018 149.354 181.855 149.795C181.693 150.236 181.612 150.711 181.612 151.222C181.612 151.732 181.693 152.206 181.855 152.643C182.018 153.081 182.268 153.434 182.606 153.702C182.944 153.971 183.375 154.105 183.899 154.105ZM192.252 155.159C191.536 155.159 190.92 154.99 190.403 154.652C189.886 154.314 189.488 153.848 189.21 153.255C188.931 152.662 188.792 151.984 188.792 151.222C188.792 150.446 188.935 149.762 189.22 149.168C189.508 148.572 189.909 148.106 190.423 147.771C190.94 147.433 191.543 147.264 192.232 147.264C192.769 147.264 193.253 147.364 193.684 147.562C194.115 147.761 194.468 148.04 194.743 148.398C195.018 148.756 195.189 149.173 195.255 149.651H194.082C193.992 149.303 193.794 148.994 193.485 148.726C193.18 148.454 192.769 148.318 192.252 148.318C191.795 148.318 191.394 148.437 191.049 148.676C190.708 148.911 190.441 149.245 190.249 149.675C190.06 150.103 189.965 150.605 189.965 151.182C189.965 151.772 190.058 152.286 190.244 152.723C190.433 153.161 190.698 153.5 191.039 153.742C191.384 153.984 191.788 154.105 192.252 154.105C192.557 154.105 192.834 154.052 193.083 153.946C193.331 153.84 193.542 153.688 193.714 153.489C193.886 153.29 194.009 153.051 194.082 152.773H195.255C195.189 153.223 195.025 153.629 194.763 153.991C194.504 154.349 194.161 154.634 193.734 154.846C193.31 155.055 192.816 155.159 192.252 155.159ZM201.783 151.878V147.364H202.956V155H201.783V153.707H201.703C201.524 154.095 201.246 154.425 200.868 154.697C200.49 154.965 200.013 155.099 199.436 155.099C198.959 155.099 198.535 154.995 198.164 154.786C197.792 154.574 197.501 154.256 197.289 153.832C197.076 153.404 196.97 152.866 196.97 152.216V147.364H198.144V152.136C198.144 152.693 198.299 153.137 198.611 153.469C198.926 153.8 199.327 153.966 199.814 153.966C200.106 153.966 200.402 153.891 200.704 153.742C201.009 153.593 201.264 153.364 201.47 153.056C201.678 152.748 201.783 152.355 201.783 151.878ZM205.105 155V147.364H206.239V148.557H206.338C206.497 148.149 206.754 147.833 207.109 147.607C207.463 147.379 207.889 147.264 208.386 147.264C208.89 147.264 209.309 147.379 209.644 147.607C209.982 147.833 210.246 148.149 210.435 148.557H210.514C210.71 148.162 211.003 147.849 211.394 147.617C211.785 147.382 212.254 147.264 212.801 147.264C213.484 147.264 214.042 147.478 214.477 147.906C214.911 148.33 215.128 148.991 215.128 149.889V155H213.955V149.889C213.955 149.326 213.8 148.923 213.492 148.681C213.184 148.439 212.821 148.318 212.403 148.318C211.866 148.318 211.451 148.481 211.156 148.805C210.861 149.127 210.713 149.535 210.713 150.028V155H209.52V149.77C209.52 149.336 209.379 148.986 209.097 148.721C208.816 148.452 208.453 148.318 208.009 148.318C207.704 148.318 207.419 148.399 207.153 148.562C206.892 148.724 206.679 148.95 206.517 149.238C206.358 149.523 206.278 149.853 206.278 150.227V155H205.105ZM220.475 155.159C219.739 155.159 219.104 154.997 218.571 154.672C218.04 154.344 217.631 153.886 217.343 153.3C217.058 152.71 216.915 152.024 216.915 151.241C216.915 150.459 217.058 149.77 217.343 149.173C217.631 148.573 218.032 148.106 218.546 147.771C219.063 147.433 219.666 147.264 220.355 147.264C220.753 147.264 221.146 147.33 221.534 147.463C221.922 147.596 222.275 147.811 222.593 148.109C222.911 148.404 223.164 148.795 223.353 149.283C223.542 149.77 223.637 150.37 223.637 151.082V151.58H217.75V150.565H222.444C222.444 150.134 222.357 149.75 222.185 149.412C222.016 149.074 221.774 148.807 221.459 148.612C221.148 148.416 220.78 148.318 220.355 148.318C219.888 148.318 219.484 148.434 219.142 148.666C218.804 148.895 218.544 149.193 218.362 149.561C218.18 149.929 218.088 150.323 218.088 150.744V151.42C218.088 151.997 218.188 152.486 218.387 152.887C218.589 153.285 218.869 153.588 219.227 153.797C219.585 154.002 220.001 154.105 220.475 154.105C220.783 154.105 221.061 154.062 221.31 153.976C221.562 153.886 221.779 153.754 221.961 153.578C222.144 153.399 222.284 153.177 222.384 152.912L223.517 153.23C223.398 153.615 223.198 153.953 222.916 154.244C222.634 154.533 222.286 154.758 221.872 154.92C221.458 155.08 220.992 155.159 220.475 155.159ZM226.595 150.406V155H225.422V147.364H226.555V148.557H226.654C226.833 148.169 227.105 147.857 227.47 147.622C227.834 147.384 228.305 147.264 228.882 147.264C229.399 147.264 229.851 147.37 230.239 147.582C230.627 147.791 230.928 148.109 231.144 148.537C231.359 148.961 231.467 149.498 231.467 150.148V155H230.294V150.227C230.294 149.627 230.138 149.16 229.826 148.825C229.515 148.487 229.087 148.318 228.544 148.318C228.169 148.318 227.834 148.399 227.539 148.562C227.248 148.724 227.017 148.961 226.848 149.273C226.679 149.584 226.595 149.962 226.595 150.406ZM236.932 147.364V148.358H232.975V147.364H236.932ZM234.128 145.534H235.301V152.812C235.301 153.144 235.349 153.393 235.445 153.558C235.545 153.721 235.671 153.83 235.823 153.886C235.979 153.939 236.143 153.966 236.316 153.966C236.445 153.966 236.551 153.959 236.634 153.946C236.717 153.929 236.783 153.916 236.833 153.906L237.071 154.96C236.992 154.99 236.881 155.02 236.738 155.05C236.596 155.083 236.415 155.099 236.196 155.099C235.865 155.099 235.54 155.028 235.222 154.886C234.907 154.743 234.645 154.526 234.436 154.234C234.231 153.943 234.128 153.575 234.128 153.131V145.534ZM29.8864 169.878V165.364H31.0597V173H29.8864V171.707H29.8068C29.6278 172.095 29.3494 172.425 28.9716 172.697C28.5938 172.965 28.1165 173.099 27.5398 173.099C27.0625 173.099 26.6383 172.995 26.267 172.786C25.8958 172.574 25.6042 172.256 25.392 171.832C25.1799 171.404 25.0739 170.866 25.0739 170.216V165.364H26.2472V170.136C26.2472 170.693 26.4029 171.137 26.7145 171.469C27.0294 171.8 27.4304 171.966 27.9176 171.966C28.2093 171.966 28.5059 171.891 28.8075 171.742C29.1125 171.593 29.3677 171.364 29.5732 171.056C29.782 170.748 29.8864 170.355 29.8864 169.878ZM33.2086 175.864V165.364H34.3422V166.577H34.4814C34.5675 166.444 34.6868 166.275 34.8393 166.07C34.9951 165.861 35.2172 165.675 35.5055 165.513C35.7972 165.347 36.1916 165.264 36.6887 165.264C37.3317 165.264 37.8985 165.425 38.389 165.746C38.8796 166.068 39.2624 166.524 39.5375 167.114C39.8126 167.704 39.9501 168.4 39.9501 169.202C39.9501 170.01 39.8126 170.711 39.5375 171.305C39.2624 171.895 38.8812 172.352 38.394 172.677C37.9068 172.998 37.345 173.159 36.7086 173.159C36.2181 173.159 35.8253 173.078 35.5304 172.915C35.2354 172.75 35.0083 172.562 34.8493 172.354C34.6902 172.142 34.5675 171.966 34.4814 171.827H34.3819V175.864H33.2086ZM34.362 169.182C34.362 169.759 34.4466 170.267 34.6156 170.708C34.7846 171.146 35.0315 171.489 35.3564 171.737C35.6812 171.982 36.0789 172.105 36.5495 172.105C37.0401 172.105 37.4494 171.976 37.7775 171.717C38.109 171.455 38.3575 171.104 38.5233 170.663C38.6923 170.219 38.7768 169.725 38.7768 169.182C38.7768 168.645 38.694 168.161 38.5282 167.73C38.3658 167.296 38.1189 166.953 37.7875 166.701C37.4593 166.446 37.0467 166.318 36.5495 166.318C36.0723 166.318 35.6712 166.439 35.3464 166.681C35.0216 166.92 34.7763 167.254 34.6106 167.685C34.4449 168.113 34.362 168.612 34.362 169.182ZM44.6234 173.159C43.987 173.159 43.4252 172.998 42.938 172.677C42.4508 172.352 42.0697 171.895 41.7946 171.305C41.5195 170.711 41.3819 170.01 41.3819 169.202C41.3819 168.4 41.5195 167.704 41.7946 167.114C42.0697 166.524 42.4525 166.068 42.943 165.746C43.4335 165.425 44.0003 165.264 44.6433 165.264C45.1404 165.264 45.5332 165.347 45.8216 165.513C46.1132 165.675 46.3353 165.861 46.4877 166.07C46.6435 166.275 46.7645 166.444 46.8507 166.577H46.9501V162.818H48.1234V173H46.9899V171.827H46.8507C46.7645 171.966 46.6419 172.142 46.4828 172.354C46.3237 172.562 46.0967 172.75 45.8017 172.915C45.5067 173.078 45.1139 173.159 44.6234 173.159ZM44.7825 172.105C45.2531 172.105 45.6509 171.982 45.9757 171.737C46.3005 171.489 46.5474 171.146 46.7164 170.708C46.8855 170.267 46.97 169.759 46.97 169.182C46.97 168.612 46.8871 168.113 46.7214 167.685C46.5557 167.254 46.3104 166.92 45.9856 166.681C45.6608 166.439 45.2598 166.318 44.7825 166.318C44.2853 166.318 43.871 166.446 43.5396 166.701C43.2115 166.953 42.9645 167.296 42.7988 167.73C42.6364 168.161 42.5552 168.645 42.5552 169.182C42.5552 169.725 42.6381 170.219 42.8038 170.663C42.9728 171.104 43.2214 171.455 43.5495 171.717C43.881 171.976 44.292 172.105 44.7825 172.105ZM52.6824 173.179C52.1984 173.179 51.7593 173.088 51.3649 172.906C50.9705 172.72 50.6573 172.453 50.4252 172.105C50.1932 171.754 50.0772 171.33 50.0772 170.832C50.0772 170.395 50.1634 170.04 50.3358 169.768C50.5081 169.493 50.7385 169.278 51.0268 169.122C51.3152 168.966 51.6333 168.85 51.9814 168.774C52.3327 168.695 52.6857 168.632 53.0403 168.585C53.5043 168.526 53.8805 168.481 54.1689 168.451C54.4605 168.418 54.6726 168.363 54.8052 168.287C54.9411 168.211 55.0091 168.078 55.0091 167.889V167.849C55.0091 167.359 54.8748 166.978 54.6064 166.706C54.3412 166.434 53.9385 166.298 53.3983 166.298C52.8381 166.298 52.399 166.421 52.0808 166.666C51.7626 166.911 51.5389 167.173 51.4096 167.452L50.296 167.054C50.4949 166.59 50.76 166.229 51.0914 165.97C51.4262 165.708 51.7908 165.526 52.1852 165.423C52.5829 165.317 52.974 165.264 53.3585 165.264C53.6038 165.264 53.8855 165.294 54.2037 165.354C54.5252 165.41 54.835 165.528 55.1333 165.707C55.435 165.886 55.6852 166.156 55.8841 166.517C56.0829 166.878 56.1824 167.362 56.1824 167.969V173H55.0091V171.966H54.9494C54.8699 172.132 54.7373 172.309 54.5517 172.498C54.3661 172.687 54.1191 172.848 53.8109 172.98C53.5027 173.113 53.1265 173.179 52.6824 173.179ZM52.8613 172.125C53.3253 172.125 53.7164 172.034 54.0346 171.852C54.3561 171.669 54.5981 171.434 54.7605 171.146C54.9262 170.857 55.0091 170.554 55.0091 170.236V169.162C54.9593 169.222 54.85 169.276 54.6809 169.326C54.5152 169.372 54.323 169.414 54.1042 169.45C53.8888 169.483 53.6783 169.513 53.4728 169.54C53.2707 169.563 53.1066 169.583 52.9806 169.599C52.6757 169.639 52.3907 169.704 52.1255 169.793C51.8637 169.879 51.6516 170.01 51.4892 170.186C51.3301 170.358 51.2505 170.594 51.2505 170.892C51.2505 171.3 51.4013 171.608 51.7029 171.817C52.0079 172.022 52.394 172.125 52.8613 172.125ZM61.6449 165.364V166.358H57.6875V165.364H61.6449ZM58.8409 163.534H60.0142V170.812C60.0142 171.144 60.0623 171.393 60.1584 171.558C60.2578 171.721 60.3838 171.83 60.5362 171.886C60.692 171.939 60.8561 171.966 61.0284 171.966C61.1577 171.966 61.2637 171.959 61.3466 171.946C61.4295 171.929 61.4957 171.916 61.5455 171.906L61.7841 172.96C61.7045 172.99 61.5935 173.02 61.451 173.05C61.3085 173.083 61.1278 173.099 60.9091 173.099C60.5777 173.099 60.2528 173.028 59.9347 172.886C59.6198 172.743 59.358 172.526 59.1491 172.234C58.9437 171.943 58.8409 171.575 58.8409 171.131V163.534ZM66.5295 173.159C65.7937 173.159 65.159 172.997 64.6254 172.672C64.0951 172.344 63.6857 171.886 63.3974 171.3C63.1123 170.71 62.9698 170.024 62.9698 169.241C62.9698 168.459 63.1123 167.77 63.3974 167.173C63.6857 166.573 64.0868 166.106 64.6005 165.771C65.1175 165.433 65.7208 165.264 66.4102 165.264C66.8079 165.264 67.2006 165.33 67.5884 165.463C67.9762 165.596 68.3292 165.811 68.6474 166.109C68.9656 166.404 69.2191 166.795 69.408 167.283C69.5969 167.77 69.6914 168.37 69.6914 169.082V169.58H63.805V168.565H68.4982C68.4982 168.134 68.4121 167.75 68.2397 167.412C68.0707 167.074 67.8287 166.807 67.5138 166.612C67.2023 166.416 66.8344 166.318 66.4102 166.318C65.9428 166.318 65.5385 166.434 65.1971 166.666C64.859 166.895 64.5988 167.193 64.4165 167.561C64.2343 167.929 64.1431 168.323 64.1431 168.744V169.42C64.1431 169.997 64.2425 170.486 64.4414 170.887C64.6436 171.285 64.9237 171.588 65.2816 171.797C65.6396 172.002 66.0555 172.105 66.5295 172.105C66.8377 172.105 67.1161 172.062 67.3647 171.976C67.6166 171.886 67.8337 171.754 68.016 171.578C68.1983 171.399 68.3391 171.177 68.4386 170.912L69.5721 171.23C69.4528 171.615 69.2522 171.953 68.9705 172.244C68.6888 172.533 68.3408 172.758 67.9265 172.92C67.5122 173.08 67.0465 173.159 66.5295 173.159ZM76.8853 167.074L75.8313 167.372C75.765 167.196 75.6673 167.026 75.538 166.86C75.4121 166.691 75.2397 166.552 75.021 166.442C74.8022 166.333 74.5221 166.278 74.1808 166.278C73.7134 166.278 73.324 166.386 73.0124 166.602C72.7042 166.814 72.5501 167.084 72.5501 167.412C72.5501 167.704 72.6561 167.934 72.8683 168.103C73.0804 168.272 73.4118 168.413 73.8626 168.526L74.9961 168.804C75.6789 168.97 76.1876 169.223 76.5224 169.565C76.8571 169.903 77.0245 170.339 77.0245 170.872C77.0245 171.31 76.8986 171.701 76.6467 172.045C76.3981 172.39 76.0501 172.662 75.6026 172.861C75.1552 173.06 74.6348 173.159 74.0415 173.159C73.2627 173.159 72.618 172.99 72.1076 172.652C71.5972 172.314 71.274 171.82 71.1381 171.17L72.2518 170.892C72.3578 171.303 72.5584 171.611 72.8533 171.817C73.1516 172.022 73.5411 172.125 74.0217 172.125C74.5685 172.125 75.0027 172.009 75.3242 171.777C75.649 171.542 75.8114 171.26 75.8114 170.932C75.8114 170.667 75.7186 170.445 75.533 170.266C75.3474 170.083 75.0624 169.947 74.6779 169.858L73.4052 169.56C72.7058 169.394 72.1921 169.137 71.864 168.789C71.5392 168.438 71.3768 167.999 71.3768 167.472C71.3768 167.041 71.4978 166.66 71.7397 166.328C71.985 165.997 72.3181 165.737 72.739 165.548C73.1632 165.359 73.6438 165.264 74.1808 165.264C74.9364 165.264 75.5297 165.43 75.9606 165.761C76.3948 166.093 76.703 166.53 76.8853 167.074ZM82.7282 173V165.364H83.9015V173H82.7282ZM83.3248 164.091C83.0961 164.091 82.8989 164.013 82.7331 163.857C82.5707 163.701 82.4895 163.514 82.4895 163.295C82.4895 163.077 82.5707 162.889 82.7331 162.734C82.8989 162.578 83.0961 162.5 83.3248 162.5C83.5534 162.5 83.749 162.578 83.9114 162.734C84.0771 162.889 84.16 163.077 84.16 163.295C84.16 163.514 84.0771 163.701 83.9114 163.857C83.749 164.013 83.5534 164.091 83.3248 164.091ZM87.2237 168.406V173H86.0504V165.364H87.1839V166.557H87.2834C87.4624 166.169 87.7341 165.857 88.0987 165.622C88.4633 165.384 88.9339 165.264 89.5107 165.264C90.0277 165.264 90.4801 165.37 90.8679 165.582C91.2557 165.791 91.5573 166.109 91.7727 166.537C91.9882 166.961 92.0959 167.498 92.0959 168.148V173H90.9226V168.227C90.9226 167.627 90.7668 167.16 90.4553 166.825C90.1437 166.487 89.7161 166.318 89.1726 166.318C88.7981 166.318 88.4633 166.399 88.1683 166.562C87.8767 166.724 87.6463 166.961 87.4773 167.273C87.3082 167.584 87.2237 167.962 87.2237 168.406ZM102.234 162.818H103.467V170.097C103.467 170.746 103.348 171.298 103.109 171.752C102.871 172.206 102.534 172.551 102.1 172.786C101.666 173.022 101.154 173.139 100.564 173.139C100.007 173.139 99.5114 173.038 99.0772 172.836C98.6431 172.63 98.3017 172.339 98.0531 171.961C97.8045 171.583 97.6802 171.134 97.6802 170.614H98.8933C98.8933 170.902 98.9645 171.154 99.1071 171.369C99.2529 171.581 99.4518 171.747 99.7037 171.866C99.9556 171.986 100.242 172.045 100.564 172.045C100.918 172.045 101.22 171.971 101.469 171.822C101.717 171.673 101.906 171.454 102.035 171.165C102.168 170.874 102.234 170.518 102.234 170.097V162.818ZM108.026 173.179C107.542 173.179 107.103 173.088 106.709 172.906C106.314 172.72 106.001 172.453 105.769 172.105C105.537 171.754 105.421 171.33 105.421 170.832C105.421 170.395 105.507 170.04 105.68 169.768C105.852 169.493 106.082 169.278 106.371 169.122C106.659 168.966 106.977 168.85 107.325 168.774C107.676 168.695 108.029 168.632 108.384 168.585C108.848 168.526 109.224 168.481 109.513 168.451C109.804 168.418 110.016 168.363 110.149 168.287C110.285 168.211 110.353 168.078 110.353 167.889V167.849C110.353 167.359 110.219 166.978 109.95 166.706C109.685 166.434 109.282 166.298 108.742 166.298C108.182 166.298 107.743 166.421 107.425 166.666C107.106 166.911 106.883 167.173 106.753 167.452L105.64 167.054C105.839 166.59 106.104 166.229 106.435 165.97C106.77 165.708 107.135 165.526 107.529 165.423C107.927 165.317 108.318 165.264 108.702 165.264C108.948 165.264 109.229 165.294 109.547 165.354C109.869 165.41 110.179 165.528 110.477 165.707C110.779 165.886 111.029 166.156 111.228 166.517C111.427 166.878 111.526 167.362 111.526 167.969V173H110.353V171.966H110.293C110.214 172.132 110.081 172.309 109.895 172.498C109.71 172.687 109.463 172.848 109.155 172.98C108.846 173.113 108.47 173.179 108.026 173.179ZM108.205 172.125C108.669 172.125 109.06 172.034 109.378 171.852C109.7 171.669 109.942 171.434 110.104 171.146C110.27 170.857 110.353 170.554 110.353 170.236V169.162C110.303 169.222 110.194 169.276 110.025 169.326C109.859 169.372 109.667 169.414 109.448 169.45C109.233 169.483 109.022 169.513 108.817 169.54C108.614 169.563 108.45 169.583 108.324 169.599C108.019 169.639 107.734 169.704 107.469 169.793C107.207 169.879 106.995 170.01 106.833 170.186C106.674 170.358 106.594 170.594 106.594 170.892C106.594 171.3 106.745 171.608 107.047 171.817C107.352 172.022 107.738 172.125 108.205 172.125ZM114.841 168.406V173H113.668V165.364H114.801V166.557H114.901C115.08 166.169 115.351 165.857 115.716 165.622C116.08 165.384 116.551 165.264 117.128 165.264C117.645 165.264 118.097 165.37 118.485 165.582C118.873 165.791 119.174 166.109 119.39 166.537C119.605 166.961 119.713 167.498 119.713 168.148V173H118.54V168.227C118.54 167.627 118.384 167.16 118.072 166.825C117.761 166.487 117.333 166.318 116.79 166.318C116.415 166.318 116.08 166.399 115.786 166.562C115.494 166.724 115.263 166.961 115.094 167.273C114.925 167.584 114.841 167.962 114.841 168.406ZM126.67 169.878V165.364H127.843V173H126.67V171.707H126.59C126.411 172.095 126.133 172.425 125.755 172.697C125.377 172.965 124.9 173.099 124.323 173.099C123.846 173.099 123.421 172.995 123.05 172.786C122.679 172.574 122.387 172.256 122.175 171.832C121.963 171.404 121.857 170.866 121.857 170.216V165.364H123.03V170.136C123.03 170.693 123.186 171.137 123.498 171.469C123.813 171.8 124.214 171.966 124.701 171.966C124.992 171.966 125.289 171.891 125.591 171.742C125.896 171.593 126.151 171.364 126.356 171.056C126.565 170.748 126.67 170.355 126.67 169.878ZM132.239 173.179C131.755 173.179 131.316 173.088 130.922 172.906C130.527 172.72 130.214 172.453 129.982 172.105C129.75 171.754 129.634 171.33 129.634 170.832C129.634 170.395 129.72 170.04 129.892 169.768C130.065 169.493 130.295 169.278 130.583 169.122C130.872 168.966 131.19 168.85 131.538 168.774C131.889 168.695 132.242 168.632 132.597 168.585C133.061 168.526 133.437 168.481 133.725 168.451C134.017 168.418 134.229 168.363 134.362 168.287C134.498 168.211 134.566 168.078 134.566 167.889V167.849C134.566 167.359 134.431 166.978 134.163 166.706C133.898 166.434 133.495 166.298 132.955 166.298C132.395 166.298 131.956 166.421 131.637 166.666C131.319 166.911 131.096 167.173 130.966 167.452L129.853 167.054C130.051 166.59 130.317 166.229 130.648 165.97C130.983 165.708 131.347 165.526 131.742 165.423C132.14 165.317 132.531 165.264 132.915 165.264C133.16 165.264 133.442 165.294 133.76 165.354C134.082 165.41 134.392 165.528 134.69 165.707C134.992 165.886 135.242 166.156 135.441 166.517C135.64 166.878 135.739 167.362 135.739 167.969V173H134.566V171.966H134.506C134.426 172.132 134.294 172.309 134.108 172.498C133.923 172.687 133.676 172.848 133.368 172.98C133.059 173.113 132.683 173.179 132.239 173.179ZM132.418 172.125C132.882 172.125 133.273 172.034 133.591 171.852C133.913 171.669 134.155 171.434 134.317 171.146C134.483 170.857 134.566 170.554 134.566 170.236V169.162C134.516 169.222 134.407 169.276 134.238 169.326C134.072 169.372 133.88 169.414 133.661 169.45C133.445 169.483 133.235 169.513 133.029 169.54C132.827 169.563 132.663 169.583 132.537 169.599C132.232 169.639 131.947 169.704 131.682 169.793C131.42 169.879 131.208 170.01 131.046 170.186C130.887 170.358 130.807 170.594 130.807 170.892C130.807 171.3 130.958 171.608 131.26 171.817C131.565 172.022 131.951 172.125 132.418 172.125ZM137.881 173V165.364H139.014V166.517H139.094C139.233 166.139 139.485 165.833 139.849 165.597C140.214 165.362 140.625 165.244 141.082 165.244C141.168 165.244 141.276 165.246 141.405 165.249C141.535 165.253 141.632 165.258 141.699 165.264V166.457C141.659 166.447 141.568 166.433 141.425 166.413C141.286 166.389 141.139 166.378 140.983 166.378C140.612 166.378 140.28 166.456 139.988 166.612C139.7 166.764 139.471 166.976 139.302 167.248C139.137 167.516 139.054 167.823 139.054 168.168V173H137.881ZM144.078 175.864C143.879 175.864 143.701 175.847 143.546 175.814C143.39 175.784 143.282 175.754 143.222 175.724L143.521 174.69C143.806 174.763 144.058 174.79 144.276 174.77C144.495 174.75 144.689 174.652 144.858 174.477C145.03 174.304 145.188 174.024 145.33 173.636L145.549 173.04L142.725 165.364H143.998L146.106 171.449H146.186L148.294 165.364H149.566L146.325 174.114C146.179 174.508 145.998 174.835 145.783 175.093C145.567 175.355 145.317 175.549 145.032 175.675C144.75 175.801 144.432 175.864 144.078 175.864ZM151.491 173.08C151.246 173.08 151.036 172.992 150.86 172.816C150.684 172.64 150.597 172.43 150.597 172.185C150.597 171.939 150.684 171.729 150.86 171.553C151.036 171.378 151.246 171.29 151.491 171.29C151.737 171.29 151.947 171.378 152.123 171.553C152.299 171.729 152.386 171.939 152.386 172.185C152.386 172.347 152.345 172.496 152.262 172.632C152.183 172.768 152.075 172.877 151.939 172.96C151.806 173.04 151.657 173.08 151.491 173.08Z" fill="#212121"/>
<line x1="24.5" y1="116.5" x2="333.5" y2="116.5" stroke="white" stroke-opacity="0.4" stroke-linecap="round"/>
<mask id="mask1_1_133" style="mask-type:alpha" maskUnits="userSpaceOnUse" x="303" y="64" width="31" height="31">
<rect x="303" y="64" width="31" height="31" fill="#D9D9D9"/>
</mask>
<g mask="url(#mask1_1_133)">
<path d="M327.543 75.8598L325.928 72.3046L322.376 70.6887L325.928 69.0727L327.543 65.5176L329.158 69.0727L332.71 70.6887L329.158 72.3046L327.543 75.8598ZM327.543 93.9586L325.928 90.4035L322.376 88.7875L325.928 87.1716L327.543 83.6164L329.158 87.1716L332.71 88.7875L329.158 90.4035L327.543 93.9586ZM314.626 90.0803L311.397 82.97L304.293 79.7381L311.397 76.5062L314.626 69.3959L317.855 76.5062L324.96 79.7381L317.855 82.97L314.626 90.0803Z" fill="#FFEAEE" fill-opacity="0.5"/>
</g>
<defs>
<linearGradient id="paint0_linear_1_133" x1="-34.4431" y1="9.5" x2="362.742" y2="210.827" gradientUnits="userSpaceOnUse">
<stop stop-color="#7B92F8"/>
<stop offset="1" stop-color="#FF9393"/>
</linearGradient>
</defs>
</svg>
