<svg width="27" height="27" viewBox="0 0 27 27" fill="none" xmlns="http://www.w3.org/2000/svg">
<path d="M15.0013 19.7096C13.7944 19.7096 12.6601 19.4805 11.5986 19.0221C10.5365 18.5638 9.61589 17.9451 8.83672 17.1659C8.05755 16.3867 7.4388 15.4661 6.98047 14.404C6.52214 13.3425 6.29297 12.2082 6.29297 11.0013C6.29297 9.79436 6.52214 8.65983 6.98047 7.59772C7.4388 6.53622 8.05755 5.61589 8.83672 4.83672C9.61589 4.05755 10.5365 3.4388 11.5986 2.98047C12.6601 2.52214 13.7944 2.29297 15.0013 2.29297C16.2082 2.29297 17.3428 2.52214 18.4049 2.98047C19.4664 3.4388 20.3867 4.05755 21.1659 4.83672C21.9451 5.61589 22.5638 6.53622 23.0221 7.59772C23.4805 8.65983 23.7096 9.79436 23.7096 11.0013C23.7096 12.2082 23.4805 13.3425 23.0221 14.404C22.5638 15.4661 21.9451 16.3867 21.1659 17.1659C20.3867 17.9451 19.4664 18.5638 18.4049 19.0221C17.3428 19.4805 16.2082 19.7096 15.0013 19.7096Z" fill="white"/>
<path d="M8.97368 12.8816C9.36053 12.8816 9.68768 12.7478 9.95516 12.4804C10.2219 12.2136 10.3553 11.8868 10.3553 11.5C10.3553 11.1132 10.2219 10.7864 9.95516 10.5196C9.68768 10.2522 9.36053 10.1184 8.97368 10.1184C8.58684 10.1184 8.26005 10.2522 7.99332 10.5196C7.72584 10.7864 7.59211 11.1132 7.59211 11.5C7.59211 11.8868 7.72584 12.2136 7.99332 12.4804C8.26005 12.7478 8.58684 12.8816 8.97368 12.8816ZM14.5 12.8816C14.8868 12.8816 15.2136 12.7478 15.4804 12.4804C15.7478 12.2136 15.8816 11.8868 15.8816 11.5C15.8816 11.1132 15.7478 10.7864 15.4804 10.5196C15.2136 10.2522 14.8868 10.1184 14.5 10.1184C14.1132 10.1184 13.7864 10.2522 13.5196 10.5196C13.2522 10.7864 13.1184 11.1132 13.1184 11.5C13.1184 11.8868 13.2522 12.2136 13.5196 12.4804C13.7864 12.7478 14.1132 12.8816 14.5 12.8816ZM20.0263 12.8816C20.4132 12.8816 20.7403 12.7478 21.0078 12.4804C21.2745 12.2136 21.4079 11.8868 21.4079 11.5C21.4079 11.1132 21.2745 10.7864 21.0078 10.5196C20.7403 10.2522 20.4132 10.1184 20.0263 10.1184C19.6395 10.1184 19.3127 10.2522 19.0459 10.5196C18.7785 10.7864 18.6447 11.1132 18.6447 11.5C18.6447 11.8868 18.7785 12.2136 19.0459 12.4804C19.3127 12.7478 19.6395 12.8816 20.0263 12.8816ZM14.5 22C13.0447 22 11.6772 21.7237 10.3973 21.1711C9.11663 20.6184 8.00658 19.8724 7.06711 18.9329C6.12763 17.9934 5.38158 16.8834 4.82895 15.6027C4.27632 14.3228 4 12.9553 4 11.5C4 10.0447 4.27632 8.67679 4.82895 7.39616C5.38158 6.11626 6.12763 5.00658 7.06711 4.06711C8.00658 3.12763 9.11663 2.38158 10.3973 1.82895C11.6772 1.27632 13.0447 1 14.5 1C15.9553 1 17.3232 1.27632 18.6038 1.82895C19.8837 2.38158 20.9934 3.12763 21.9329 4.06711C22.8724 5.00658 23.6184 6.11626 24.1711 7.39616C24.7237 8.67679 25 10.0447 25 11.5C25 12.9553 24.7237 14.3228 24.1711 15.6027C23.6184 16.8834 22.8724 17.9934 21.9329 18.9329C20.9934 19.8724 19.8837 20.6184 18.6038 21.1711C17.3232 21.7237 15.9553 22 14.5 22Z" fill="#1A213F"/>
</svg>
