<svg width="27" height="27" viewBox="0 0 27 27" fill="none" xmlns="http://www.w3.org/2000/svg">
<path d="M14.5 22C13.0447 22 11.6772 21.7237 10.3973 21.1711C9.11663 20.6184 8.00658 19.8724 7.06711 18.9329C6.12763 17.9934 5.38158 16.8834 4.82895 15.6027C4.27632 14.3228 4 12.9553 4 11.5C4 10.0447 4.27632 8.67679 4.82895 7.39616C5.38158 6.11626 6.12763 5.00658 7.06711 4.06711C8.00658 3.12763 9.11663 2.38158 10.3973 1.82895C11.6772 1.27632 13.0447 1 14.5 1C15.9553 1 17.3232 1.27632 18.6038 1.82895C19.8837 2.38158 20.9934 3.12763 21.9329 4.06711C22.8724 5.00658 23.6184 6.11626 24.1711 7.39616C24.7237 8.67679 25 10.0447 25 11.5C25 12.9553 24.7237 14.3228 24.1711 15.6027C23.6184 16.8834 22.8724 17.9934 21.9329 18.9329C20.9934 19.8724 19.8837 20.6184 18.6038 21.1711C17.3232 21.7237 15.9553 22 14.5 22Z" fill="#1A213F"/>
<mask id="mask0_1_218" style="mask-type:alpha" maskUnits="userSpaceOnUse" x="8" y="5" width="13" height="13">
<rect x="8" y="5" width="13" height="13" fill="#D9D9D9"/>
</mask>
<g mask="url(#mask0_1_218)">
<path d="M10.166 15.2923V14.209H11.2493V10.4173C11.2493 9.66801 11.475 9.00212 11.9264 8.41965C12.3778 7.83754 12.9646 7.45621 13.6868 7.27565V6.89648C13.6868 6.67079 13.7659 6.47904 13.9241 6.32123C14.0819 6.16307 14.2737 6.08398 14.4993 6.08398C14.725 6.08398 14.9168 6.16307 15.0746 6.32123C15.2328 6.47904 15.3118 6.67079 15.3118 6.89648V7.27565C16.0341 7.45621 16.6209 7.83754 17.0723 8.41965C17.5237 9.00212 17.7493 9.66801 17.7493 10.4173V14.209H18.8327V15.2923H10.166ZM14.4993 16.9173C14.2014 16.9173 13.9465 16.8113 13.7345 16.5994C13.5222 16.387 13.416 16.1319 13.416 15.834H15.5827C15.5827 16.1319 15.4767 16.387 15.2647 16.5994C15.0524 16.8113 14.7973 16.9173 14.4993 16.9173Z" fill="white"/>
</g>
</svg>
